# Vents & bolts | length 4 | blade -X up +Y
mtllib 06.mtl
g vents_bolts
v -1.096512 -0.080899 0.227296
v -1.106624 -0.056492 0.227296
v -1.116393 -0.056492 0.207560
v -1.096512 -0.032085 0.227296
v -1.103420 -0.087807 0.207560
v -1.103420 -0.025177 0.207560
v -1.124228 -0.056492 0.158219
v -1.105275 -0.023322 0.195060
v -1.108966 -0.019631 0.158219
v -1.119018 -0.056492 0.195060
v -1.105275 -0.089662 0.195060
v -1.108966 -0.093346 0.158219
v -1.072105 -0.012204 0.207560
v -1.103420 -0.025177 0.207560
v -1.096512 -0.032085 0.227296
v -1.072105 -0.021973 0.227296
v -1.047698 -0.032085 0.227296
v -1.040790 -0.025177 0.207560
v -1.038935 -0.023322 0.195060
v -1.072105 -0.004368 0.158219
v -1.072105 -0.009579 0.195060
v -1.105275 -0.023322 0.195060
v -1.035244 -0.019631 0.158219
v -1.108966 -0.019631 0.158219
v -1.027817 -0.056492 0.207560
v -1.047698 -0.080899 0.227296
v -1.040790 -0.087807 0.207560
v -1.040790 -0.025177 0.207560
v -1.047698 -0.032085 0.227296
v -1.037586 -0.056492 0.227296
v -1.038935 -0.023322 0.195060
v -1.019981 -0.056492 0.158219
v -1.035244 -0.019631 0.158219
v -1.025192 -0.056492 0.195060
v -1.038935 -0.089662 0.195060
v -1.035244 -0.093346 0.158219
v -1.072105 -0.100780 0.207560
v -1.096512 -0.080899 0.227296
v -1.103420 -0.087807 0.207560
v -1.072105 -0.091011 0.227296
v -1.047698 -0.080899 0.227296
v -1.040790 -0.087807 0.207560
v -1.038935 -0.089662 0.195060
v -1.072105 -0.108615 0.158219
v -1.035244 -0.093346 0.158219
v -1.105275 -0.089662 0.195060
v -1.108966 -0.093346 0.158219
v -1.072105 -0.103405 0.195060
v -1.096512 -0.080899 0.227296
v -1.047698 -0.032085 0.227296
v -1.096512 -0.032085 0.227296
v -1.072105 -0.021973 0.227296
v -1.106624 -0.056492 0.227296
v -1.047698 -0.080899 0.227296
v -1.037586 -0.056492 0.227296
v -1.072105 -0.091011 0.227296
v -1.119018 -0.056492 0.194402
v -1.103420 -0.025177 0.206902
v -1.105275 -0.023322 0.194402
v -1.103420 -0.087807 0.206902
v -1.105275 -0.089662 0.194402
v -1.116393 -0.056492 0.206902
v -1.072105 -0.009579 0.194402
v -1.040790 -0.025177 0.206902
v -1.038935 -0.023322 0.194402
v -1.072105 -0.012204 0.206902
v -1.103420 -0.025177 0.206902
v -1.105275 -0.023322 0.194402
v -1.040790 -0.025177 0.206902
v -1.027817 -0.056492 0.206902
v -1.025192 -0.056492 0.194402
v -1.040790 -0.087807 0.206902
v -1.038935 -0.023322 0.194402
v -1.038935 -0.089662 0.194402
v -1.040790 -0.087807 0.206902
v -1.072105 -0.103405 0.194402
v -1.038935 -0.089662 0.194402
v -1.072105 -0.100780 0.206902
v -1.103420 -0.087807 0.206902
v -1.105275 -0.089662 0.194402
v -1.077447 -0.029585 0.225981
v -1.075940 -0.034742 0.247690
v -1.075980 -0.025690 0.225323
v -1.077447 -0.037466 0.245059
v -1.075842 -0.033328 0.225981
v -1.075940 -0.056492 0.256901
v -1.075809 -0.040091 0.242427
v -1.077447 -0.056492 0.252953
v -1.075809 -0.056492 0.249006
v -1.075809 -0.072893 0.242427
v -1.077447 -0.075518 0.245059
v -1.075842 -0.079649 0.225981
v -1.077447 -0.083399 0.225981
v -1.075940 -0.078241 0.247690
v -1.075980 -0.087294 0.225323
v -1.068269 -0.034742 0.247690
v -1.072105 -0.024006 0.225323
v -1.072105 -0.033598 0.249006
v -1.068230 -0.025690 0.225323
v -1.075940 -0.034742 0.247690
v -1.075980 -0.025690 0.225323
v -1.075842 -0.079649 0.225981
v -1.075809 -0.072893 0.242427
v -1.072105 -0.071840 0.241112
v -1.072105 -0.078090 0.226638
v -1.068368 -0.079649 0.225981
v -1.068401 -0.072893 0.242427
v -1.072105 -0.041144 0.241112
v -1.075809 -0.056492 0.249006
v -1.075809 -0.040091 0.242427
v -1.072105 -0.056492 0.247690
v -1.068401 -0.056492 0.249006
v -1.068401 -0.040091 0.242427
v -1.072105 -0.071840 0.241112
v -1.075809 -0.072893 0.242427
v -1.068401 -0.072893 0.242427
v -1.068269 -0.034742 0.247690
v -1.066763 -0.029585 0.225981
v -1.068230 -0.025690 0.225323
v -1.066763 -0.037466 0.245059
v -1.068368 -0.033328 0.225981
v -1.068269 -0.056492 0.256901
v -1.068401 -0.040091 0.242427
v -1.068269 -0.078241 0.247690
v -1.068230 -0.087294 0.225323
v -1.066763 -0.083399 0.225981
v -1.066763 -0.075518 0.245059
v -1.068368 -0.079649 0.225981
v -1.066763 -0.056492 0.252953
v -1.068401 -0.056492 0.249006
v -1.068401 -0.072893 0.242427
v -1.072105 -0.041144 0.241112
v -1.068368 -0.033328 0.225981
v -1.068401 -0.040091 0.242427
v -1.075842 -0.033328 0.225981
v -1.075809 -0.040091 0.242427
v -1.072105 -0.034894 0.226638
v -1.075940 -0.078241 0.247690
v -1.075980 -0.087294 0.225323
v -1.072105 -0.088978 0.225323
v -1.072105 -0.079386 0.249006
v -1.068269 -0.078241 0.247690
v -1.068230 -0.087294 0.225323
v -1.072105 -0.056492 0.258216
v -1.068269 -0.034742 0.247690
v -1.072105 -0.033598 0.249006
v -1.075940 -0.034742 0.247690
v -1.068269 -0.056492 0.256901
v -1.075940 -0.056492 0.256901
v -1.075940 -0.078241 0.247690
v -1.072105 -0.079386 0.249006
v -1.068269 -0.078241 0.247690
vt 42.0066 -9.00464 
vt 42.0066 -9 
vt 42.0028 -9 
vt 42.0066 -8.99536 
vt 42.0028 -9.00595 
vt 42.0028 -8.99405 
vt 41.9934 -9 
vt 42.0004 -8.9937 
vt 41.9934 -8.993 
vt 42.0004 -9 
vt 42.0004 -9.0063 
vt 41.9934 -9.007 
vt 42 -9.00281 
vt 41.994 -9.00281 
vt 41.9954 -9.00655 
vt 42 -9.00655 
vt 42.0046 -9.00655 
vt 42.006 -9.00281 
vt 42.0063 -9.00038 
vt 42 -8.99345 
vt 42 -9.00038 
vt 41.9937 -9.00038 
vt 42.007 -8.99345 
vt 41.993 -8.99345 
vt 41.9972 -9 
vt 41.9934 -9.00464 
vt 41.9972 -9.00595 
vt 41.9972 -8.99405 
vt 41.9934 -8.99536 
vt 41.9934 -9 
vt 41.9996 -8.9937 
vt 42.0066 -9 
vt 42.0066 -8.993 
vt 41.9996 -9 
vt 41.9996 -9.0063 
vt 42.0066 -9.007 
vt 42 -9.00281 
vt 42.0046 -9.00655 
vt 42.006 -9.00281 
vt 42 -9.00655 
vt 41.9954 -9.00655 
vt 41.994 -9.00281 
vt 41.9937 -9.00038 
vt 42 -8.99345 
vt 41.993 -8.99345 
vt 42.0063 -9.00038 
vt 42.007 -8.99345 
vt 42 -9.00038 
vt 41.9954 -9.00464 
vt 42.0046 -8.99536 
vt 41.9954 -8.99536 
vt 42 -8.99344 
vt 41.9934 -9 
vt 42.0046 -9.00464 
vt 42.0066 -9 
vt 42 -9.00656 
vt 11.9988 -41 
vt 12.0012 -40.994 
vt 11.9988 -40.9937 
vt 12.0012 -41.006 
vt 11.9988 -41.0063 
vt 12.0012 -41 
vt 12 -40.9988 
vt 12.0059 -41.0012 
vt 12.0063 -40.9988 
vt 12 -41.0012 
vt 11.9941 -41.0012 
vt 11.9937 -40.9988 
vt 11.9988 -40.994 
vt 11.9988 -41 
vt 12.0012 -41 
vt 11.9988 -41.006 
vt 12.0012 -40.9937 
vt 12.0012 -41.0063 
vt 11.9941 -41.0012 
vt 12 -40.9988 
vt 11.9937 -40.9988 
vt 12 -41.0012 
vt 12.0059 -41.0012 
vt 12.0063 -40.9988 
vt 25.997 -34.9949 
vt 26.0011 -34.9959 
vt 25.9969 -34.9941 
vt 26.0006 -34.9964 
vt 25.997 -34.9956 
vt 26.0028 -35 
vt 26.0001 -34.9969 
vt 26.0021 -35 
vt 26.0014 -35 
vt 26.0001 -35.0031 
vt 26.0006 -35.0036 
vt 25.997 -35.0044 
vt 25.997 -35.0051 
vt 26.0011 -35.0041 
vt 25.9969 -35.0059 
vt 26.0007 -35.0011 
vt 26 -34.9969 
vt 26 -35.0013 
vt 26.0007 -34.9969 
vt 25.9993 -35.0011 
vt 25.9993 -34.9969 
vt 25.9993 -34.997 
vt 25.9993 -35.0001 
vt 26 -34.9999 
vt 26 -34.9971 
vt 26.0007 -34.997 
vt 26.0007 -35.0001 
vt 26 -34.9971 
vt 26.0007 -35 
vt 26.0007 -34.9969 
vt 26 -35 
vt 25.9993 -35 
vt 25.9993 -34.9969 
vt 26 -35.0029 
vt 26.0007 -35.0031 
vt 25.9993 -35.0031 
vt 25.9989 -34.9959 
vt 26.003 -34.9949 
vt 26.0031 -34.9941 
vt 25.9994 -34.9964 
vt 26.003 -34.9956 
vt 25.9972 -35 
vt 25.9999 -34.9969 
vt 25.9989 -35.0041 
vt 26.0031 -35.0059 
vt 26.003 -35.0051 
vt 25.9994 -35.0036 
vt 26.003 -35.0044 
vt 25.9979 -35 
vt 25.9986 -35 
vt 25.9999 -35.0031 
vt 26 -34.9999 
vt 25.9993 -34.997 
vt 25.9993 -35.0001 
vt 26.0007 -34.997 
vt 26.0007 -35.0001 
vt 26 -34.9971 
vt 26.0007 -35.0011 
vt 26.0007 -34.9969 
vt 26 -34.9969 
vt 26 -35.0013 
vt 25.9993 -35.0011 
vt 25.9993 -34.9969 
vt 26 -35 
vt 26.0007 -34.9959 
vt 26 -34.9957 
vt 25.9993 -34.9959 
vt 26.0007 -35 
vt 25.9993 -35 
vt 25.9993 -35.0041 
vt 26 -35.0043 
vt 26.0007 -35.0041 
vn -0.6299 -0.6299 0.4409
vn -0.8976 0.0000 0.4409
vn -0.8976 0.0000 0.4409
vn -0.6299 0.6299 0.4409
vn -0.6299 -0.6299 0.4409
vn -0.6299 0.6299 0.4409
vn -0.9921 0.0000 0.1417
vn -0.7008 0.7008 0.1417
vn -0.7008 0.7008 0.1417
vn -0.9921 0.0000 0.1417
vn -0.7008 -0.7008 0.1417
vn -0.7008 -0.7008 0.1417
vn 0.0000 0.8976 0.4409
vn -0.6299 0.6299 0.4409
vn -0.6299 0.6299 0.4409
vn 0.0000 0.8976 0.4409
vn 0.6299 0.6299 0.4409
vn 0.6299 0.6299 0.4409
vn 0.7008 0.7008 0.1417
vn 0.0000 0.9921 0.1417
vn 0.0000 0.9921 0.1417
vn -0.7008 0.7008 0.1417
vn 0.7008 0.7008 0.1417
vn -0.7008 0.7008 0.1417
vn 0.8976 0.0000 0.4409
vn 0.6299 -0.6299 0.4409
vn 0.6299 -0.6299 0.4409
vn 0.6299 0.6299 0.4409
vn 0.6299 0.6299 0.4409
vn 0.8976 0.0000 0.4409
vn 0.7008 0.7008 0.1417
vn 0.9921 0.0000 0.1417
vn 0.7008 0.7008 0.1417
vn 0.9921 0.0000 0.1417
vn 0.7008 -0.7008 0.1417
vn 0.7008 -0.7008 0.1417
vn 0.0000 -0.8976 0.4409
vn -0.6299 -0.6299 0.4409
vn -0.6299 -0.6299 0.4409
vn 0.0000 -0.8976 0.4409
vn 0.6299 -0.6299 0.4409
vn 0.6299 -0.6299 0.4409
vn 0.7008 -0.7008 0.1417
vn 0.0000 -0.9921 0.1417
vn 0.7008 -0.7008 0.1417
vn -0.7008 -0.7008 0.1417
vn -0.7008 -0.7008 0.1417
vn 0.0000 -0.9921 0.1417
vn 0.0000 0.0000 1.0000
vn 0.0000 0.0000 1.0000
vn 0.0000 0.0000 1.0000
vn 0.0000 0.0000 1.0000
vn 0.0000 0.0000 1.0000
vn 0.0000 0.0000 1.0000
vn 0.0000 0.0000 1.0000
vn 0.0000 0.0000 1.0000
vn -0.9764 0.0000 0.1968
vn -0.6929 0.6929 0.1968
vn -0.6929 0.6929 0.1968
vn -0.6929 -0.6929 0.1968
vn -0.6929 -0.6929 0.1968
vn -0.9764 0.0000 0.1968
vn 0.0000 0.9764 0.1968
vn 0.6929 0.6929 0.1968
vn 0.6929 0.6929 0.1968
vn 0.0000 0.9764 0.1968
vn -0.6929 0.6929 0.1968
vn -0.6929 0.6929 0.1968
vn 0.6929 0.6929 0.1968
vn 0.9764 0.0000 0.1968
vn 0.9764 0.0000 0.1968
vn 0.6929 -0.6929 0.1968
vn 0.6929 0.6929 0.1968
vn 0.6929 -0.6929 0.1968
vn 0.6929 -0.6929 0.1968
vn 0.0000 -0.9764 0.1968
vn 0.6929 -0.6929 0.1968
vn 0.0000 -0.9764 0.1968
vn -0.6929 -0.6929 0.1968
vn -0.6929 -0.6929 0.1968
vn -0.9921 0.1024 0.0394
vn -0.6693 0.5276 0.5197
vn -0.6299 0.7165 0.2992
vn -1.0000 0.0551 0.0551
vn -0.7244 -0.6299 -0.2677
vn -0.6693 0.0000 0.7402
vn -0.7402 -0.4724 -0.4724
vn -1.0000 0.0000 0.0709
vn -0.7480 0.0000 -0.6693
vn -0.7402 0.4724 -0.4724
vn -1.0000 -0.0551 0.0551
vn -0.7323 0.6299 -0.2677
vn -0.9921 -0.1024 0.0394
vn -0.6693 -0.5276 0.5197
vn -0.6299 -0.7165 0.2992
vn 0.6693 0.5276 0.5197
vn 0.0000 0.9291 0.3780
vn 0.0000 0.7087 0.7087
vn 0.6299 0.7165 0.2992
vn -0.6693 0.5276 0.5197
vn -0.6299 0.7165 0.2992
vn -0.7323 0.6299 -0.2677
vn -0.7402 0.4724 -0.4724
vn 0.0000 0.7087 -0.7087
vn 0.0000 0.9213 -0.3858
vn 0.7323 0.6299 -0.2677
vn 0.7402 0.4724 -0.4724
vn 0.0000 -0.7008 -0.7087
vn -0.7480 0.0000 -0.6693
vn -0.7402 -0.4724 -0.4724
vn 0.0000 0.0000 -1.0000
vn 0.7480 0.0000 -0.6693
vn 0.7402 -0.4724 -0.4724
vn 0.0000 0.7087 -0.7087
vn -0.7402 0.4724 -0.4724
vn 0.7402 0.4724 -0.4724
vn 0.6693 0.5276 0.5197
vn 0.9921 0.1024 0.0394
vn 0.6299 0.7165 0.2992
vn 1.0000 0.0551 0.0551
vn 0.7323 -0.6299 -0.2677
vn 0.6693 0.0000 0.7402
vn 0.7402 -0.4724 -0.4724
vn 0.6693 -0.5276 0.5197
vn 0.6299 -0.7165 0.2992
vn 0.9921 -0.1024 0.0394
vn 1.0000 -0.0551 0.0551
vn 0.7323 0.6299 -0.2677
vn 1.0000 0.0000 0.0709
vn 0.7480 0.0000 -0.6693
vn 0.7402 0.4724 -0.4724
vn 0.0000 -0.7008 -0.7087
vn 0.7323 -0.6299 -0.2677
vn 0.7402 -0.4724 -0.4724
vn -0.7244 -0.6299 -0.2677
vn -0.7402 -0.4724 -0.4724
vn 0.0000 -0.9213 -0.3858
vn -0.6693 -0.5276 0.5197
vn -0.6299 -0.7165 0.2992
vn 0.0000 -0.9291 0.3780
vn 0.0000 -0.7087 0.7087
vn 0.6693 -0.5276 0.5197
vn 0.6299 -0.7165 0.2992
vn 0.0000 0.0000 1.0000
vn 0.6693 0.5276 0.5197
vn 0.0000 0.7087 0.7087
vn -0.6693 0.5276 0.5197
vn 0.6693 0.0000 0.7402
vn -0.6693 0.0000 0.7402
vn -0.6693 -0.5276 0.5197
vn 0.0000 -0.7087 0.7087
vn 0.6693 -0.5276 0.5197
usemtl Meshpart5Mtl
f 1/1/1 2/2/2 3/3/3
f 4/4/4 3/3/3 2/2/2
f 3/3/3 5/5/5 1/1/1
f 3/3/3 4/4/4 6/6/6
f 7/7/7 8/8/8 9/9/9
f 8/8/8 7/7/7 10/10/10
f 7/7/7 11/11/11 10/10/10
f 11/11/11 7/7/7 12/12/12
f 13/13/13 14/14/14 15/15/15
f 15/15/15 16/16/16 13/13/13
f 17/17/17 13/13/13 16/16/16
f 13/13/13 17/17/17 18/18/18
f 19/19/19 20/20/20 21/21/21
f 20/20/20 22/22/22 21/21/21
f 20/20/20 19/19/19 23/23/23
f 22/22/22 20/20/20 24/24/24
f 25/25/25 26/26/26 27/27/27
f 25/25/25 28/28/28 29/29/29
f 26/26/26 25/25/25 30/30/30
f 29/29/29 30/30/30 25/25/25
f 31/31/31 32/32/32 33/33/33
f 32/32/32 31/31/31 34/34/34
f 35/35/35 32/32/32 34/34/34
f 32/32/32 35/35/35 36/36/36
f 37/37/37 38/38/38 39/39/39
f 38/38/38 37/37/37 40/40/40
f 41/41/41 40/40/40 37/37/37
f 37/37/37 42/42/42 41/41/41
f 43/43/43 44/44/44 45/45/45
f 44/44/44 46/46/46 47/47/47
f 44/44/44 43/43/43 48/48/48
f 46/46/46 44/44/44 48/48/48
f 49/49/49 50/50/50 51/51/51
f 51/51/51 50/50/50 52/52/52
f 49/49/49 51/51/51 53/53/53
f 49/49/49 54/54/54 50/50/50
f 50/50/50 54/54/54 55/55/55
f 54/54/54 49/49/49 56/56/56
usemtl Meshpart1Mtl
f 57/57/57 58/58/58 59/59/59
f 60/60/60 57/57/57 61/61/61
f 58/58/58 57/57/57 62/62/62
f 60/60/60 62/62/62 57/57/57
f 63/63/63 64/64/64 65/65/65
f 64/64/64 63/63/63 66/66/66
f 67/67/67 66/66/66 63/63/63
f 67/67/67 63/63/63 68/68/68
f 69/69/69 70/70/70 71/71/71
f 72/72/72 71/71/71 70/70/70
f 69/69/69 71/71/71 73/73/73
f 71/71/71 72/72/72 74/74/74
f 75/75/75 76/76/76 77/77/77
f 75/75/75 78/78/78 76/76/76
f 79/79/79 76/76/76 78/78/78
f 76/76/76 79/79/79 80/80/80
f 81/81/81 82/82/82 83/83/83
f 82/82/82 81/81/81 84/84/84
f 85/85/85 84/84/84 81/81/81
f 86/86/86 82/82/82 84/84/84
f 84/84/84 85/85/85 87/87/87
f 88/88/88 84/84/84 87/87/87
f 86/86/86 84/84/84 88/88/88
f 88/88/88 87/87/87 89/89/89
f 90/90/90 88/88/88 89/89/89
f 91/91/91 86/86/86 88/88/88
f 88/88/88 90/90/90 91/91/91
f 92/92/92 91/91/91 90/90/90
f 91/91/91 92/92/92 93/93/93
f 86/86/86 91/91/91 94/94/94
f 93/93/93 94/94/94 91/91/91
f 94/94/94 93/93/93 95/95/95
f 96/96/96 97/97/97 98/98/98
f 97/97/97 96/96/96 99/99/99
f 97/97/97 100/100/100 98/98/98
f 100/100/100 97/97/97 101/101/101
f 102/102/102 103/103/103 104/104/104
f 104/104/104 105/105/105 102/102/102
f 104/104/104 106/106/106 105/105/105
f 106/106/106 104/104/104 107/107/107
f 108/108/108 109/109/109 110/110/110
f 109/109/109 108/108/108 111/111/111
f 112/112/112 108/108/108 113/113/113
f 108/108/108 112/112/112 111/111/111
f 114/114/114 109/109/109 111/111/111
f 112/112/112 114/114/114 111/111/111
f 109/109/109 114/114/114 115/115/115
f 114/114/114 112/112/112 116/116/116
f 117/117/117 118/118/118 119/119/119
f 118/118/118 117/117/117 120/120/120
f 120/120/120 121/121/121 118/118/118
f 122/122/122 120/120/120 117/117/117
f 121/121/121 120/120/120 123/123/123
f 124/124/124 125/125/125 126/126/126
f 124/124/124 126/126/126 127/127/127
f 127/127/127 122/122/122 124/124/124
f 127/127/127 126/126/126 128/128/128
f 122/122/122 127/127/127 129/129/129
f 120/120/120 122/122/122 129/129/129
f 129/129/129 123/123/123 120/120/120
f 123/123/123 129/129/129 130/130/130
f 131/131/131 129/129/129 127/127/127
f 127/127/127 128/128/128 131/131/131
f 129/129/129 131/131/131 130/130/130
f 132/132/132 133/133/133 134/134/134
f 135/135/135 132/132/132 136/136/136
f 133/133/133 132/132/132 137/137/137
f 132/132/132 135/135/135 137/137/137
f 138/138/138 139/139/139 140/140/140
f 140/140/140 141/141/141 138/138/138
f 140/140/140 142/142/142 141/141/141
f 142/142/142 140/140/140 143/143/143
f 144/144/144 145/145/145 146/146/146
f 144/144/144 146/146/146 147/147/147
f 145/145/145 144/144/144 148/148/148
f 147/147/147 149/149/149 144/144/144
f 150/150/150 144/144/144 149/149/149
f 144/144/144 150/150/150 151/151/151
f 144/144/144 151/151/151 152/152/152
f 152/152/152 148/148/148 144/144/144
