# Blade | length 4 | blade -X up +Y
mtllib 06.mtl
g blade
v -0.960990 0.065024 -0.013486
v -0.917596 0.410206 -0.013486
v -0.917596 0.410206 0.031907
v -0.960990 0.065024 0.031907
v -0.831381 -0.575214 -0.013486
v -0.934056 -0.242816 -0.013486
v -0.934056 -0.242816 0.031907
v -0.831381 -0.575214 0.031907
v -0.390881 0.352655 -0.013486
v -0.249470 -0.035861 0.008881
v -0.249470 -0.035861 -0.013486
v -0.321271 -0.443034 0.008881
v -0.321271 -0.443034 -0.013486
v -0.390881 0.352655 0.008881
v -0.321271 -0.443034 0.031907
v -0.249470 -0.035861 0.031907
v -0.587026 -0.759755 0.031907
v -0.390881 0.352655 0.031907
v -0.587026 -0.759755 0.008881
v -0.587026 -0.759755 -0.013486
v -1.412865 -0.444106 -0.013486
v -1.329979 -0.345326 -0.013486
v -1.329979 -0.345326 0.031907
v -1.412865 -0.444106 0.031907
v -1.334762 0.118220 -0.013486
v -1.439009 0.239559 -0.013486
v -1.439009 0.239559 0.031907
v -1.334762 0.118220 0.031907
v -1.503942 0.091846 0.031907
v -1.518494 -0.030414 -0.013486
v -1.503942 0.091846 -0.013486
v -1.518494 -0.030414 0.031907
v -1.515040 -0.130062 -0.013486
v -1.515040 -0.130062 0.031907
v -1.501349 -0.262480 -0.013486
v -1.501349 -0.262480 0.031907
v -1.412865 -0.444106 0.031907
v -1.356669 -0.521255 -0.013486
v -1.412865 -0.444106 -0.013486
v -1.356669 -0.521255 0.031907
v -1.377083 0.313360 0.031907
v -1.439009 0.239559 -0.013486
v -1.377083 0.313360 -0.013486
v -1.439009 0.239559 0.031907
v -1.183747 0.075669 -0.013486
v -1.317289 -0.045426 -0.013486
v -1.317289 -0.045426 0.031907
v -1.183747 0.075669 0.031907
v -0.707602 0.618417 -0.013486
v -0.390881 0.352655 0.008881
v -0.390881 0.352655 -0.013486
v -1.114775 0.690211 0.031907
v -1.503297 0.548800 0.008881
v -1.503297 0.548800 0.031907
v -1.114775 0.690211 0.008881
v -1.503297 0.548800 -0.013486
v -0.707602 0.618417 0.031907
v -1.114775 0.690211 -0.013486
v -0.707602 0.618417 0.008881
v -0.390881 0.352655 0.031907
v -1.329979 -0.345326 -0.013486
v -1.501349 -0.262480 -0.013486
v -1.501349 -0.262480 0.031907
v -1.329979 -0.345326 0.031907
v -1.259659 -0.595878 -0.013486
v -1.356669 -0.521255 -0.013486
v -1.356669 -0.521255 0.031907
v -1.259659 -0.595878 0.031907
v -1.165122 -0.642318 -0.013486
v -1.165122 -0.642318 0.031907
v -1.057421 -0.670771 -0.013486
v -1.057421 -0.670771 0.031907
v -0.950233 -0.681382 -0.013486
v -0.950233 -0.681382 0.031907
v -0.648393 -0.470092 -0.013486
v -0.831381 -0.575214 -0.013486
v -0.831381 -0.575214 0.031907
v -0.648393 -0.470092 0.031907
v -0.249470 -0.035861 0.031907
v -0.719134 0.338458 0.031907
v -0.960990 0.065024 0.031907
v -0.390881 0.352655 0.031907
v -0.707602 0.618417 0.031907
v -0.917596 0.410206 0.031907
v -1.059664 0.485263 0.031907
v -1.114775 0.690211 0.031907
v -1.095308 0.411653 0.031907
v -1.187121 0.450968 0.031907
v -1.134715 0.320886 0.031907
v -1.503297 0.548800 0.031907
v -1.280658 0.401752 0.031907
v -1.377083 0.313360 0.031907
v -1.439009 0.239559 0.031907
v -1.169418 0.188442 0.031907
v -1.769059 0.232079 0.031907
v -1.183747 0.075669 0.031907
v -1.503942 0.091846 0.031907
v -1.334762 0.118220 0.031907
v -1.518494 -0.030414 0.031907
v -1.840853 -0.175094 0.031907
v -1.515040 -0.130062 0.031907
v -1.501349 -0.262480 0.031907
v -1.699443 -0.563609 0.031907
v -1.412865 -0.444106 0.031907
v -1.329979 -0.345326 0.031907
v -1.356669 -0.521255 0.031907
v -1.382721 -0.829372 0.031907
v -1.259659 -0.595878 0.031907
v -1.165122 -0.642318 0.031907
v -0.975548 -0.901166 0.031907
v -1.057421 -0.670771 0.031907
v -0.950233 -0.681382 0.031907
v -0.587026 -0.759755 0.031907
v -0.831381 -0.575214 0.031907
v -1.057632 -0.536123 0.031907
v -0.648393 -0.470092 0.031907
v -0.321271 -0.443034 0.031907
v -0.934056 -0.242816 0.031907
v -1.120663 -0.404870 0.031907
v -1.160806 -0.294755 0.031907
v -1.181477 -0.202810 0.031907
v -1.195654 -0.076866 0.031907
v -1.317289 -0.045426 0.031907
v -1.183747 0.075669 0.031907
v -1.169418 0.188442 -0.013486
v -1.183747 0.075669 -0.013486
v -1.169418 0.188442 0.031907
v -1.134715 0.320886 -0.013486
v -1.134715 0.320886 0.031907
v -1.095308 0.411653 -0.013486
v -1.095308 0.411653 0.031907
v -1.059664 0.485263 -0.013486
v -1.059664 0.485263 0.031907
v -1.195654 -0.076866 -0.013486
v -1.181477 -0.202810 -0.013486
v -1.181477 -0.202810 0.031907
v -1.160806 -0.294755 0.031907
v -1.195654 -0.076866 0.031907
v -1.160806 -0.294755 -0.013486
v -1.120663 -0.404870 0.031907
v -1.120663 -0.404870 -0.013486
v -1.057632 -0.536123 0.031907
v -1.057632 -0.536123 -0.013486
v -0.950233 -0.681382 0.031907
v -0.950233 -0.681382 -0.013486
v -1.840853 -0.175094 0.031907
v -1.699443 -0.563609 0.008881
v -1.699443 -0.563609 0.031907
v -1.840853 -0.175094 0.008881
v -1.699443 -0.563609 -0.013486
v -1.769059 0.232079 0.031907
v -1.840853 -0.175094 -0.013486
v -1.769059 0.232079 0.008881
v -1.503297 0.548800 0.031907
v -1.769059 0.232079 -0.013486
v -1.503297 0.548800 0.008881
v -1.503297 0.548800 -0.013486
v -0.719134 0.338458 -0.013486
v -0.960990 0.065024 -0.013486
v -0.960990 0.065024 0.031907
v -0.719134 0.338458 0.031907
v -1.317289 -0.045426 -0.013486
v -1.195654 -0.076866 -0.013486
v -1.195654 -0.076866 0.031907
v -1.317289 -0.045426 0.031907
v -0.975548 -0.901166 0.031907
v -0.587026 -0.759755 0.008881
v -0.587026 -0.759755 0.031907
v -0.975548 -0.901166 0.008881
v -0.587026 -0.759755 -0.013486
v -1.382721 -0.829372 0.031907
v -0.975548 -0.901166 -0.013486
v -1.382721 -0.829372 0.008881
v -1.699443 -0.563609 0.031907
v -1.382721 -0.829372 -0.013486
v -1.699443 -0.563609 0.008881
v -1.699443 -0.563609 -0.013486
v -0.648393 -0.470092 0.031907
v -0.934056 -0.242816 -0.013486
v -0.648393 -0.470092 -0.013486
v -0.934056 -0.242816 0.031907
v -1.334762 0.118220 0.031907
v -1.503942 0.091846 -0.013486
v -1.334762 0.118220 -0.013486
v -1.503942 0.091846 0.031907
v -1.377083 0.313360 -0.013486
v -1.280658 0.401752 0.031907
v -1.377083 0.313360 0.031907
v -1.280658 0.401752 -0.013486
v -1.187121 0.450968 0.031907
v -1.187121 0.450968 -0.013486
v -1.059664 0.485263 0.031907
v -1.059664 0.485263 -0.013486
v -0.917596 0.410206 -0.013486
v -0.719134 0.338458 -0.013486
v -0.719134 0.338458 0.031907
v -0.917596 0.410206 0.031907
v -0.719134 0.338458 -0.013486
v -0.249470 -0.035861 -0.013486
v -0.960990 0.065024 -0.013486
v -0.390881 0.352655 -0.013486
v -0.707602 0.618417 -0.013486
v -0.917596 0.410206 -0.013486
v -1.059664 0.485263 -0.013486
v -1.114775 0.690211 -0.013486
v -1.095308 0.411653 -0.013486
v -1.187121 0.450968 -0.013486
v -1.134715 0.320886 -0.013486
v -1.503297 0.548800 -0.013486
v -1.280658 0.401752 -0.013486
v -1.377083 0.313360 -0.013486
v -1.439009 0.239559 -0.013486
v -1.169418 0.188442 -0.013486
v -1.769059 0.232079 -0.013486
v -1.183747 0.075669 -0.013486
v -1.503942 0.091846 -0.013486
v -1.334762 0.118220 -0.013486
v -1.518494 -0.030414 -0.013486
v -1.840853 -0.175094 -0.013486
v -1.515040 -0.130062 -0.013486
v -1.501349 -0.262480 -0.013486
v -1.699443 -0.563609 -0.013486
v -1.412865 -0.444106 -0.013486
v -1.329979 -0.345326 -0.013486
v -1.356669 -0.521255 -0.013486
v -1.382721 -0.829372 -0.013486
v -1.259659 -0.595878 -0.013486
v -1.165122 -0.642318 -0.013486
v -0.975548 -0.901166 -0.013486
v -1.057421 -0.670771 -0.013486
v -0.950233 -0.681382 -0.013486
v -0.587026 -0.759755 -0.013486
v -0.831381 -0.575214 -0.013486
v -1.057632 -0.536123 -0.013486
v -0.648393 -0.470092 -0.013486
v -0.321271 -0.443034 -0.013486
v -0.934056 -0.242816 -0.013486
v -1.120663 -0.404870 -0.013486
v -1.160806 -0.294755 -0.013486
v -1.181477 -0.202810 -0.013486
v -1.195654 -0.076866 -0.013486
v -1.317289 -0.045426 -0.013486
v -0.101408 0.036407 0.008881
v -0.282127 -0.173535 0.027302
v -0.282127 -0.173535 -0.008881
v -0.476575 0.663185 0.008881
v -0.455918 0.386950 0.027302
v -0.455918 0.386950 -0.008881
v -0.244260 0.415390 0.008881
v -0.321652 0.149410 0.027302
v -0.321652 0.149410 -0.008881
v -0.845565 0.830161 0.008881
v -0.712214 0.587359 0.027302
v -0.712214 0.587359 -0.008881
v -0.877341 -0.845634 -0.008881
v -0.877341 -0.845634 0.027302
v -0.906110 -1.047240 0.008881
v -0.401545 -0.509177 -0.008881
v -0.401545 -0.509177 0.027302
v -0.279331 -0.672080 0.008881
v -0.584553 -0.709006 -0.008881
v -0.584553 -0.709006 0.027302
v -0.527127 -0.904389 0.008881
v -1.148050 -0.857529 -0.008881
v -1.148050 -0.857529 0.027302
v -1.245600 -1.036293 0.008881
v -1.809038 -0.032604 0.027302
v -1.788151 -0.271308 0.027302
v -1.809038 -0.032604 -0.008881
v -1.788151 -0.271308 -0.008881
v -1.689627 0.303044 -0.008881
v -1.535599 0.486598 -0.008881
v -1.535599 0.486598 0.027302
v -1.689627 0.303044 0.027302
v -1.769520 -0.355549 0.027302
v -1.651523 -0.564103 0.027302
v -1.769520 -0.355549 -0.008881
v -1.651523 -0.564103 -0.008881
v -1.800045 -0.000605 -0.008881
v -1.736014 0.230303 -0.008881
v -1.736014 0.230303 0.027302
v -1.800045 -0.000605 0.027302
v -1.185056 0.841108 0.008881
v -0.975121 0.660383 0.027302
v -0.975121 0.660383 -0.008881
v -1.811841 0.465941 0.008881
v -1.535599 0.486598 0.027302
v -1.535599 0.486598 -0.008881
v -1.564045 0.698257 0.008881
v -1.298066 0.620864 0.027302
v -1.298066 0.620864 -0.008881
v -1.978810 0.096951 0.008881
v -1.736014 0.230303 0.027302
v -1.736014 0.230303 -0.008881
v -0.303015 0.065176 0.027302
v -0.101408 0.036407 0.008881
v -0.303015 0.065176 -0.008881
v -0.639472 0.540972 0.027302
v -0.476575 0.663185 0.008881
v -0.639472 0.540972 -0.008881
v -0.439642 0.357964 0.027302
v -0.244260 0.415390 0.008881
v -0.439642 0.357964 -0.008881
v -0.291120 -0.205534 -0.008881
v -0.291120 -0.205534 0.027302
v -0.112355 -0.303084 0.008881
v -1.116051 -0.866522 0.027302
v -0.877341 -0.845634 0.027302
v -1.116051 -0.866522 -0.008881
v -0.877341 -0.845634 -0.008881
v -1.635254 -0.593082 0.027302
v -1.451693 -0.747111 0.027302
v -1.635254 -0.593082 -0.008881
v -1.451693 -0.747111 -0.008881
v -0.793106 -0.827003 0.027302
v -0.584553 -0.709006 0.027302
v -0.793106 -0.827003 -0.008881
v -0.584553 -0.709006 -0.008881
v -1.378952 -0.793498 0.027302
v -1.148050 -0.857529 0.027302
v -1.378952 -0.793498 -0.008881
v -1.148050 -0.857529 -0.008881
v -0.282127 -0.173535 0.027302
v -0.101408 0.036407 0.008881
v -0.303015 0.065176 0.027302
v -1.788151 -0.271308 0.027302
v -1.809038 -0.032604 0.027302
v -1.989757 -0.242539 0.008881
v -0.975121 0.660383 0.027302
v -1.185056 0.841108 0.008881
v -1.213825 0.639502 0.027302
v -0.877341 -0.845634 0.027302
v -1.116051 -0.866522 0.027302
v -0.906110 -1.047240 0.008881
v -0.455918 0.386950 0.027302
v -0.476575 0.663185 0.008881
v -0.639472 0.540972 0.027302
v -1.451693 -0.747111 0.027302
v -1.635254 -0.593082 0.027302
v -1.614596 -0.869324 0.008881
v -1.535599 0.486598 0.027302
v -1.811841 0.465941 0.008881
v -1.689627 0.303044 0.027302
v -0.401545 -0.509177 0.027302
v -0.555567 -0.692737 0.027302
v -0.279331 -0.672080 0.008881
v -0.321652 0.149410 0.027302
v -0.244260 0.415390 0.008881
v -0.439642 0.357964 0.027302
v -1.651523 -0.564103 0.027302
v -1.769520 -0.355549 0.027302
v -1.846906 -0.621529 0.008881
v -1.298066 0.620864 0.027302
v -1.564045 0.698257 0.008881
v -1.506612 0.502874 0.027302
v -0.584553 -0.709006 0.027302
v -0.793106 -0.827003 0.027302
v -0.527127 -0.904389 0.008881
v -0.712214 0.587359 0.027302
v -0.845565 0.830161 0.008881
v -0.943115 0.651396 0.027302
v -1.148050 -0.857529 0.027302
v -1.378952 -0.793498 0.027302
v -1.245600 -1.036293 0.008881
v -1.736014 0.230303 0.027302
v -1.978810 0.096951 0.008881
v -1.800045 -0.000605 0.027302
v -0.291120 -0.205534 0.027302
v -0.355158 -0.436435 0.027302
v -0.112355 -0.303084 0.008881
v -1.989757 -0.242539 0.008881
v -1.809038 -0.032604 0.027302
v -1.809038 -0.032604 -0.008881
v -1.614596 -0.869324 0.008881
v -1.635254 -0.593082 0.027302
v -1.635254 -0.593082 -0.008881
v -1.846906 -0.621529 0.008881
v -1.769520 -0.355549 0.027302
v -1.769520 -0.355549 -0.008881
v -1.245600 -1.036293 0.008881
v -1.378952 -0.793498 0.027302
v -1.378952 -0.793498 -0.008881
v -1.213825 0.639502 0.027302
v -1.185056 0.841108 0.008881
v -1.213825 0.639502 -0.008881
v -1.689627 0.303044 0.027302
v -1.811841 0.465941 0.008881
v -1.689627 0.303044 -0.008881
v -1.506612 0.502874 0.027302
v -1.564045 0.698257 0.008881
v -1.506612 0.502874 -0.008881
v -0.943115 0.651396 0.027302
v -0.845565 0.830161 0.008881
v -0.943115 0.651396 -0.008881
v -0.303015 0.065176 -0.008881
v -0.282127 -0.173535 -0.008881
v -0.282127 -0.173535 0.027302
v -0.303015 0.065176 0.027302
v -0.555567 -0.692737 0.027302
v -0.401545 -0.509177 0.027302
v -0.555567 -0.692737 -0.008881
v -0.401545 -0.509177 -0.008881
v -0.439642 0.357964 -0.008881
v -0.321652 0.149410 -0.008881
v -0.321652 0.149410 0.027302
v -0.439642 0.357964 0.027302
v -0.355158 -0.436435 0.027302
v -0.291120 -0.205534 0.027302
v -0.355158 -0.436435 -0.008881
v -0.291120 -0.205534 -0.008881
v -0.906110 -1.047240 0.008881
v -1.116051 -0.866522 0.027302
v -1.116051 -0.866522 -0.008881
v -0.279331 -0.672080 0.008881
v -0.555567 -0.692737 0.027302
v -0.555567 -0.692737 -0.008881
v -0.527127 -0.904389 0.008881
v -0.793106 -0.827003 0.027302
v -0.793106 -0.827003 -0.008881
v -0.112355 -0.303084 0.008881
v -0.355158 -0.436435 0.027302
v -0.355158 -0.436435 -0.008881
v -1.788151 -0.271308 -0.008881
v -1.788151 -0.271308 0.027302
v -1.989757 -0.242539 0.008881
v -1.451693 -0.747111 -0.008881
v -1.451693 -0.747111 0.027302
v -1.614596 -0.869324 0.008881
v -1.651523 -0.564103 -0.008881
v -1.651523 -0.564103 0.027302
v -1.846906 -0.621529 0.008881
v -1.800045 -0.000605 0.027302
v -1.978810 0.096951 0.008881
v -1.800045 -0.000605 -0.008881
v -1.213825 0.639502 -0.008881
v -0.975121 0.660383 -0.008881
v -0.975121 0.660383 0.027302
v -1.213825 0.639502 0.027302
v -0.639472 0.540972 -0.008881
v -0.455918 0.386950 -0.008881
v -0.455918 0.386950 0.027302
v -0.639472 0.540972 0.027302
v -1.506612 0.502874 -0.008881
v -1.298066 0.620864 -0.008881
v -1.298066 0.620864 0.027302
v -1.506612 0.502874 0.027302
v -0.943115 0.651396 -0.008881
v -0.712214 0.587359 -0.008881
v -0.712214 0.587359 0.027302
v -0.943115 0.651396 0.027302
v -0.303015 0.065176 -0.008881
v -0.101408 0.036407 0.008881
v -0.282127 -0.173535 -0.008881
v -1.809038 -0.032604 -0.008881
v -1.788151 -0.271308 -0.008881
v -1.989757 -0.242539 0.008881
v -1.213825 0.639502 -0.008881
v -1.185056 0.841108 0.008881
v -0.975121 0.660383 -0.008881
v -1.116051 -0.866522 -0.008881
v -0.877341 -0.845634 -0.008881
v -0.906110 -1.047240 0.008881
v -0.639472 0.540972 -0.008881
v -0.476575 0.663185 0.008881
v -0.455918 0.386950 -0.008881
v -1.635254 -0.593082 -0.008881
v -1.451693 -0.747111 -0.008881
v -1.614596 -0.869324 0.008881
v -1.689627 0.303044 -0.008881
v -1.811841 0.465941 0.008881
v -1.535599 0.486598 -0.008881
v -0.555567 -0.692737 -0.008881
v -0.401545 -0.509177 -0.008881
v -0.279331 -0.672080 0.008881
v -0.439642 0.357964 -0.008881
v -0.244260 0.415390 0.008881
v -0.321652 0.149410 -0.008881
v -1.769520 -0.355549 -0.008881
v -1.651523 -0.564103 -0.008881
v -1.846906 -0.621529 0.008881
v -1.506612 0.502874 -0.008881
v -1.564045 0.698257 0.008881
v -1.298066 0.620864 -0.008881
v -0.793106 -0.827003 -0.008881
v -0.584553 -0.709006 -0.008881
v -0.527127 -0.904389 0.008881
v -0.943115 0.651396 -0.008881
v -0.845565 0.830161 0.008881
v -0.712214 0.587359 -0.008881
v -1.378952 -0.793498 -0.008881
v -1.148050 -0.857529 -0.008881
v -1.245600 -1.036293 0.008881
v -1.800045 -0.000605 -0.008881
v -1.978810 0.096951 0.008881
v -1.736014 0.230303 -0.008881
v -0.355158 -0.436435 -0.008881
v -0.291120 -0.205534 -0.008881
v -0.112355 -0.303084 0.008881
v -0.152499 0.233559 0.008881
v -0.284561 -0.009941 0.027302
v -0.284561 -0.009941 -0.008881
v -0.652110 0.766472 0.008881
v -0.573310 0.500907 0.027302
v -0.573310 0.500907 -0.008881
v -0.372513 0.573609 0.008881
v -0.391703 0.297261 0.027302
v -0.391703 0.297261 -0.008881
v -1.048132 0.851351 0.008881
v -0.866301 0.642370 0.027302
v -0.866301 0.642370 -0.008881
v -0.723615 -0.793030 -0.008881
v -0.723615 -0.793030 0.027302
v -0.708951 -0.996150 0.008881
v -1.305796 -0.818615 -0.008881
v -1.305796 -0.818615 0.027302
v -1.439055 -0.972611 0.008881
v -0.466484 -0.597391 -0.008881
v -0.466484 -0.597391 0.027302
v -0.368907 -0.776143 0.008881
v -0.985634 -0.862094 -0.008881
v -0.985634 -0.862094 0.027302
v -1.043033 -1.057484 0.008881
v -1.806604 -0.196198 0.027302
v -1.735547 -0.425034 0.027302
v -1.806604 -0.196198 -0.008881
v -1.735547 -0.425034 -0.008881
v -1.761132 0.157140 -0.008881
v -1.649556 0.369200 -0.008881
v -1.649556 0.369200 0.027302
v -1.761132 0.157140 0.027302
v -1.699462 -0.503400 0.027302
v -1.539908 -0.682172 0.027302
v -1.699462 -0.503400 -0.008881
v -1.539908 -0.682172 -0.008881
v -1.804611 -0.163015 -0.008881
v -1.791026 0.076215 -0.008881
v -1.791026 0.076215 0.027302
v -1.804611 -0.163015 0.027302
v -1.382215 0.790017 0.008881
v -1.138715 0.657955 0.027302
v -1.138715 0.657955 -0.008881
v -1.915121 0.290406 0.008881
v -1.649556 0.369200 0.027302
v -1.649556 0.369200 -0.008881
v -1.722258 0.570004 0.008881
v -1.445917 0.550814 0.027302
v -1.445917 0.550814 -0.008881
v -2.000000 -0.105615 0.008881
v -1.791026 0.076215 0.027302
v -1.791026 0.076215 -0.008881
v -0.355618 0.218902 0.027302
v -0.152499 0.233559 0.008881
v -0.355618 0.218902 -0.008881
v -0.330040 -0.363279 -0.008881
v -0.330040 -0.363279 0.027302
v -0.176044 -0.496539 0.008881
v -0.551264 0.476033 0.027302
v -0.372513 0.573609 0.008881
v -0.551264 0.476033 -0.008881
v -0.286561 -0.043124 -0.008881
v -0.286561 -0.043124 0.027302
v -0.091165 -0.100524 0.008881
v -0.952457 -0.864088 0.027302
v -0.723615 -0.793030 0.027302
v -0.952457 -0.864088 -0.008881
v -0.723615 -0.793030 -0.008881
v -1.517856 -0.707046 0.027302
v -1.305796 -0.818615 0.027302
v -1.517856 -0.707046 -0.008881
v -1.305796 -0.818615 -0.008881
v -0.645248 -0.756953 0.027302
v -0.466484 -0.597391 0.027302
v -0.645248 -0.756953 -0.008881
v -0.466484 -0.597391 -0.008881
v -1.224870 -0.848509 0.027302
v -0.985634 -0.862094 0.027302
v -1.224870 -0.848509 -0.008881
v -0.985634 -0.862094 -0.008881
v -0.284561 -0.009941 0.027302
v -0.152499 0.233559 0.008881
v -0.355618 0.218902 0.027302
v -1.735547 -0.425034 0.027302
v -1.806604 -0.196198 0.027302
v -1.938666 -0.439698 0.008881
v -1.138715 0.657955 0.027302
v -1.382215 0.790017 0.008881
v -1.367551 0.586898 0.027302
v -0.723615 -0.793030 0.027302
v -0.952457 -0.864088 0.027302
v -0.708951 -0.996150 0.008881
v -0.573310 0.500907 0.027302
v -0.652110 0.766472 0.008881
v -0.785369 0.612476 0.027302
v -1.305796 -0.818615 0.027302
v -1.517856 -0.707046 0.027302
v -1.439055 -0.972611 0.008881
v -1.649556 0.369200 0.027302
v -1.915121 0.290406 0.008881
v -1.761132 0.157140 0.027302
v -0.330040 -0.363279 0.027302
v -0.441609 -0.575339 0.027302
v -0.176044 -0.496539 0.008881
v -0.391703 0.297261 0.027302
v -0.372513 0.573609 0.008881
v -0.551264 0.476033 0.027302
v -1.539908 -0.682172 0.027302
v -1.699462 -0.503400 0.027302
v -1.718659 -0.779748 0.008881
v -1.445917 0.550814 0.027302
v -1.722258 0.570004 0.008881
v -1.624688 0.391252 0.027302
v -0.466484 -0.597391 0.027302
v -0.645248 -0.756953 0.027302
v -0.368907 -0.776143 0.008881
v -0.866301 0.642370 0.027302
v -1.048132 0.851351 0.008881
v -1.105532 0.655955 0.027302
v -0.985634 -0.862094 0.027302
v -1.224870 -0.848509 0.027302
v -1.043033 -1.057484 0.008881
v -1.791026 0.076215 0.027302
v -2.000000 -0.105615 0.008881
v -1.804611 -0.163015 0.027302
v -0.286561 -0.043124 0.027302
v -0.300140 -0.282354 0.027302
v -0.091165 -0.100524 0.008881
v -1.938666 -0.439698 0.008881
v -1.806604 -0.196198 0.027302
v -1.806604 -0.196198 -0.008881
v -1.439055 -0.972611 0.008881
v -1.517856 -0.707046 0.027302
v -1.517856 -0.707046 -0.008881
v -1.718659 -0.779748 0.008881
v -1.699462 -0.503400 0.027302
v -1.699462 -0.503400 -0.008881
v -1.043033 -1.057484 0.008881
v -1.224870 -0.848509 0.027302
v -1.224870 -0.848509 -0.008881
v -1.367551 0.586898 0.027302
v -1.382215 0.790017 0.008881
v -1.367551 0.586898 -0.008881
v -0.785369 0.612476 0.027302
v -0.652110 0.766472 0.008881
v -0.785369 0.612476 -0.008881
v -1.624688 0.391252 0.027302
v -1.722258 0.570004 0.008881
v -1.624688 0.391252 -0.008881
v -1.105532 0.655955 0.027302
v -1.048132 0.851351 0.008881
v -1.105532 0.655955 -0.008881
v -0.355618 0.218902 -0.008881
v -0.284561 -0.009941 -0.008881
v -0.284561 -0.009941 0.027302
v -0.355618 0.218902 0.027302
v -0.441609 -0.575339 0.027302
v -0.330040 -0.363279 0.027302
v -0.441609 -0.575339 -0.008881
v -0.330040 -0.363279 -0.008881
v -0.551264 0.476033 -0.008881
v -0.391703 0.297261 -0.008881
v -0.391703 0.297261 0.027302
v -0.551264 0.476033 0.027302
v -0.300140 -0.282354 0.027302
v -0.286561 -0.043124 0.027302
v -0.300140 -0.282354 -0.008881
v -0.286561 -0.043124 -0.008881
v -0.708951 -0.996150 0.008881
v -0.952457 -0.864088 0.027302
v -0.952457 -0.864088 -0.008881
v -0.176044 -0.496539 0.008881
v -0.441609 -0.575339 0.027302
v -0.441609 -0.575339 -0.008881
v -0.368907 -0.776143 0.008881
v -0.645248 -0.756953 0.027302
v -0.645248 -0.756953 -0.008881
v -0.091165 -0.100524 0.008881
v -0.300140 -0.282354 0.027302
v -0.300140 -0.282354 -0.008881
v -1.735547 -0.425034 -0.008881
v -1.735547 -0.425034 0.027302
v -1.938666 -0.439698 0.008881
v -1.761132 0.157140 0.027302
v -1.915121 0.290406 0.008881
v -1.761132 0.157140 -0.008881
v -1.539908 -0.682172 -0.008881
v -1.539908 -0.682172 0.027302
v -1.718659 -0.779748 0.008881
v -1.804611 -0.163015 0.027302
v -2.000000 -0.105615 0.008881
v -1.804611 -0.163015 -0.008881
v -1.367551 0.586898 -0.008881
v -1.138715 0.657955 -0.008881
v -1.138715 0.657955 0.027302
v -1.367551 0.586898 0.027302
v -0.785369 0.612476 -0.008881
v -0.573310 0.500907 -0.008881
v -0.573310 0.500907 0.027302
v -0.785369 0.612476 0.027302
v -1.624688 0.391252 -0.008881
v -1.445917 0.550814 -0.008881
v -1.445917 0.550814 0.027302
v -1.624688 0.391252 0.027302
v -1.105532 0.655955 -0.008881
v -0.866301 0.642370 -0.008881
v -0.866301 0.642370 0.027302
v -1.105532 0.655955 0.027302
v -0.355618 0.218902 -0.008881
v -0.152499 0.233559 0.008881
v -0.284561 -0.009941 -0.008881
v -1.806604 -0.196198 -0.008881
v -1.735547 -0.425034 -0.008881
v -1.938666 -0.439698 0.008881
v -1.367551 0.586898 -0.008881
v -1.382215 0.790017 0.008881
v -1.138715 0.657955 -0.008881
v -0.952457 -0.864088 -0.008881
v -0.723615 -0.793030 -0.008881
v -0.708951 -0.996150 0.008881
v -0.785369 0.612476 -0.008881
v -0.652110 0.766472 0.008881
v -0.573310 0.500907 -0.008881
v -1.517856 -0.707046 -0.008881
v -1.305796 -0.818615 -0.008881
v -1.439055 -0.972611 0.008881
v -1.761132 0.157140 -0.008881
v -1.915121 0.290406 0.008881
v -1.649556 0.369200 -0.008881
v -0.441609 -0.575339 -0.008881
v -0.330040 -0.363279 -0.008881
v -0.176044 -0.496539 0.008881
v -0.551264 0.476033 -0.008881
v -0.372513 0.573609 0.008881
v -0.391703 0.297261 -0.008881
v -1.699462 -0.503400 -0.008881
v -1.539908 -0.682172 -0.008881
v -1.718659 -0.779748 0.008881
v -1.624688 0.391252 -0.008881
v -1.722258 0.570004 0.008881
v -1.445917 0.550814 -0.008881
v -0.645248 -0.756953 -0.008881
v -0.466484 -0.597391 -0.008881
v -0.368907 -0.776143 0.008881
v -1.105532 0.655955 -0.008881
v -1.048132 0.851351 0.008881
v -0.866301 0.642370 -0.008881
v -1.224870 -0.848509 -0.008881
v -0.985634 -0.862094 -0.008881
v -1.043033 -1.057484 0.008881
v -1.804611 -0.163015 -0.008881
v -2.000000 -0.105615 0.008881
v -1.791026 0.076215 -0.008881
v -0.300140 -0.282354 -0.008881
v -0.286561 -0.043124 -0.008881
v -0.091165 -0.100524 0.008881
vt 8.00432 -52.9676 
vt 8.00432 -52.902 
vt 7.99568 -52.902 
vt 7.99568 -52.9676 
vt 8.00432 -53.0893 
vt 8.00432 -53.0261 
vt 7.99568 -53.0261 
vt 7.99568 -53.0893 
vt 8.00432 -52.913 
vt 8 -52.9868 
vt 8.00432 -52.9868 
vt 8 -53.0641 
vt 8.00432 -53.0641 
vt 8 -52.913 
vt 7.99568 -53.0641 
vt 7.99568 -52.9868 
vt 7.99568 -53.1243 
vt 7.99568 -52.913 
vt 8 -53.1243 
vt 8.00432 -53.1243 
vt 8.00432 -53.0643 
vt 8.00432 -53.0456 
vt 7.99568 -53.0456 
vt 7.99568 -53.0643 
vt 8.00432 -52.9575 
vt 8.00432 -52.9344 
vt 7.99568 -52.9344 
vt 7.99568 -52.9575 
vt 7.99568 -52.9625 
vt 8.00432 -52.9857 
vt 8.00432 -52.9625 
vt 7.99568 -52.9857 
vt 8.00432 -53.0047 
vt 7.99568 -53.0047 
vt 8.00432 -53.0298 
vt 7.99568 -53.0298 
vt 7.99568 -53.0643 
vt 8.00432 -53.079 
vt 8.00432 -53.0643 
vt 7.99568 -53.079 
vt 7.99568 -52.9204 
vt 8.00432 -52.9344 
vt 8.00432 -52.9204 
vt 7.99568 -52.9344 
vt 8.02633 -53.0043 
vt 8.05171 -53.0043 
vt 8.05171 -52.9957 
vt 8.02633 -52.9957 
vt 7.93586 -53.0043 
vt 7.87568 -53 
vt 7.87568 -53.0043 
vt 8.01323 -52.9957 
vt 8.08705 -53 
vt 8.08705 -52.9957 
vt 8.01323 -53 
vt 8.08705 -53.0043 
vt 7.93586 -52.9957 
vt 8.01323 -53.0043 
vt 7.93586 -53 
vt 7.87568 -52.9957 
vt 8.05412 -53.0043 
vt 8.08668 -53.0043 
vt 8.08668 -52.9957 
vt 8.05412 -52.9957 
vt 8.04076 -53.0043 
vt 8.05919 -53.0043 
vt 8.05919 -52.9957 
vt 8.04076 -52.9957 
vt 8.02279 -53.0043 
vt 8.02279 -52.9957 
vt 8.00233 -53.0043 
vt 8.00233 -52.9957 
vt 7.98196 -53.0043 
vt 7.98196 -52.9957 
vt 7.92461 -53.0043 
vt 7.95938 -53.0043 
vt 7.95938 -52.9957 
vt 7.92461 -52.9957 
vt 8.15119 -52.9868 
vt 8.06195 -52.9156 
vt 8.01599 -52.9676 
vt 8.12432 -52.913 
vt 8.06414 -52.8625 
vt 8.02424 -52.902 
vt 7.99724 -52.8878 
vt 7.98677 -52.8488 
vt 7.99047 -52.9017 
vt 7.97303 -52.8943 
vt 7.98299 -52.919 
vt 7.91295 -52.8757 
vt 7.95525 -52.9036 
vt 7.93693 -52.9204 
vt 7.92517 -52.9344 
vt 7.97639 -52.9442 
vt 7.86246 -52.9359 
vt 7.97367 -52.9656 
vt 7.91283 -52.9625 
vt 7.94497 -52.9575 
vt 7.91006 -52.9857 
vt 7.84881 -53.0132 
vt 7.91072 -53.0047 
vt 7.91332 -53.0298 
vt 7.87568 -53.087 
vt 7.93013 -53.0643 
vt 7.94588 -53.0456 
vt 7.94081 -53.079 
vt 7.93586 -53.1375 
vt 7.95924 -53.0932 
vt 7.97721 -53.102 
vt 8.01323 -53.1512 
vt 7.99767 -53.1074 
vt 8.01804 -53.1094 
vt 8.08705 -53.1243 
vt 8.04062 -53.0893 
vt 7.99763 -53.0818 
vt 8.07539 -53.0693 
vt 8.13754 -53.0641 
vt 8.02111 -53.0261 
vt 7.98565 -53.0569 
vt 7.97803 -53.036 
vt 7.9741 -53.0185 
vt 7.97141 -52.9946 
vt 7.94829 -52.9886 
vt 8.00432 -52.9656 
vt 7.99568 -52.9442 
vt 7.99568 -52.9656 
vt 8.00432 -52.9442 
vt 7.99568 -52.919 
vt 8.00432 -52.919 
vt 7.99568 -52.9017 
vt 8.00432 -52.9017 
vt 7.99568 -52.8878 
vt 8.00432 -52.8878 
vt 7.99568 -52.9946 
vt 7.99568 -53.0185 
vt 8.00432 -53.0185 
vt 8.00432 -53.036 
vt 8.00432 -52.9946 
vt 7.99568 -53.036 
vt 8.00432 -53.0569 
vt 7.99568 -53.0569 
vt 8.00432 -53.0818 
vt 7.99568 -53.0818 
vt 8.00432 -53.1094 
vt 7.99568 -53.1094 
vt 8.00432 -53.0132 
vt 8 -53.087 
vt 8.00432 -53.087 
vt 8 -53.0132 
vt 7.99568 -53.087 
vt 8.00432 -52.9359 
vt 7.99568 -53.0132 
vt 8 -52.9359 
vt 8.00432 -52.8757 
vt 7.99568 -52.9359 
vt 8 -52.8757 
vt 7.99568 -52.8757 
vt 7.99568 -52.9156 
vt 7.99568 -52.9676 
vt 8.00432 -52.9676 
vt 8.00432 -52.9156 
vt 7.94829 -53.0043 
vt 7.97141 -53.0043 
vt 7.97141 -52.9957 
vt 7.94829 -52.9957 
vt 8.01323 -52.9957 
vt 8.08705 -53 
vt 8.08705 -52.9957 
vt 8.01323 -53 
vt 8.08705 -53.0043 
vt 7.93586 -52.9957 
vt 8.01323 -53.0043 
vt 7.93586 -53 
vt 7.87568 -52.9957 
vt 7.93586 -53.0043 
vt 7.87568 -53 
vt 7.87568 -53.0043 
vt 8.07539 -52.9957 
vt 8.02111 -53.0043 
vt 8.07539 -53.0043 
vt 8.02111 -52.9957 
vt 7.94497 -52.9957 
vt 7.91283 -53.0043 
vt 7.94497 -53.0043 
vt 7.91283 -52.9957 
vt 7.93693 -53.0043 
vt 7.95525 -52.9957 
vt 7.93693 -52.9957 
vt 7.95525 -53.0043 
vt 7.97303 -52.9957 
vt 7.97303 -53.0043 
vt 7.99724 -52.9957 
vt 7.99724 -53.0043 
vt 8.02424 -53.0043 
vt 8.06195 -53.0043 
vt 8.06195 -52.9957 
vt 8.02424 -52.9957 
vt 7.93805 -52.9156 
vt 7.84881 -52.9868 
vt 7.98401 -52.9676 
vt 7.87568 -52.913 
vt 7.93586 -52.8625 
vt 7.97576 -52.902 
vt 8.00276 -52.8878 
vt 8.01323 -52.8488 
vt 8.00953 -52.9017 
vt 8.02697 -52.8943 
vt 8.01702 -52.919 
vt 8.08705 -52.8757 
vt 8.04475 -52.9036 
vt 8.06307 -52.9204 
vt 8.07483 -52.9344 
vt 8.02361 -52.9442 
vt 8.13754 -52.9359 
vt 8.02633 -52.9656 
vt 8.08717 -52.9625 
vt 8.05503 -52.9575 
vt 8.08994 -52.9857 
vt 8.15119 -53.0132 
vt 8.08928 -53.0047 
vt 8.08668 -53.0298 
vt 8.12432 -53.087 
vt 8.06987 -53.0643 
vt 8.05412 -53.0456 
vt 8.05919 -53.079 
vt 8.06414 -53.1375 
vt 8.04076 -53.0932 
vt 8.02279 -53.102 
vt 7.98677 -53.1512 
vt 8.00233 -53.1074 
vt 7.98196 -53.1094 
vt 7.91295 -53.1243 
vt 7.95938 -53.0893 
vt 8.00237 -53.0818 
vt 7.92461 -53.0693 
vt 7.86246 -53.0641 
vt 7.97889 -53.0261 
vt 8.01435 -53.0569 
vt 8.02197 -53.036 
vt 8.0259 -53.0185 
vt 8.02859 -52.9946 
vt 8.05171 -52.9886 
vt 30 -6.9735 
vt 29.9966 -7.01339 
vt 30.0034 -7.01339 
vt 30 -6.85441 
vt 29.9966 -6.90689 
vt 30.0034 -6.90689 
vt 30 -6.90149 
vt 29.9966 -6.95203 
vt 30.0034 -6.95203 
vt 30 -6.82268 
vt 29.9966 -6.86881 
vt 30.0034 -6.86881 
vt 30.0034 -7.14109 
vt 29.9966 -7.14109 
vt 30 -7.1794 
vt 30.0034 -7.07716 
vt 29.9966 -7.07716 
vt 30 -7.10812 
vt 30.0034 -7.11513 
vt 29.9966 -7.11513 
vt 30 -7.15226 
vt 30.0034 -7.14335 
vt 29.9966 -7.14335 
vt 30 -7.17732 
vt 29.9966 -6.98661 
vt 29.9966 -7.03197 
vt 30.0034 -6.98661 
vt 30.0034 -7.03197 
vt 30.0034 -6.92284 
vt 30.0034 -6.88796 
vt 29.9966 -6.88796 
vt 29.9966 -6.92284 
vt 29.9966 -7.04797 
vt 29.9966 -7.0876 
vt 30.0034 -7.04797 
vt 30.0034 -7.0876 
vt 30.0034 -6.98053 
vt 30.0034 -6.93666 
vt 29.9966 -6.93666 
vt 29.9966 -6.98053 
vt 30.0265 -7 
vt 29.9866 -6.99658 
vt 29.9866 -7.00342 
vt 30.1456 -7 
vt 30.0931 -6.99658 
vt 30.0931 -7.00342 
vt 30.0985 -7 
vt 30.048 -6.99658 
vt 30.048 -7.00342 
vt 30.1773 -7 
vt 30.1312 -6.99658 
vt 30.1312 -7.00342 
vt 29.8589 -6.99658 
vt 29.8206 -7 
vt 29.8589 -7.00342 
vt 29.9228 -6.99658 
vt 29.8919 -7 
vt 29.9228 -7.00342 
vt 29.8849 -6.99658 
vt 29.8477 -7 
vt 29.8849 -7.00342 
vt 29.8566 -7.00342 
vt 29.8566 -6.99658 
vt 29.8227 -7 
vt 30.0134 -6.99658 
vt 29.968 -6.99658 
vt 30.0134 -7.00342 
vt 29.968 -7.00342 
vt 30.112 -6.99658 
vt 30.0772 -6.99658 
vt 30.112 -7.00342 
vt 30.0772 -7.00342 
vt 29.952 -6.99658 
vt 29.9124 -6.99658 
vt 29.952 -7.00342 
vt 29.9124 -7.00342 
vt 30.0633 -6.99658 
vt 30.0195 -6.99658 
vt 30.0633 -7.00342 
vt 30.0195 -7.00342 
vt 30.1451 -7.01339 
vt 30.1794 -6.9735 
vt 30.1411 -6.96803 
vt 29.8589 -7.03197 
vt 29.8549 -6.98661 
vt 29.8206 -7.0265 
vt 30.0134 -6.85494 
vt 29.9735 -6.8206 
vt 29.968 -6.85891 
vt 30.032 -7.14109 
vt 29.9866 -7.14506 
vt 30.0265 -7.1794 
vt 30.112 -6.90689 
vt 30.1081 -6.85441 
vt 30.0772 -6.87763 
vt 29.9228 -7.12237 
vt 29.888 -7.09311 
vt 29.8919 -7.14559 
vt 29.9069 -6.88796 
vt 29.8544 -6.89188 
vt 29.8776 -6.92284 
vt 30.1224 -7.07716 
vt 30.0931 -7.11204 
vt 30.1456 -7.10812 
vt 30.1376 -6.95203 
vt 30.1523 -6.90149 
vt 30.1151 -6.9124 
vt 29.8849 -7.0876 
vt 29.8624 -7.04797 
vt 29.8477 -7.09851 
vt 29.952 -6.86245 
vt 29.9015 -6.84774 
vt 29.9124 -6.88487 
vt 30.0876 -7.11513 
vt 30.048 -7.13755 
vt 30.0985 -7.15226 
vt 30.0633 -6.86881 
vt 30.038 -6.82268 
vt 30.0195 -6.85665 
vt 29.9805 -7.14335 
vt 29.9367 -7.13118 
vt 29.962 -7.17732 
vt 29.8688 -6.93666 
vt 29.8227 -6.962 
vt 29.8566 -6.98053 
vt 30.1434 -7.01947 
vt 30.1312 -7.06334 
vt 30.1773 -7.038 
vt 30 -7.0265 
vt 30.0034 -6.98661 
vt 29.9966 -6.98661 
vt 30 -7.14559 
vt 30.0034 -7.09311 
vt 29.9966 -7.09311 
vt 30 -7.09851 
vt 30.0034 -7.04797 
vt 29.9966 -7.04797 
vt 30 -7.17732 
vt 30.0034 -7.13118 
vt 29.9966 -7.13118 
vt 30.0034 -6.85891 
vt 30 -6.8206 
vt 29.9966 -6.85891 
vt 30.0034 -6.92284 
vt 30 -6.89188 
vt 29.9966 -6.92284 
vt 30.0034 -6.88487 
vt 30 -6.84774 
vt 29.9966 -6.88487 
vt 30.0034 -6.85665 
vt 30 -6.82268 
vt 29.9966 -6.85665 
vt 29.9966 -6.96803 
vt 29.9966 -7.01339 
vt 30.0034 -7.01339 
vt 30.0034 -6.96803 
vt 30.0034 -7.11204 
vt 30.0034 -7.07716 
vt 29.9966 -7.11204 
vt 29.9966 -7.07716 
vt 29.9966 -6.9124 
vt 29.9966 -6.95203 
vt 30.0034 -6.95203 
vt 30.0034 -6.9124 
vt 30.0034 -7.06334 
vt 30.0034 -7.01947 
vt 29.9966 -7.06334 
vt 29.9966 -7.01947 
vt 30.0265 -7 
vt 29.9866 -6.99658 
vt 29.9866 -7.00342 
vt 30.1456 -7 
vt 30.0931 -6.99658 
vt 30.0931 -7.00342 
vt 30.0985 -7 
vt 30.048 -6.99658 
vt 30.048 -7.00342 
vt 30.1773 -7 
vt 30.1312 -6.99658 
vt 30.1312 -7.00342 
vt 29.8589 -7.00342 
vt 29.8589 -6.99658 
vt 29.8206 -7 
vt 29.9228 -7.00342 
vt 29.9228 -6.99658 
vt 29.8919 -7 
vt 29.8849 -7.00342 
vt 29.8849 -6.99658 
vt 29.8477 -7 
vt 29.8566 -6.99658 
vt 29.8227 -7 
vt 29.8566 -7.00342 
vt 29.968 -7.00342 
vt 30.0134 -7.00342 
vt 30.0134 -6.99658 
vt 29.968 -6.99658 
vt 30.0772 -7.00342 
vt 30.112 -7.00342 
vt 30.112 -6.99658 
vt 30.0772 -6.99658 
vt 29.9124 -7.00342 
vt 29.952 -7.00342 
vt 29.952 -6.99658 
vt 29.9124 -6.99658 
vt 30.0195 -7.00342 
vt 30.0633 -7.00342 
vt 30.0633 -6.99658 
vt 30.0195 -6.99658 
vt 29.8589 -6.96803 
vt 29.8206 -6.9735 
vt 29.8549 -7.01339 
vt 30.1451 -6.98661 
vt 30.1411 -7.03197 
vt 30.1794 -7.0265 
vt 30.032 -6.85891 
vt 30.0265 -6.8206 
vt 29.9866 -6.85494 
vt 30.0134 -7.14506 
vt 29.968 -7.14109 
vt 29.9735 -7.1794 
vt 29.9228 -6.87763 
vt 29.8919 -6.85441 
vt 29.888 -6.90689 
vt 30.112 -7.09311 
vt 30.0772 -7.12237 
vt 30.1081 -7.14559 
vt 30.1224 -6.92284 
vt 30.1456 -6.89188 
vt 30.0931 -6.88796 
vt 29.9069 -7.11204 
vt 29.8776 -7.07716 
vt 29.8544 -7.10812 
vt 29.8849 -6.9124 
vt 29.8477 -6.90149 
vt 29.8624 -6.95203 
vt 30.1376 -7.04797 
vt 30.1151 -7.0876 
vt 30.1523 -7.09851 
vt 30.0876 -6.88487 
vt 30.0985 -6.84774 
vt 30.048 -6.86245 
vt 29.952 -7.13755 
vt 29.9124 -7.11513 
vt 29.9015 -7.15226 
vt 29.9805 -6.85665 
vt 29.962 -6.82268 
vt 29.9367 -6.86881 
vt 30.0633 -7.13118 
vt 30.0195 -7.14335 
vt 30.038 -7.17732 
vt 30.1434 -6.98053 
vt 30.1773 -6.962 
vt 30.1312 -6.93666 
vt 29.8688 -7.06334 
vt 29.8566 -7.01947 
vt 29.8227 -7.038 
vt 58 -34.936 
vt 57.9966 -34.9823 
vt 58.0034 -34.9823 
vt 58 -34.8348 
vt 57.9966 -34.8852 
vt 58.0034 -34.8852 
vt 58 -34.8714 
vt 57.9966 -34.9239 
vt 58.0034 -34.9239 
vt 58 -34.8187 
vt 57.9966 -34.8584 
vt 58.0034 -34.8584 
vt 58.0034 -35.1311 
vt 57.9966 -35.1311 
vt 58 -35.1697 
vt 58.0034 -35.136 
vt 57.9966 -35.136 
vt 58 -35.1652 
vt 58.0034 -35.0939 
vt 57.9966 -35.0939 
vt 58 -35.1279 
vt 58.0034 -35.1442 
vt 57.9966 -35.1442 
vt 58 -35.1813 
vt 57.9966 -35.0177 
vt 57.9966 -35.0612 
vt 58.0034 -35.0177 
vt 58.0034 -35.0612 
vt 58.0034 -34.9506 
vt 58.0034 -34.9103 
vt 57.9966 -34.9103 
vt 57.9966 -34.9506 
vt 57.9966 -35.0761 
vt 57.9966 -35.11 
vt 58.0034 -35.0761 
vt 58.0034 -35.11 
vt 58.0034 -35.0114 
vt 58.0034 -34.9659 
vt 57.9966 -34.9659 
vt 57.9966 -35.0114 
vt 58.064 -35 
vt 58.0177 -34.9966 
vt 58.0177 -35.0034 
vt 58.1652 -35 
vt 58.1148 -34.9966 
vt 58.1148 -35.0034 
vt 58.1286 -35 
vt 58.0761 -34.9966 
vt 58.0761 -35.0034 
vt 58.1813 -35 
vt 58.1416 -34.9966 
vt 58.1416 -35.0034 
vt 57.8689 -34.9966 
vt 57.8303 -35 
vt 57.8689 -35.0034 
vt 57.864 -35.0034 
vt 57.864 -34.9966 
vt 57.8348 -35 
vt 57.9061 -34.9966 
vt 57.8721 -35 
vt 57.9061 -35.0034 
vt 57.8558 -35.0034 
vt 57.8558 -34.9966 
vt 57.8187 -35 
vt 57.9823 -34.9966 
vt 57.9388 -34.9966 
vt 57.9823 -35.0034 
vt 57.9388 -35.0034 
vt 58.0897 -34.9966 
vt 58.0494 -34.9966 
vt 58.0897 -35.0034 
vt 58.0494 -35.0034 
vt 57.9239 -34.9966 
vt 57.89 -34.9966 
vt 57.9239 -35.0034 
vt 57.89 -35.0034 
vt 58.0341 -34.9966 
vt 57.9886 -34.9966 
vt 58.0341 -35.0034 
vt 57.9886 -35.0034 
vt 58.1446 -34.9823 
vt 58.1697 -34.936 
vt 58.1311 -34.9388 
vt 57.8689 -35.0612 
vt 57.8554 -35.0177 
vt 57.8303 -35.064 
vt 57.9823 -34.8554 
vt 57.936 -34.8303 
vt 57.9388 -34.8689 
vt 58.0612 -35.1311 
vt 58.0177 -35.1446 
vt 58.064 -35.1697 
vt 58.0897 -34.8852 
vt 58.0748 -34.8348 
vt 58.0494 -34.864 
vt 57.9506 -35.136 
vt 57.9103 -35.1148 
vt 57.9252 -35.1652 
vt 57.8852 -34.9103 
vt 57.8348 -34.9252 
vt 57.864 -34.9506 
vt 58.136 -35.0494 
vt 58.1148 -35.0897 
vt 58.1652 -35.0748 
vt 58.1242 -34.9239 
vt 58.1279 -34.8714 
vt 58.0939 -34.89 
vt 57.9061 -35.11 
vt 57.8758 -35.0761 
vt 57.8721 -35.1286 
vt 57.9239 -34.8758 
vt 57.8714 -34.8721 
vt 57.89 -34.9061 
vt 58.11 -35.0939 
vt 58.0761 -35.1242 
vt 58.1286 -35.1279 
vt 58.0341 -34.8584 
vt 57.9995 -34.8187 
vt 57.9886 -34.8558 
vt 58.0114 -35.1442 
vt 57.9659 -35.1416 
vt 58.0005 -35.1813 
vt 57.8584 -34.9659 
vt 57.8187 -35.0005 
vt 57.8558 -35.0114 
vt 58.1442 -34.9886 
vt 58.1416 -35.0341 
vt 58.1813 -34.9995 
vt 58 -35.064 
vt 58.0034 -35.0177 
vt 57.9966 -35.0177 
vt 58 -35.1652 
vt 58.0034 -35.1148 
vt 57.9966 -35.1148 
vt 58 -35.1286 
vt 58.0034 -35.0761 
vt 57.9966 -35.0761 
vt 58 -35.1813 
vt 58.0034 -35.1416 
vt 57.9966 -35.1416 
vt 58.0034 -34.8689 
vt 58 -34.8303 
vt 57.9966 -34.8689 
vt 58.0034 -34.864 
vt 58 -34.8348 
vt 57.9966 -34.864 
vt 58.0034 -34.9061 
vt 58 -34.8721 
vt 57.9966 -34.9061 
vt 58.0034 -34.8558 
vt 58 -34.8187 
vt 57.9966 -34.8558 
vt 57.9966 -34.9388 
vt 57.9966 -34.9823 
vt 58.0034 -34.9823 
vt 58.0034 -34.9388 
vt 58.0034 -35.0897 
vt 58.0034 -35.0494 
vt 57.9966 -35.0897 
vt 57.9966 -35.0494 
vt 57.9966 -34.89 
vt 57.9966 -34.9239 
vt 58.0034 -34.9239 
vt 58.0034 -34.89 
vt 58.0034 -35.0341 
vt 58.0034 -34.9886 
vt 57.9966 -35.0341 
vt 57.9966 -34.9886 
vt 58.064 -35 
vt 58.0177 -34.9966 
vt 58.0177 -35.0034 
vt 58.1652 -35 
vt 58.1148 -34.9966 
vt 58.1148 -35.0034 
vt 58.1286 -35 
vt 58.0761 -34.9966 
vt 58.0761 -35.0034 
vt 58.1813 -35 
vt 58.1416 -34.9966 
vt 58.1416 -35.0034 
vt 57.8689 -35.0034 
vt 57.8689 -34.9966 
vt 57.8303 -35 
vt 57.864 -34.9966 
vt 57.8348 -35 
vt 57.864 -35.0034 
vt 57.9061 -35.0034 
vt 57.9061 -34.9966 
vt 57.8721 -35 
vt 57.8558 -34.9966 
vt 57.8187 -35 
vt 57.8558 -35.0034 
vt 57.9388 -35.0034 
vt 57.9823 -35.0034 
vt 57.9823 -34.9966 
vt 57.9388 -34.9966 
vt 58.0494 -35.0034 
vt 58.0897 -35.0034 
vt 58.0897 -34.9966 
vt 58.0494 -34.9966 
vt 57.89 -35.0034 
vt 57.9239 -35.0034 
vt 57.9239 -34.9966 
vt 57.89 -34.9966 
vt 57.9886 -35.0034 
vt 58.0341 -35.0034 
vt 58.0341 -34.9966 
vt 57.9886 -34.9966 
vt 57.8689 -34.9388 
vt 57.8303 -34.936 
vt 57.8554 -34.9823 
vt 58.1446 -35.0177 
vt 58.1311 -35.0612 
vt 58.1697 -35.064 
vt 58.0612 -34.8689 
vt 58.064 -34.8303 
vt 58.0177 -34.8554 
vt 57.9823 -35.1446 
vt 57.9388 -35.1311 
vt 57.936 -35.1697 
vt 57.9506 -34.864 
vt 57.9252 -34.8348 
vt 57.9103 -34.8852 
vt 58.0897 -35.1148 
vt 58.0494 -35.136 
vt 58.0748 -35.1652 
vt 58.136 -34.9506 
vt 58.1652 -34.9252 
vt 58.1148 -34.9103 
vt 57.8852 -35.0897 
vt 57.864 -35.0494 
vt 57.8348 -35.0748 
vt 57.9061 -34.89 
vt 57.8721 -34.8714 
vt 57.8758 -34.9239 
vt 58.1242 -35.0761 
vt 58.0939 -35.11 
vt 58.1279 -35.1286 
vt 58.11 -34.9061 
vt 58.1286 -34.8721 
vt 58.0761 -34.8758 
vt 57.9239 -35.1242 
vt 57.89 -35.0939 
vt 57.8714 -35.1279 
vt 58.0114 -34.8558 
vt 58.0005 -34.8187 
vt 57.9659 -34.8584 
vt 58.0341 -35.1416 
vt 57.9886 -35.1442 
vt 57.9995 -35.1813 
vt 58.1442 -35.0114 
vt 58.1813 -35.0005 
vt 58.1416 -34.9659 
vt 57.8584 -35.0341 
vt 57.8558 -34.9886 
vt 57.8187 -34.9995 
vn 0.9921 -0.1260 -0.0000
vn 0.9921 -0.1260 -0.0000
vn 0.9921 -0.1260 -0.0000
vn 0.9921 -0.1260 -0.0000
vn 0.9528 0.2992 -0.0000
vn 0.9528 0.2992 -0.0000
vn 0.9528 0.2992 -0.0000
vn 0.9528 0.2992 -0.0000
vn 0.8189 0.5748 -0.0000
vn 1.0000 0.0866 -0.0000
vn 1.0000 0.0866 -0.0000
vn 0.9055 -0.4252 -0.0000
vn 0.9055 -0.4252 -0.0000
vn 0.8189 0.5748 -0.0000
vn 0.9055 -0.4252 -0.0000
vn 1.0000 0.0866 -0.0000
vn 0.5748 -0.8189 -0.0000
vn 0.8189 0.5748 -0.0000
vn 0.5748 -0.8189 -0.0000
vn 0.5748 -0.8189 -0.0000
vn 0.7638 -0.6457 -0.0000
vn 0.7638 -0.6457 -0.0000
vn 0.7638 -0.6457 -0.0000
vn 0.7638 -0.6457 -0.0000
vn 0.7559 0.6535 -0.0000
vn 0.7559 0.6535 -0.0000
vn 0.7559 0.6535 -0.0000
vn 0.7559 0.6535 -0.0000
vn 0.9921 -0.1181 -0.0000
vn 1.0000 -0.0394 -0.0000
vn 0.9921 -0.1181 -0.0000
vn 1.0000 -0.0394 -0.0000
vn 1.0000 0.0709 -0.0000
vn 1.0000 0.0709 -0.0000
vn 0.9921 0.1024 -0.0000
vn 0.9921 0.1024 -0.0000
vn 0.8110 0.5906 -0.0000
vn 0.7165 0.7008 -0.0000
vn 0.8110 0.5906 -0.0000
vn 0.7165 0.7008 -0.0000
vn 0.7244 -0.6929 -0.0000
vn 0.7638 -0.6457 -0.0000
vn 0.7244 -0.6929 -0.0000
vn 0.7638 -0.6457 -0.0000
vn -0.8898 0.4646 -0.0000
vn -0.6693 0.7402 -0.0000
vn -0.6693 0.7402 -0.0000
vn -0.8898 0.4646 -0.0000
vn 0.4252 0.9055 -0.0000
vn 0.8189 0.5748 -0.0000
vn 0.8189 0.5748 -0.0000
vn -0.0866 1.0000 -0.0000
vn -0.5748 0.8189 -0.0000
vn -0.5748 0.8189 -0.0000
vn -0.0866 1.0000 -0.0000
vn -0.5748 0.8189 -0.0000
vn 0.4252 0.9055 -0.0000
vn -0.0866 1.0000 -0.0000
vn 0.4252 0.9055 -0.0000
vn 0.8189 0.5748 -0.0000
vn 0.4331 0.8976 -0.0000
vn 0.4331 0.8976 -0.0000
vn 0.4331 0.8976 -0.0000
vn 0.4331 0.8976 -0.0000
vn 0.5276 0.8504 -0.0000
vn 0.7165 0.7008 -0.0000
vn 0.7165 0.7008 -0.0000
vn 0.5276 0.8504 -0.0000
vn 0.3465 0.9370 -0.0000
vn 0.3465 0.9370 -0.0000
vn 0.1811 0.9843 -0.0000
vn 0.1811 0.9843 -0.0000
vn 0.0945 0.9921 -0.0000
vn 0.0945 0.9921 -0.0000
vn -0.4961 0.8661 -0.0000
vn -0.4961 0.8661 -0.0000
vn -0.4961 0.8661 -0.0000
vn -0.4961 0.8661 -0.0000
vn 0.0000 0.0000 1.0000
vn 0.0000 0.0000 1.0000
vn 0.0000 0.0000 1.0000
vn 0.0000 0.0000 1.0000
vn 0.0000 0.0000 1.0000
vn 0.0000 0.0000 1.0000
vn 0.0000 0.0000 1.0000
vn 0.0000 0.0000 1.0000
vn 0.0000 0.0000 1.0000
vn 0.0000 0.0000 1.0000
vn 0.0000 0.0000 1.0000
vn 0.0000 0.0000 1.0000
vn 0.0000 0.0000 1.0000
vn 0.0000 0.0000 1.0000
vn 0.0000 0.0000 1.0000
vn 0.0000 0.0000 1.0000
vn 0.0000 0.0000 1.0000
vn 0.0000 0.0000 1.0000
vn 0.0000 0.0000 1.0000
vn 0.0000 0.0000 1.0000
vn 0.0000 0.0000 1.0000
vn 0.0000 0.0000 1.0000
vn 0.0000 0.0000 1.0000
vn 0.0000 0.0000 1.0000
vn 0.0000 0.0000 1.0000
vn 0.0000 0.0000 1.0000
vn 0.0000 0.0000 1.0000
vn 0.0000 0.0000 1.0000
vn 0.0000 0.0000 1.0000
vn 0.0000 0.0000 1.0000
vn 0.0000 0.0000 1.0000
vn 0.0000 0.0000 1.0000
vn 0.0000 0.0000 1.0000
vn 0.0000 0.0000 1.0000
vn 0.0000 0.0000 1.0000
vn 0.0000 0.0000 1.0000
vn 0.0000 0.0000 1.0000
vn 0.0000 0.0000 1.0000
vn 0.0000 0.0000 1.0000
vn 0.0000 0.0000 1.0000
vn 0.0000 0.0000 1.0000
vn 0.0000 0.0000 1.0000
vn 0.0000 0.0000 1.0000
vn 0.0000 0.0000 1.0000
vn 0.0000 0.0000 1.0000
vn -0.8898 0.4646 -0.0000
vn -0.9843 0.1890 -0.0000
vn -0.8898 0.4646 -0.0000
vn -0.9843 0.1890 -0.0000
vn -0.9449 0.3228 -0.0000
vn -0.9449 0.3228 -0.0000
vn -0.9055 0.4173 -0.0000
vn -0.9055 0.4173 -0.0000
vn -0.8976 0.4331 -0.0000
vn -0.8976 0.4331 -0.0000
vn -0.7559 -0.6535 -0.0000
vn -0.9843 -0.1654 -0.0000
vn -0.9843 -0.1654 -0.0000
vn -0.9606 -0.2835 -0.0000
vn -0.7559 -0.6535 -0.0000
vn -0.9606 -0.2835 -0.0000
vn -0.9213 -0.3858 -0.0000
vn -0.9213 -0.3858 -0.0000
vn -0.8583 -0.5197 -0.0000
vn -0.8583 -0.5197 -0.0000
vn -0.8032 -0.5984 -0.0000
vn -0.8032 -0.5984 -0.0000
vn -1.0000 -0.0866 -0.0000
vn -0.8189 -0.5748 -0.0000
vn -0.8189 -0.5748 -0.0000
vn -1.0000 -0.0866 -0.0000
vn -0.8189 -0.5748 -0.0000
vn -0.9055 0.4252 -0.0000
vn -1.0000 -0.0866 -0.0000
vn -0.9055 0.4252 -0.0000
vn -0.5748 0.8189 -0.0000
vn -0.9055 0.4252 -0.0000
vn -0.5748 0.8189 -0.0000
vn -0.5748 0.8189 -0.0000
vn -0.7480 0.6614 -0.0000
vn -0.7480 0.6614 -0.0000
vn -0.7480 0.6614 -0.0000
vn -0.7480 0.6614 -0.0000
vn -0.2520 -0.9685 -0.0000
vn -0.7559 -0.6535 -0.0000
vn -0.7559 -0.6535 -0.0000
vn -0.2520 -0.9685 -0.0000
vn 0.0866 -1.0000 -0.0000
vn 0.5748 -0.8189 -0.0000
vn 0.5748 -0.8189 -0.0000
vn 0.0866 -1.0000 -0.0000
vn 0.5748 -0.8189 -0.0000
vn -0.4252 -0.9055 -0.0000
vn 0.0866 -1.0000 -0.0000
vn -0.4252 -0.9055 -0.0000
vn -0.8189 -0.5748 -0.0000
vn -0.4252 -0.9055 -0.0000
vn -0.8189 -0.5748 -0.0000
vn -0.8189 -0.5748 -0.0000
vn -0.6220 -0.7795 -0.0000
vn -0.6220 -0.7795 -0.0000
vn -0.6220 -0.7795 -0.0000
vn -0.6220 -0.7795 -0.0000
vn 0.1575 -0.9843 -0.0000
vn 0.1575 -0.9843 -0.0000
vn 0.1575 -0.9843 -0.0000
vn 0.1575 -0.9843 -0.0000
vn 0.7244 -0.6929 -0.0000
vn 0.5748 -0.8189 -0.0000
vn 0.7244 -0.6929 -0.0000
vn 0.5748 -0.8189 -0.0000
vn 0.3622 -0.9291 -0.0000
vn 0.3622 -0.9291 -0.0000
vn 0.2598 -0.9685 -0.0000
vn 0.2598 -0.9685 -0.0000
vn -0.3386 -0.9370 -0.0000
vn -0.3386 -0.9370 -0.0000
vn -0.3386 -0.9370 -0.0000
vn -0.3386 -0.9370 -0.0000
vn 0.0000 0.0000 -1.0000
vn 0.0000 0.0000 -1.0000
vn 0.0000 0.0000 -1.0000
vn 0.0000 0.0000 -1.0000
vn 0.0000 0.0000 -1.0000
vn 0.0000 0.0000 -1.0000
vn 0.0000 0.0000 -1.0000
vn 0.0000 0.0000 -1.0000
vn 0.0000 0.0000 -1.0000
vn 0.0000 0.0000 -1.0000
vn 0.0000 0.0000 -1.0000
vn 0.0000 0.0000 -1.0000
vn 0.0000 0.0000 -1.0000
vn 0.0000 0.0000 -1.0000
vn 0.0000 0.0000 -1.0000
vn 0.0000 0.0000 -1.0000
vn 0.0000 0.0000 -1.0000
vn 0.0000 0.0000 -1.0000
vn 0.0000 0.0000 -1.0000
vn 0.0000 0.0000 -1.0000
vn 0.0000 0.0000 -1.0000
vn 0.0000 0.0000 -1.0000
vn 0.0000 0.0000 -1.0000
vn 0.0000 0.0000 -1.0000
vn 0.0000 0.0000 -1.0000
vn 0.0000 0.0000 -1.0000
vn 0.0000 0.0000 -1.0000
vn 0.0000 0.0000 -1.0000
vn 0.0000 0.0000 -1.0000
vn 0.0000 0.0000 -1.0000
vn 0.0000 0.0000 -1.0000
vn 0.0000 0.0000 -1.0000
vn 0.0000 0.0000 -1.0000
vn 0.0000 0.0000 -1.0000
vn 0.0000 0.0000 -1.0000
vn 0.0000 0.0000 -1.0000
vn 0.0000 0.0000 -1.0000
vn 0.0000 0.0000 -1.0000
vn 0.0000 0.0000 -1.0000
vn 0.0000 0.0000 -1.0000
vn 0.0000 0.0000 -1.0000
vn 0.0000 0.0000 -1.0000
vn 0.0000 0.0000 -1.0000
vn 0.0000 0.0000 -1.0000
vn 0.0000 0.0000 -1.0000
vn 0.7559 -0.6535 -0.0000
vn 0.7559 -0.6535 -0.0000
vn 0.7559 -0.6535 -0.0000
vn 1.0000 0.0709 -0.0000
vn 1.0000 0.0709 -0.0000
vn 1.0000 0.0709 -0.0000
vn 0.9606 -0.2756 -0.0000
vn 0.9606 -0.2756 -0.0000
vn 0.9606 -0.2756 -0.0000
vn 0.8740 0.4803 -0.0000
vn 0.8740 0.4803 -0.0000
vn 0.8740 0.4803 -0.0000
vn 0.9921 -0.1417 -0.0000
vn 0.9921 -0.1417 -0.0000
vn 0.9921 -0.1417 -0.0000
vn 0.8032 0.5984 -0.0000
vn 0.8032 0.5984 -0.0000
vn 0.8032 0.5984 -0.0000
vn 0.9606 0.2835 -0.0000
vn 0.9606 0.2835 -0.0000
vn 0.9606 0.2835 -0.0000
vn 0.8740 -0.4803 -0.0000
vn 0.8740 -0.4803 -0.0000
vn 0.8740 -0.4803 -0.0000
vn 1.0000 0.0866 -0.0000
vn 1.0000 0.0866 -0.0000
vn 1.0000 0.0866 -0.0000
vn 1.0000 0.0866 -0.0000
vn 0.7638 -0.6457 -0.0000
vn 0.7638 -0.6457 -0.0000
vn 0.7638 -0.6457 -0.0000
vn 0.7638 -0.6457 -0.0000
vn 0.8740 0.4961 -0.0000
vn 0.8740 0.4961 -0.0000
vn 0.8740 0.4961 -0.0000
vn 0.8740 0.4961 -0.0000
vn 0.9606 -0.2677 -0.0000
vn 0.9606 -0.2677 -0.0000
vn 0.9606 -0.2677 -0.0000
vn 0.9606 -0.2677 -0.0000
vn 0.6535 0.7559 -0.0000
vn 0.6535 0.7559 -0.0000
vn 0.6535 0.7559 -0.0000
vn -0.0709 1.0000 -0.0000
vn -0.0709 1.0000 -0.0000
vn -0.0709 1.0000 -0.0000
vn 0.2756 0.9606 -0.0000
vn 0.2756 0.9606 -0.0000
vn 0.2756 0.9606 -0.0000
vn -0.4803 0.8740 -0.0000
vn -0.4803 0.8740 -0.0000
vn -0.4803 0.8740 -0.0000
vn 0.1417 0.9921 -0.0000
vn 0.1417 0.9921 -0.0000
vn 0.1417 0.9921 -0.0000
vn -0.5984 0.8032 -0.0000
vn -0.5984 0.8032 -0.0000
vn -0.5984 0.8032 -0.0000
vn -0.2835 0.9606 -0.0000
vn -0.2835 0.9606 -0.0000
vn -0.2835 0.9606 -0.0000
vn 0.4803 0.8740 -0.0000
vn 0.4803 0.8740 -0.0000
vn 0.4803 0.8740 -0.0000
vn -0.0866 1.0000 -0.0000
vn -0.0866 1.0000 -0.0000
vn -0.0866 1.0000 -0.0000
vn -0.0866 1.0000 -0.0000
vn 0.6457 0.7638 -0.0000
vn 0.6457 0.7638 -0.0000
vn 0.6457 0.7638 -0.0000
vn 0.6457 0.7638 -0.0000
vn -0.4961 0.8740 -0.0000
vn -0.4961 0.8740 -0.0000
vn -0.4961 0.8740 -0.0000
vn -0.4961 0.8740 -0.0000
vn 0.2677 0.9606 -0.0000
vn 0.2677 0.9606 -0.0000
vn 0.2677 0.9606 -0.0000
vn 0.2677 0.9606 -0.0000
vn 0.0866 0.0079 0.9921
vn 0.0866 0.0079 0.9921
vn 0.0866 0.0079 0.9921
vn -0.0866 -0.0079 0.9921
vn -0.0866 -0.0079 0.9921
vn -0.0866 -0.0079 0.9921
vn -0.0079 0.0866 0.9921
vn -0.0079 0.0866 0.9921
vn -0.0079 0.0866 0.9921
vn 0.0079 -0.0866 0.9921
vn 0.0079 -0.0866 0.9921
vn 0.0079 -0.0866 0.9921
vn 0.0551 0.0709 0.9921
vn 0.0551 0.0709 0.9921
vn 0.0551 0.0709 0.9921
vn -0.0551 -0.0709 0.9921
vn -0.0551 -0.0709 0.9921
vn -0.0551 -0.0709 0.9921
vn -0.0709 0.0551 0.9921
vn -0.0709 0.0551 0.9921
vn -0.0709 0.0551 0.9921
vn 0.0709 -0.0551 0.9921
vn 0.0709 -0.0551 0.9921
vn 0.0709 -0.0551 0.9921
vn 0.0787 0.0472 0.9921
vn 0.0787 0.0472 0.9921
vn 0.0787 0.0472 0.9921
vn -0.0787 -0.0472 0.9921
vn -0.0787 -0.0472 0.9921
vn -0.0787 -0.0472 0.9921
vn -0.0472 0.0787 0.9921
vn -0.0472 0.0787 0.9921
vn -0.0472 0.0787 0.9921
vn 0.0472 -0.0787 0.9921
vn 0.0472 -0.0787 0.9921
vn 0.0472 -0.0787 0.9921
vn 0.0236 0.0866 0.9921
vn 0.0236 0.0866 0.9921
vn 0.0236 0.0866 0.9921
vn -0.0236 -0.0866 0.9921
vn -0.0236 -0.0866 0.9921
vn -0.0236 -0.0866 0.9921
vn -0.0866 0.0236 0.9921
vn -0.0866 0.0236 0.9921
vn -0.0866 0.0236 0.9921
vn 0.0866 -0.0236 0.9921
vn 0.0866 -0.0236 0.9921
vn 0.0866 -0.0236 0.9921
vn -0.7559 0.6535 -0.0000
vn -0.7559 0.6535 -0.0000
vn -0.7559 0.6535 -0.0000
vn -1.0000 -0.0709 -0.0000
vn -1.0000 -0.0709 -0.0000
vn -1.0000 -0.0709 -0.0000
vn -0.9606 0.2756 -0.0000
vn -0.9606 0.2756 -0.0000
vn -0.9606 0.2756 -0.0000
vn -0.8740 -0.4803 -0.0000
vn -0.8740 -0.4803 -0.0000
vn -0.8740 -0.4803 -0.0000
vn -0.9921 0.1417 -0.0000
vn -0.9921 0.1417 -0.0000
vn -0.9921 0.1417 -0.0000
vn -0.8032 -0.5984 -0.0000
vn -0.8032 -0.5984 -0.0000
vn -0.8032 -0.5984 -0.0000
vn -0.9606 -0.2835 -0.0000
vn -0.9606 -0.2835 -0.0000
vn -0.9606 -0.2835 -0.0000
vn -0.8740 0.4803 -0.0000
vn -0.8740 0.4803 -0.0000
vn -0.8740 0.4803 -0.0000
vn -1.0000 -0.0866 -0.0000
vn -1.0000 -0.0866 -0.0000
vn -1.0000 -0.0866 -0.0000
vn -1.0000 -0.0866 -0.0000
vn -0.7638 0.6457 -0.0000
vn -0.7638 0.6457 -0.0000
vn -0.7638 0.6457 -0.0000
vn -0.7638 0.6457 -0.0000
vn -0.8740 -0.4961 -0.0000
vn -0.8740 -0.4961 -0.0000
vn -0.8740 -0.4961 -0.0000
vn -0.8740 -0.4961 -0.0000
vn -0.9606 0.2677 -0.0000
vn -0.9606 0.2677 -0.0000
vn -0.9606 0.2677 -0.0000
vn -0.9606 0.2677 -0.0000
vn -0.6535 -0.7559 -0.0000
vn -0.6535 -0.7559 -0.0000
vn -0.6535 -0.7559 -0.0000
vn 0.0709 -1.0000 -0.0000
vn 0.0709 -1.0000 -0.0000
vn 0.0709 -1.0000 -0.0000
vn -0.2756 -0.9606 -0.0000
vn -0.2756 -0.9606 -0.0000
vn -0.2756 -0.9606 -0.0000
vn 0.4803 -0.8740 -0.0000
vn 0.4803 -0.8740 -0.0000
vn 0.4803 -0.8740 -0.0000
vn -0.1417 -0.9921 -0.0000
vn -0.1417 -0.9921 -0.0000
vn -0.1417 -0.9921 -0.0000
vn 0.5984 -0.8032 -0.0000
vn 0.5984 -0.8032 -0.0000
vn 0.5984 -0.8032 -0.0000
vn 0.2835 -0.9606 -0.0000
vn 0.2835 -0.9606 -0.0000
vn 0.2835 -0.9606 -0.0000
vn -0.4803 -0.8740 -0.0000
vn -0.4803 -0.8740 -0.0000
vn -0.4803 -0.8740 -0.0000
vn 0.0866 -1.0000 -0.0000
vn 0.0866 -1.0000 -0.0000
vn 0.0866 -1.0000 -0.0000
vn 0.0866 -1.0000 -0.0000
vn -0.6457 -0.7638 -0.0000
vn -0.6457 -0.7638 -0.0000
vn -0.6457 -0.7638 -0.0000
vn -0.6457 -0.7638 -0.0000
vn 0.4961 -0.8740 -0.0000
vn 0.4961 -0.8740 -0.0000
vn 0.4961 -0.8740 -0.0000
vn 0.4961 -0.8740 -0.0000
vn -0.2677 -0.9606 -0.0000
vn -0.2677 -0.9606 -0.0000
vn -0.2677 -0.9606 -0.0000
vn -0.2677 -0.9606 -0.0000
vn 0.0866 0.0079 -0.9921
vn 0.0866 0.0079 -0.9921
vn 0.0866 0.0079 -0.9921
vn -0.0866 -0.0079 -0.9921
vn -0.0866 -0.0079 -0.9921
vn -0.0866 -0.0079 -0.9921
vn -0.0079 0.0866 -0.9921
vn -0.0079 0.0866 -0.9921
vn -0.0079 0.0866 -0.9921
vn 0.0079 -0.0866 -0.9921
vn 0.0079 -0.0866 -0.9921
vn 0.0079 -0.0866 -0.9921
vn 0.0551 0.0709 -0.9921
vn 0.0551 0.0709 -0.9921
vn 0.0551 0.0709 -0.9921
vn -0.0551 -0.0709 -0.9921
vn -0.0551 -0.0709 -0.9921
vn -0.0551 -0.0709 -0.9921
vn -0.0709 0.0551 -0.9921
vn -0.0709 0.0551 -0.9921
vn -0.0709 0.0551 -0.9921
vn 0.0709 -0.0551 -0.9921
vn 0.0709 -0.0551 -0.9921
vn 0.0709 -0.0551 -0.9921
vn 0.0787 0.0472 -0.9921
vn 0.0787 0.0472 -0.9921
vn 0.0787 0.0472 -0.9921
vn -0.0787 -0.0472 -0.9921
vn -0.0787 -0.0472 -0.9921
vn -0.0787 -0.0472 -0.9921
vn -0.0472 0.0787 -0.9921
vn -0.0472 0.0787 -0.9921
vn -0.0472 0.0787 -0.9921
vn 0.0472 -0.0787 -0.9921
vn 0.0472 -0.0787 -0.9921
vn 0.0472 -0.0787 -0.9921
vn 0.0236 0.0866 -0.9921
vn 0.0236 0.0866 -0.9921
vn 0.0236 0.0866 -0.9921
vn -0.0236 -0.0866 -0.9921
vn -0.0236 -0.0866 -0.9921
vn -0.0236 -0.0866 -0.9921
vn -0.0866 0.0236 -0.9921
vn -0.0866 0.0236 -0.9921
vn -0.0866 0.0236 -0.9921
vn 0.0866 -0.0236 -0.9921
vn 0.0866 -0.0236 -0.9921
vn 0.0866 -0.0236 -0.9921
vn 0.8819 -0.4803 -0.0000
vn 0.8819 -0.4803 -0.0000
vn 0.8819 -0.4803 -0.0000
vn 0.9606 0.2835 -0.0000
vn 0.9606 0.2835 -0.0000
vn 0.9606 0.2835 -0.0000
vn 1.0000 -0.0709 -0.0000
vn 1.0000 -0.0709 -0.0000
vn 1.0000 -0.0709 -0.0000
vn 0.7559 0.6535 -0.0000
vn 0.7559 0.6535 -0.0000
vn 0.7559 0.6535 -0.0000
vn 1.0000 0.0709 -0.0000
vn 1.0000 0.0709 -0.0000
vn 1.0000 0.0709 -0.0000
vn 0.7559 -0.6535 -0.0000
vn 0.7559 -0.6535 -0.0000
vn 0.7559 -0.6535 -0.0000
vn 0.8740 0.4803 -0.0000
vn 0.8740 0.4803 -0.0000
vn 0.8740 0.4803 -0.0000
vn 0.9606 -0.2835 -0.0000
vn 0.9606 -0.2835 -0.0000
vn 0.9606 -0.2835 -0.0000
vn 0.9528 0.2992 -0.0000
vn 0.9528 0.2992 -0.0000
vn 0.9528 0.2992 -0.0000
vn 0.9528 0.2992 -0.0000
vn 0.8819 -0.4646 -0.0000
vn 0.8819 -0.4646 -0.0000
vn 0.8819 -0.4646 -0.0000
vn 0.8819 -0.4646 -0.0000
vn 0.7480 0.6693 -0.0000
vn 0.7480 0.6693 -0.0000
vn 0.7480 0.6693 -0.0000
vn 0.7480 0.6693 -0.0000
vn 1.0000 -0.0551 -0.0000
vn 1.0000 -0.0551 -0.0000
vn 1.0000 -0.0551 -0.0000
vn 1.0000 -0.0551 -0.0000
vn 0.4803 0.8819 -0.0000
vn 0.4803 0.8819 -0.0000
vn 0.4803 0.8819 -0.0000
vn -0.2835 0.9606 -0.0000
vn -0.2835 0.9606 -0.0000
vn -0.2835 0.9606 -0.0000
vn 0.0709 1.0000 -0.0000
vn 0.0709 1.0000 -0.0000
vn 0.0709 1.0000 -0.0000
vn -0.6535 0.7559 -0.0000
vn -0.6535 0.7559 -0.0000
vn -0.6535 0.7559 -0.0000
vn -0.0709 1.0000 -0.0000
vn -0.0709 1.0000 -0.0000
vn -0.0709 1.0000 -0.0000
vn 0.6535 0.7559 -0.0000
vn 0.6535 0.7559 -0.0000
vn 0.6535 0.7559 -0.0000
vn -0.4803 0.8740 -0.0000
vn -0.4803 0.8740 -0.0000
vn -0.4803 0.8740 -0.0000
vn 0.2835 0.9606 -0.0000
vn 0.2835 0.9606 -0.0000
vn 0.2835 0.9606 -0.0000
vn -0.2992 0.9528 -0.0000
vn -0.2992 0.9528 -0.0000
vn -0.2992 0.9528 -0.0000
vn -0.2992 0.9528 -0.0000
vn 0.4646 0.8819 -0.0000
vn 0.4646 0.8819 -0.0000
vn 0.4646 0.8819 -0.0000
vn 0.4646 0.8819 -0.0000
vn -0.6693 0.7480 -0.0000
vn -0.6693 0.7480 -0.0000
vn -0.6693 0.7480 -0.0000
vn -0.6693 0.7480 -0.0000
vn 0.0551 1.0000 -0.0000
vn 0.0551 1.0000 -0.0000
vn 0.0551 1.0000 -0.0000
vn 0.0551 1.0000 -0.0000
vn 0.0866 0.0236 0.9921
vn 0.0866 0.0236 0.9921
vn 0.0866 0.0236 0.9921
vn -0.0866 -0.0236 0.9921
vn -0.0866 -0.0236 0.9921
vn -0.0866 -0.0236 0.9921
vn -0.0236 0.0866 0.9921
vn -0.0236 0.0866 0.9921
vn -0.0236 0.0866 0.9921
vn 0.0236 -0.0866 0.9921
vn 0.0236 -0.0866 0.9921
vn 0.0236 -0.0866 0.9921
vn 0.0394 0.0787 0.9921
vn 0.0394 0.0787 0.9921
vn 0.0394 0.0787 0.9921
vn -0.0394 -0.0787 0.9921
vn -0.0394 -0.0787 0.9921
vn -0.0394 -0.0787 0.9921
vn -0.0787 0.0394 0.9921
vn -0.0787 0.0394 0.9921
vn -0.0787 0.0394 0.9921
vn 0.0787 -0.0394 0.9921
vn 0.0787 -0.0394 0.9921
vn 0.0787 -0.0394 0.9921
vn 0.0709 0.0630 0.9921
vn 0.0709 0.0630 0.9921
vn 0.0709 0.0630 0.9921
vn -0.0709 -0.0630 0.9921
vn -0.0709 -0.0630 0.9921
vn -0.0709 -0.0630 0.9921
vn -0.0630 0.0709 0.9921
vn -0.0630 0.0709 0.9921
vn -0.0630 0.0709 0.9921
vn 0.0630 -0.0709 0.9921
vn 0.0630 -0.0709 0.9921
vn 0.0630 -0.0709 0.9921
vn 0.0079 0.0866 0.9921
vn 0.0079 0.0866 0.9921
vn 0.0079 0.0866 0.9921
vn -0.0079 -0.0866 0.9921
vn -0.0079 -0.0866 0.9921
vn -0.0079 -0.0866 0.9921
vn -0.0866 0.0079 0.9921
vn -0.0866 0.0079 0.9921
vn -0.0866 0.0079 0.9921
vn 0.0866 -0.0079 0.9921
vn 0.0866 -0.0079 0.9921
vn 0.0866 -0.0079 0.9921
vn -0.8819 0.4803 -0.0000
vn -0.8819 0.4803 -0.0000
vn -0.8819 0.4803 -0.0000
vn -0.9606 -0.2835 -0.0000
vn -0.9606 -0.2835 -0.0000
vn -0.9606 -0.2835 -0.0000
vn -1.0000 0.0709 -0.0000
vn -1.0000 0.0709 -0.0000
vn -1.0000 0.0709 -0.0000
vn -0.7559 -0.6535 -0.0000
vn -0.7559 -0.6535 -0.0000
vn -0.7559 -0.6535 -0.0000
vn -1.0000 -0.0709 -0.0000
vn -1.0000 -0.0709 -0.0000
vn -1.0000 -0.0709 -0.0000
vn -0.7559 0.6535 -0.0000
vn -0.7559 0.6535 -0.0000
vn -0.7559 0.6535 -0.0000
vn -0.8740 -0.4803 -0.0000
vn -0.8740 -0.4803 -0.0000
vn -0.8740 -0.4803 -0.0000
vn -0.9606 0.2835 -0.0000
vn -0.9606 0.2835 -0.0000
vn -0.9606 0.2835 -0.0000
vn -0.9528 -0.2992 -0.0000
vn -0.9528 -0.2992 -0.0000
vn -0.9528 -0.2992 -0.0000
vn -0.9528 -0.2992 -0.0000
vn -0.8819 0.4646 -0.0000
vn -0.8819 0.4646 -0.0000
vn -0.8819 0.4646 -0.0000
vn -0.8819 0.4646 -0.0000
vn -0.7480 -0.6693 -0.0000
vn -0.7480 -0.6693 -0.0000
vn -0.7480 -0.6693 -0.0000
vn -0.7480 -0.6693 -0.0000
vn -1.0000 0.0551 -0.0000
vn -1.0000 0.0551 -0.0000
vn -1.0000 0.0551 -0.0000
vn -1.0000 0.0551 -0.0000
vn -0.4803 -0.8819 -0.0000
vn -0.4803 -0.8819 -0.0000
vn -0.4803 -0.8819 -0.0000
vn 0.2835 -0.9606 -0.0000
vn 0.2835 -0.9606 -0.0000
vn 0.2835 -0.9606 -0.0000
vn -0.0709 -1.0000 -0.0000
vn -0.0709 -1.0000 -0.0000
vn -0.0709 -1.0000 -0.0000
vn 0.6535 -0.7559 -0.0000
vn 0.6535 -0.7559 -0.0000
vn 0.6535 -0.7559 -0.0000
vn 0.0709 -1.0000 -0.0000
vn 0.0709 -1.0000 -0.0000
vn 0.0709 -1.0000 -0.0000
vn -0.6535 -0.7559 -0.0000
vn -0.6535 -0.7559 -0.0000
vn -0.6535 -0.7559 -0.0000
vn 0.4803 -0.8740 -0.0000
vn 0.4803 -0.8740 -0.0000
vn 0.4803 -0.8740 -0.0000
vn -0.2835 -0.9606 -0.0000
vn -0.2835 -0.9606 -0.0000
vn -0.2835 -0.9606 -0.0000
vn 0.2992 -0.9528 -0.0000
vn 0.2992 -0.9528 -0.0000
vn 0.2992 -0.9528 -0.0000
vn 0.2992 -0.9528 -0.0000
vn -0.4646 -0.8819 -0.0000
vn -0.4646 -0.8819 -0.0000
vn -0.4646 -0.8819 -0.0000
vn -0.4646 -0.8819 -0.0000
vn 0.6693 -0.7480 -0.0000
vn 0.6693 -0.7480 -0.0000
vn 0.6693 -0.7480 -0.0000
vn 0.6693 -0.7480 -0.0000
vn -0.0551 -1.0000 -0.0000
vn -0.0551 -1.0000 -0.0000
vn -0.0551 -1.0000 -0.0000
vn -0.0551 -1.0000 -0.0000
vn 0.0866 0.0236 -0.9921
vn 0.0866 0.0236 -0.9921
vn 0.0866 0.0236 -0.9921
vn -0.0866 -0.0236 -0.9921
vn -0.0866 -0.0236 -0.9921
vn -0.0866 -0.0236 -0.9921
vn -0.0236 0.0866 -0.9921
vn -0.0236 0.0866 -0.9921
vn -0.0236 0.0866 -0.9921
vn 0.0236 -0.0866 -0.9921
vn 0.0236 -0.0866 -0.9921
vn 0.0236 -0.0866 -0.9921
vn 0.0394 0.0787 -0.9921
vn 0.0394 0.0787 -0.9921
vn 0.0394 0.0787 -0.9921
vn -0.0394 -0.0787 -0.9921
vn -0.0394 -0.0787 -0.9921
vn -0.0394 -0.0787 -0.9921
vn -0.0787 0.0394 -0.9921
vn -0.0787 0.0394 -0.9921
vn -0.0787 0.0394 -0.9921
vn 0.0787 -0.0394 -0.9921
vn 0.0787 -0.0394 -0.9921
vn 0.0787 -0.0394 -0.9921
vn 0.0709 0.0630 -0.9921
vn 0.0709 0.0630 -0.9921
vn 0.0709 0.0630 -0.9921
vn -0.0709 -0.0630 -0.9921
vn -0.0709 -0.0630 -0.9921
vn -0.0709 -0.0630 -0.9921
vn -0.0630 0.0709 -0.9921
vn -0.0630 0.0709 -0.9921
vn -0.0630 0.0709 -0.9921
vn 0.0630 -0.0709 -0.9921
vn 0.0630 -0.0709 -0.9921
vn 0.0630 -0.0709 -0.9921
vn 0.0079 0.0866 -0.9921
vn 0.0079 0.0866 -0.9921
vn 0.0079 0.0866 -0.9921
vn -0.0079 -0.0866 -0.9921
vn -0.0079 -0.0866 -0.9921
vn -0.0079 -0.0866 -0.9921
vn -0.0866 0.0079 -0.9921
vn -0.0866 0.0079 -0.9921
vn -0.0866 0.0079 -0.9921
vn 0.0866 -0.0079 -0.9921
vn 0.0866 -0.0079 -0.9921
vn 0.0866 -0.0079 -0.9921
usemtl Meshpart3Mtl
f 1/1/1 2/2/2 3/3/3
f 1/1/1 3/3/3 4/4/4
f 5/5/5 6/6/6 7/7/7
f 5/5/5 7/7/7 8/8/8
f 9/9/9 10/10/10 11/11/11
f 12/12/12 11/11/11 10/10/10
f 11/11/11 12/12/12 13/13/13
f 10/10/10 9/9/9 14/14/14
f 10/10/10 15/15/15 12/12/12
f 15/15/15 10/10/10 16/16/16
f 14/14/14 16/16/16 10/10/10
f 17/17/17 12/12/12 15/15/15
f 16/16/16 14/14/14 18/18/18
f 12/12/12 17/17/17 19/19/19
f 19/19/19 13/13/13 12/12/12
f 13/13/13 19/19/19 20/20/20
f 21/21/21 22/22/22 23/23/23
f 21/21/21 23/23/23 24/24/24
f 25/25/25 26/26/26 27/27/27
f 25/25/25 27/27/27 28/28/28
f 29/29/29 30/30/30 31/31/31
f 30/30/30 29/29/29 32/32/32
f 32/32/32 33/33/33 30/30/30
f 33/33/33 32/32/32 34/34/34
f 35/35/35 33/33/33 34/34/34
f 35/35/35 34/34/34 36/36/36
f 37/37/37 38/38/38 39/39/39
f 38/38/38 37/37/37 40/40/40
f 41/41/41 42/42/42 43/43/43
f 42/42/42 41/41/41 44/44/44
f 45/45/45 46/46/46 47/47/47
f 45/45/45 47/47/47 48/48/48
f 49/49/49 50/50/50 51/51/51
f 52/52/52 53/53/53 54/54/54
f 53/53/53 52/52/52 55/55/55
f 55/55/55 56/56/56 53/53/53
f 57/57/57 55/55/55 52/52/52
f 56/56/56 55/55/55 58/58/58
f 55/55/55 57/57/57 59/59/59
f 59/59/59 58/58/58 55/55/55
f 60/60/60 59/59/59 57/57/57
f 58/58/58 59/59/59 49/49/49
f 59/59/59 60/60/60 50/50/50
f 50/50/50 49/49/49 59/59/59
f 61/61/61 62/62/62 63/63/63
f 61/61/61 63/63/63 64/64/64
f 65/65/65 66/66/66 67/67/67
f 65/65/65 67/67/67 68/68/68
f 69/69/69 65/65/65 68/68/68
f 69/69/69 68/68/68 70/70/70
f 70/70/70 71/71/71 69/69/69
f 71/71/71 70/70/70 72/72/72
f 73/73/73 71/71/71 72/72/72
f 73/73/73 72/72/72 74/74/74
f 75/75/75 76/76/76 77/77/77
f 75/75/75 77/77/77 78/78/78
f 79/79/79 80/80/80 81/81/81
f 80/80/80 79/79/79 82/82/82
f 83/83/83 80/80/80 82/82/82
f 80/80/80 83/83/83 84/84/84
f 83/83/83 85/85/85 84/84/84
f 85/85/85 83/83/83 86/86/86
f 87/87/87 84/84/84 85/85/85
f 86/86/86 88/88/88 85/85/85
f 89/89/89 84/84/84 87/87/87
f 89/89/89 81/81/81 84/84/84
f 90/90/90 88/88/88 86/86/86
f 88/88/88 90/90/90 91/91/91
f 90/90/90 92/92/92 91/91/91
f 90/90/90 93/93/93 92/92/92
f 81/81/81 89/89/89 94/94/94
f 93/93/93 90/90/90 95/95/95
f 96/96/96 81/81/81 94/94/94
f 95/95/95 97/97/97 93/93/93
f 98/98/98 93/93/93 97/97/97
f 95/95/95 99/99/99 97/97/97
f 100/100/100 99/99/99 95/95/95
f 99/99/99 100/100/100 101/101/101
f 101/101/101 100/100/100 102/102/102
f 103/103/103 102/102/102 100/100/100
f 102/102/102 103/103/103 104/104/104
f 105/105/105 102/102/102 104/104/104
f 104/104/104 103/103/103 106/106/106
f 107/107/107 106/106/106 103/103/103
f 106/106/106 107/107/107 108/108/108
f 107/107/107 109/109/109 108/108/108
f 109/109/109 107/107/107 110/110/110
f 110/110/110 111/111/111 109/109/109
f 110/110/110 112/112/112 111/111/111
f 110/110/110 113/113/113 112/112/112
f 114/114/114 112/112/112 113/113/113
f 112/112/112 114/114/114 115/115/115
f 113/113/113 116/116/116 114/114/114
f 116/116/116 113/113/113 117/117/117
f 79/79/79 116/116/116 117/117/117
f 118/118/118 115/115/115 114/114/114
f 116/116/116 79/79/79 118/118/118
f 115/115/115 118/118/118 119/119/119
f 119/119/119 118/118/118 120/120/120
f 118/118/118 121/121/121 120/120/120
f 118/118/118 79/79/79 81/81/81
f 121/121/121 118/118/118 122/122/122
f 81/81/81 122/122/122 118/118/118
f 122/122/122 81/81/81 96/96/96
f 96/96/96 123/123/123 122/122/122
f 124/124/124 125/125/125 126/126/126
f 125/125/125 124/124/124 127/127/127
f 128/128/128 125/125/125 127/127/127
f 128/128/128 127/127/127 129/129/129
f 130/130/130 128/128/128 129/129/129
f 130/130/130 129/129/129 131/131/131
f 131/131/131 132/132/132 130/130/130
f 132/132/132 131/131/131 133/133/133
f 134/134/134 135/135/135 136/136/136
f 135/135/135 137/137/137 136/136/136
f 134/134/134 136/136/136 138/138/138
f 135/135/135 139/139/139 137/137/137
f 139/139/139 140/140/140 137/137/137
f 139/139/139 141/141/141 140/140/140
f 141/141/141 142/142/142 140/140/140
f 141/141/141 143/143/143 142/142/142
f 143/143/143 144/144/144 142/142/142
f 143/143/143 145/145/145 144/144/144
f 146/146/146 147/147/147 148/148/148
f 147/147/147 146/146/146 149/149/149
f 149/149/149 150/150/150 147/147/147
f 151/151/151 149/149/149 146/146/146
f 150/150/150 149/149/149 152/152/152
f 149/149/149 151/151/151 153/153/153
f 153/153/153 152/152/152 149/149/149
f 154/154/154 153/153/153 151/151/151
f 152/152/152 153/153/153 155/155/155
f 153/153/153 154/154/154 156/156/156
f 156/156/156 155/155/155 153/153/153
f 155/155/155 156/156/156 157/157/157
f 158/158/158 159/159/159 160/160/160
f 158/158/158 160/160/160 161/161/161
f 162/162/162 163/163/163 164/164/164
f 162/162/162 164/164/164 165/165/165
f 166/166/166 167/167/167 168/168/168
f 167/167/167 166/166/166 169/169/169
f 169/169/169 170/170/170 167/167/167
f 171/171/171 169/169/169 166/166/166
f 170/170/170 169/169/169 172/172/172
f 169/169/169 171/171/171 173/173/173
f 173/173/173 172/172/172 169/169/169
f 174/174/174 173/173/173 171/171/171
f 172/172/172 173/173/173 175/175/175
f 173/173/173 174/174/174 176/176/176
f 176/176/176 175/175/175 173/173/173
f 175/175/175 176/176/176 177/177/177
f 178/178/178 179/179/179 180/180/180
f 179/179/179 178/178/178 181/181/181
f 182/182/182 183/183/183 184/184/184
f 183/183/183 182/182/182 185/185/185
f 186/186/186 187/187/187 188/188/188
f 186/186/186 189/189/189 187/187/187
f 189/189/189 190/190/190 187/187/187
f 189/189/189 191/191/191 190/190/190
f 191/191/191 192/192/192 190/190/190
f 192/192/192 191/191/191 193/193/193
f 194/194/194 195/195/195 196/196/196
f 194/194/194 196/196/196 197/197/197
f 198/198/198 199/199/199 200/200/200
f 199/199/199 198/198/198 201/201/201
f 202/202/202 201/201/201 198/198/198
f 198/198/198 203/203/203 202/202/202
f 203/203/203 204/204/204 202/202/202
f 205/205/205 202/202/202 204/204/204
f 204/204/204 203/203/203 206/206/206
f 205/205/205 204/204/204 207/207/207
f 206/206/206 203/203/203 208/208/208
f 200/200/200 208/208/208 203/203/203
f 207/207/207 209/209/209 205/205/205
f 209/209/209 207/207/207 210/210/210
f 211/211/211 209/209/209 210/210/210
f 212/212/212 209/209/209 211/211/211
f 208/208/208 200/200/200 213/213/213
f 209/209/209 212/212/212 214/214/214
f 200/200/200 215/215/215 213/213/213
f 216/216/216 214/214/214 212/212/212
f 217/217/217 216/216/216 212/212/212
f 218/218/218 214/214/214 216/216/216
f 214/214/214 218/218/218 219/219/219
f 220/220/220 219/219/219 218/218/218
f 221/221/221 219/219/219 220/220/220
f 219/219/219 221/221/221 222/222/222
f 221/221/221 223/223/223 222/222/222
f 223/223/223 221/221/221 224/224/224
f 222/222/222 223/223/223 225/225/225
f 225/225/225 226/226/226 222/222/222
f 226/226/226 225/225/225 227/227/227
f 228/228/228 226/226/226 227/227/227
f 226/226/226 228/228/228 229/229/229
f 229/229/229 228/228/228 230/230/230
f 229/229/229 230/230/230 231/231/231
f 231/231/231 232/232/232 229/229/229
f 232/232/232 231/231/231 233/233/233
f 234/234/234 233/233/233 231/231/231
f 235/235/235 232/232/232 233/233/233
f 236/236/236 232/232/232 235/235/235
f 235/235/235 199/199/199 236/236/236
f 234/234/234 237/237/237 233/233/233
f 237/237/237 199/199/199 235/235/235
f 238/238/238 237/237/237 234/234/234
f 237/237/237 238/238/238 239/239/239
f 240/240/240 237/237/237 239/239/239
f 200/200/200 199/199/199 237/237/237
f 241/241/241 237/237/237 240/240/240
f 237/237/237 241/241/241 200/200/200
f 215/215/215 200/200/200 241/241/241
f 241/241/241 242/242/242 215/215/215
usemtl Spikes21Mtl
f 243/243/243 244/244/244 245/245/245
f 246/246/246 247/247/247 248/248/248
f 249/249/249 250/250/250 251/251/251
f 252/252/252 253/253/253 254/254/254
f 255/255/255 256/256/256 257/257/257
f 258/258/258 259/259/259 260/260/260
f 261/261/261 262/262/262 263/263/263
f 264/264/264 265/265/265 266/266/266
f 267/267/267 268/268/268 269/269/269
f 270/270/270 269/269/269 268/268/268
f 271/271/271 272/272/272 273/273/273
f 271/271/271 273/273/273 274/274/274
f 275/275/275 276/276/276 277/277/277
f 278/278/278 277/277/277 276/276/276
f 279/279/279 280/280/280 281/281/281
f 279/279/279 281/281/281 282/282/282
f 283/283/283 284/284/284 285/285/285
f 286/286/286 287/287/287 288/288/288
f 289/289/289 290/290/290 291/291/291
f 292/292/292 293/293/293 294/294/294
f 295/295/295 296/296/296 297/297/297
f 298/298/298 299/299/299 300/300/300
f 301/301/301 302/302/302 303/303/303
f 304/304/304 305/305/305 306/306/306
f 307/307/307 308/308/308 309/309/309
f 310/310/310 309/309/309 308/308/308
f 311/311/311 312/312/312 313/313/313
f 314/314/314 313/313/313 312/312/312
f 315/315/315 316/316/316 317/317/317
f 318/318/318 317/317/317 316/316/316
f 319/319/319 320/320/320 321/321/321
f 322/322/322 321/321/321 320/320/320
f 323/323/323 324/324/324 325/325/325
f 326/326/326 327/327/327 328/328/328
f 329/329/329 330/330/330 331/331/331
f 332/332/332 333/333/333 334/334/334
f 335/335/335 336/336/336 337/337/337
f 338/338/338 339/339/339 340/340/340
f 341/341/341 342/342/342 343/343/343
f 344/344/344 345/345/345 346/346/346
f 347/347/347 348/348/348 349/349/349
f 350/350/350 351/351/351 352/352/352
f 353/353/353 354/354/354 355/355/355
f 356/356/356 357/357/357 358/358/358
f 359/359/359 360/360/360 361/361/361
f 362/362/362 363/363/363 364/364/364
f 365/365/365 366/366/366 367/367/367
f 368/368/368 369/369/369 370/370/370
f 371/371/371 372/372/372 373/373/373
f 374/374/374 375/375/375 376/376/376
f 377/377/377 378/378/378 379/379/379
f 380/380/380 381/381/381 382/382/382
f 383/383/383 384/384/384 385/385/385
f 386/386/386 387/387/387 388/388/388
f 389/389/389 390/390/390 391/391/391
f 392/392/392 393/393/393 394/394/394
f 395/395/395 396/396/396 397/397/397
f 395/395/395 397/397/397 398/398/398
f 399/399/399 400/400/400 401/401/401
f 402/402/402 401/401/401 400/400/400
f 403/403/403 404/404/404 405/405/405
f 403/403/403 405/405/405 406/406/406
f 407/407/407 408/408/408 409/409/409
f 410/410/410 409/409/409 408/408/408
f 411/411/411 412/412/412 413/413/413
f 414/414/414 415/415/415 416/416/416
f 417/417/417 418/418/418 419/419/419
f 420/420/420 421/421/421 422/422/422
f 423/423/423 424/424/424 425/425/425
f 426/426/426 427/427/427 428/428/428
f 429/429/429 430/430/430 431/431/431
f 432/432/432 433/433/433 434/434/434
f 435/435/435 436/436/436 437/437/437
f 435/435/435 437/437/437 438/438/438
f 439/439/439 440/440/440 441/441/441
f 439/439/439 441/441/441 442/442/442
f 443/443/443 444/444/444 445/445/445
f 443/443/443 445/445/445 446/446/446
f 447/447/447 448/448/448 449/449/449
f 447/447/447 449/449/449 450/450/450
f 451/451/451 452/452/452 453/453/453
f 454/454/454 455/455/455 456/456/456
f 457/457/457 458/458/458 459/459/459
f 460/460/460 461/461/461 462/462/462
f 463/463/463 464/464/464 465/465/465
f 466/466/466 467/467/467 468/468/468
f 469/469/469 470/470/470 471/471/471
f 472/472/472 473/473/473 474/474/474
f 475/475/475 476/476/476 477/477/477
f 478/478/478 479/479/479 480/480/480
f 481/481/481 482/482/482 483/483/483
f 484/484/484 485/485/485 486/486/486
f 487/487/487 488/488/488 489/489/489
f 490/490/490 491/491/491 492/492/492
f 493/493/493 494/494/494 495/495/495
f 496/496/496 497/497/497 498/498/498
f 499/499/499 500/500/500 501/501/501
f 502/502/502 503/503/503 504/504/504
f 505/505/505 506/506/506 507/507/507
f 508/508/508 509/509/509 510/510/510
f 511/511/511 512/512/512 513/513/513
f 514/514/514 515/515/515 516/516/516
f 517/517/517 518/518/518 519/519/519
f 520/520/520 521/521/521 522/522/522
f 523/523/523 524/524/524 525/525/525
f 526/526/526 525/525/525 524/524/524
f 527/527/527 528/528/528 529/529/529
f 527/527/527 529/529/529 530/530/530
f 531/531/531 532/532/532 533/533/533
f 534/534/534 533/533/533 532/532/532
f 535/535/535 536/536/536 537/537/537
f 535/535/535 537/537/537 538/538/538
f 539/539/539 540/540/540 541/541/541
f 542/542/542 543/543/543 544/544/544
f 545/545/545 546/546/546 547/547/547
f 548/548/548 549/549/549 550/550/550
f 551/551/551 552/552/552 553/553/553
f 554/554/554 555/555/555 556/556/556
f 557/557/557 558/558/558 559/559/559
f 560/560/560 561/561/561 562/562/562
f 563/563/563 564/564/564 565/565/565
f 566/566/566 565/565/565 564/564/564
f 567/567/567 568/568/568 569/569/569
f 570/570/570 569/569/569 568/568/568
f 571/571/571 572/572/572 573/573/573
f 574/574/574 573/573/573 572/572/572
f 575/575/575 576/576/576 577/577/577
f 578/578/578 577/577/577 576/576/576
f 579/579/579 580/580/580 581/581/581
f 582/582/582 583/583/583 584/584/584
f 585/585/585 586/586/586 587/587/587
f 588/588/588 589/589/589 590/590/590
f 591/591/591 592/592/592 593/593/593
f 594/594/594 595/595/595 596/596/596
f 597/597/597 598/598/598 599/599/599
f 600/600/600 601/601/601 602/602/602
f 603/603/603 604/604/604 605/605/605
f 606/606/606 607/607/607 608/608/608
f 609/609/609 610/610/610 611/611/611
f 612/612/612 613/613/613 614/614/614
f 615/615/615 616/616/616 617/617/617
f 618/618/618 619/619/619 620/620/620
f 621/621/621 622/622/622 623/623/623
f 624/624/624 625/625/625 626/626/626
f 627/627/627 628/628/628 629/629/629
f 630/630/630 631/631/631 632/632/632
f 633/633/633 634/634/634 635/635/635
f 636/636/636 637/637/637 638/638/638
f 639/639/639 640/640/640 641/641/641
f 642/642/642 643/643/643 644/644/644
f 645/645/645 646/646/646 647/647/647
f 648/648/648 649/649/649 650/650/650
f 651/651/651 652/652/652 653/653/653
f 651/651/651 653/653/653 654/654/654
f 655/655/655 656/656/656 657/657/657
f 658/658/658 657/657/657 656/656/656
f 659/659/659 660/660/660 661/661/661
f 659/659/659 661/661/661 662/662/662
f 663/663/663 664/664/664 665/665/665
f 666/666/666 665/665/665 664/664/664
f 667/667/667 668/668/668 669/669/669
f 670/670/670 671/671/671 672/672/672
f 673/673/673 674/674/674 675/675/675
f 676/676/676 677/677/677 678/678/678
f 679/679/679 680/680/680 681/681/681
f 682/682/682 683/683/683 684/684/684
f 685/685/685 686/686/686 687/687/687
f 688/688/688 689/689/689 690/690/690
f 691/691/691 692/692/692 693/693/693
f 691/691/691 693/693/693 694/694/694
f 695/695/695 696/696/696 697/697/697
f 695/695/695 697/697/697 698/698/698
f 699/699/699 700/700/700 701/701/701
f 699/699/699 701/701/701 702/702/702
f 703/703/703 704/704/704 705/705/705
f 703/703/703 705/705/705 706/706/706
f 707/707/707 708/708/708 709/709/709
f 710/710/710 711/711/711 712/712/712
f 713/713/713 714/714/714 715/715/715
f 716/716/716 717/717/717 718/718/718
f 719/719/719 720/720/720 721/721/721
f 722/722/722 723/723/723 724/724/724
f 725/725/725 726/726/726 727/727/727
f 728/728/728 729/729/729 730/730/730
f 731/731/731 732/732/732 733/733/733
f 734/734/734 735/735/735 736/736/736
f 737/737/737 738/738/738 739/739/739
f 740/740/740 741/741/741 742/742/742
f 743/743/743 744/744/744 745/745/745
f 746/746/746 747/747/747 748/748/748
f 749/749/749 750/750/750 751/751/751
f 752/752/752 753/753/753 754/754/754
