# Blade | length 4 | blade -X up +Y
mtllib 06.mtl
g blade
v -0.960990 0.065024 -0.013486
v -0.917596 0.410206 -0.013486
v -0.917596 0.410206 0.031907
v -0.960990 0.065024 0.031907
v -0.831381 -0.575214 -0.013486
v -0.934056 -0.242816 -0.013486
v -0.934056 -0.242816 0.031907
v -0.831381 -0.575214 0.031907
v -0.390881 0.352655 -0.013486
v -0.249470 -0.035861 0.008881
v -0.249470 -0.035861 -0.013486
v -0.321271 -0.443034 0.008881
v -0.321271 -0.443034 -0.013486
v -0.390881 0.352655 0.008881
v -0.321271 -0.443034 0.031907
v -0.249470 -0.035861 0.031907
v -0.587026 -0.759755 0.031907
v -0.390881 0.352655 0.031907
v -0.587026 -0.759755 0.008881
v -0.587026 -0.759755 -0.013486
v -1.412865 -0.444106 -0.013486
v -1.329979 -0.345326 -0.013486
v -1.329979 -0.345326 0.031907
v -1.412865 -0.444106 0.031907
v -1.334762 0.118220 -0.013486
v -1.439009 0.239559 -0.013486
v -1.439009 0.239559 0.031907
v -1.334762 0.118220 0.031907
v -1.503942 0.091846 0.031907
v -1.518494 -0.030414 -0.013486
v -1.503942 0.091846 -0.013486
v -1.518494 -0.030414 0.031907
v -1.515040 -0.130062 -0.013486
v -1.515040 -0.130062 0.031907
v -1.501349 -0.262480 -0.013486
v -1.501349 -0.262480 0.031907
v -1.412865 -0.444106 0.031907
v -1.356669 -0.521255 -0.013486
v -1.412865 -0.444106 -0.013486
v -1.356669 -0.521255 0.031907
v -1.377083 0.313360 0.031907
v -1.439009 0.239559 -0.013486
v -1.377083 0.313360 -0.013486
v -1.439009 0.239559 0.031907
v -1.183747 0.075669 -0.013486
v -1.317289 -0.045426 -0.013486
v -1.317289 -0.045426 0.031907
v -1.183747 0.075669 0.031907
v -0.707602 0.618417 -0.013486
v -0.390881 0.352655 0.008881
v -0.390881 0.352655 -0.013486
v -1.114775 0.690211 0.031907
v -1.503297 0.548800 0.008881
v -1.503297 0.548800 0.031907
v -1.114775 0.690211 0.008881
v -1.503297 0.548800 -0.013486
v -0.707602 0.618417 0.031907
v -1.114775 0.690211 -0.013486
v -0.707602 0.618417 0.008881
v -0.390881 0.352655 0.031907
v -1.329979 -0.345326 -0.013486
v -1.501349 -0.262480 -0.013486
v -1.501349 -0.262480 0.031907
v -1.329979 -0.345326 0.031907
v -1.259659 -0.595878 -0.013486
v -1.356669 -0.521255 -0.013486
v -1.356669 -0.521255 0.031907
v -1.259659 -0.595878 0.031907
v -1.165122 -0.642318 -0.013486
v -1.165122 -0.642318 0.031907
v -1.057421 -0.670771 -0.013486
v -1.057421 -0.670771 0.031907
v -0.950233 -0.681382 -0.013486
v -0.950233 -0.681382 0.031907
v -0.648393 -0.470092 -0.013486
v -0.831381 -0.575214 -0.013486
v -0.831381 -0.575214 0.031907
v -0.648393 -0.470092 0.031907
v -0.249470 -0.035861 0.031907
v -0.719134 0.338458 0.031907
v -0.960990 0.065024 0.031907
v -0.390881 0.352655 0.031907
v -0.707602 0.618417 0.031907
v -0.917596 0.410206 0.031907
v -1.059664 0.485263 0.031907
v -1.114775 0.690211 0.031907
v -1.095308 0.411653 0.031907
v -1.187121 0.450968 0.031907
v -1.134715 0.320886 0.031907
v -1.503297 0.548800 0.031907
v -1.280658 0.401752 0.031907
v -1.377083 0.313360 0.031907
v -1.439009 0.239559 0.031907
v -1.169418 0.188442 0.031907
v -1.769059 0.232079 0.031907
v -1.183747 0.075669 0.031907
v -1.503942 0.091846 0.031907
v -1.334762 0.118220 0.031907
v -1.518494 -0.030414 0.031907
v -1.840853 -0.175094 0.031907
v -1.515040 -0.130062 0.031907
v -1.501349 -0.262480 0.031907
v -1.699443 -0.563609 0.031907
v -1.412865 -0.444106 0.031907
v -1.329979 -0.345326 0.031907
v -1.356669 -0.521255 0.031907
v -1.382721 -0.829372 0.031907
v -1.259659 -0.595878 0.031907
v -1.165122 -0.642318 0.031907
v -0.975548 -0.901166 0.031907
v -1.057421 -0.670771 0.031907
v -0.950233 -0.681382 0.031907
v -0.587026 -0.759755 0.031907
v -0.831381 -0.575214 0.031907
v -1.057632 -0.536123 0.031907
v -0.648393 -0.470092 0.031907
v -0.321271 -0.443034 0.031907
v -0.934056 -0.242816 0.031907
v -1.120663 -0.404870 0.031907
v -1.160806 -0.294755 0.031907
v -1.181477 -0.202810 0.031907
v -1.195654 -0.076866 0.031907
v -1.317289 -0.045426 0.031907
v -1.183747 0.075669 0.031907
v -1.169418 0.188442 -0.013486
v -1.183747 0.075669 -0.013486
v -1.169418 0.188442 0.031907
v -1.134715 0.320886 -0.013486
v -1.134715 0.320886 0.031907
v -1.095308 0.411653 -0.013486
v -1.095308 0.411653 0.031907
v -1.059664 0.485263 -0.013486
v -1.059664 0.485263 0.031907
v -1.195654 -0.076866 -0.013486
v -1.181477 -0.202810 -0.013486
v -1.181477 -0.202810 0.031907
v -1.160806 -0.294755 0.031907
v -1.195654 -0.076866 0.031907
v -1.160806 -0.294755 -0.013486
v -1.120663 -0.404870 0.031907
v -1.120663 -0.404870 -0.013486
v -1.057632 -0.536123 0.031907
v -1.057632 -0.536123 -0.013486
v -0.950233 -0.681382 0.031907
v -0.950233 -0.681382 -0.013486
v -1.840853 -0.175094 0.031907
v -1.699443 -0.563609 0.008881
v -1.699443 -0.563609 0.031907
v -1.840853 -0.175094 0.008881
v -1.699443 -0.563609 -0.013486
v -1.769059 0.232079 0.031907
v -1.840853 -0.175094 -0.013486
v -1.769059 0.232079 0.008881
v -1.503297 0.548800 0.031907
v -1.769059 0.232079 -0.013486
v -1.503297 0.548800 0.008881
v -1.503297 0.548800 -0.013486
v -0.719134 0.338458 -0.013486
v -0.960990 0.065024 -0.013486
v -0.960990 0.065024 0.031907
v -0.719134 0.338458 0.031907
v -1.317289 -0.045426 -0.013486
v -1.195654 -0.076866 -0.013486
v -1.195654 -0.076866 0.031907
v -1.317289 -0.045426 0.031907
v -0.975548 -0.901166 0.031907
v -0.587026 -0.759755 0.008881
v -0.587026 -0.759755 0.031907
v -0.975548 -0.901166 0.008881
v -0.587026 -0.759755 -0.013486
v -1.382721 -0.829372 0.031907
v -0.975548 -0.901166 -0.013486
v -1.382721 -0.829372 0.008881
v -1.699443 -0.563609 0.031907
v -1.382721 -0.829372 -0.013486
v -1.699443 -0.563609 0.008881
v -1.699443 -0.563609 -0.013486
v -0.648393 -0.470092 0.031907
v -0.934056 -0.242816 -0.013486
v -0.648393 -0.470092 -0.013486
v -0.934056 -0.242816 0.031907
v -1.334762 0.118220 0.031907
v -1.503942 0.091846 -0.013486
v -1.334762 0.118220 -0.013486
v -1.503942 0.091846 0.031907
v -1.377083 0.313360 -0.013486
v -1.280658 0.401752 0.031907
v -1.377083 0.313360 0.031907
v -1.280658 0.401752 -0.013486
v -1.187121 0.450968 0.031907
v -1.187121 0.450968 -0.013486
v -1.059664 0.485263 0.031907
v -1.059664 0.485263 -0.013486
v -0.917596 0.410206 -0.013486
v -0.719134 0.338458 -0.013486
v -0.719134 0.338458 0.031907
v -0.917596 0.410206 0.031907
v -0.719134 0.338458 -0.013486
v -0.249470 -0.035861 -0.013486
v -0.960990 0.065024 -0.013486
v -0.390881 0.352655 -0.013486
v -0.707602 0.618417 -0.013486
v -0.917596 0.410206 -0.013486
v -1.059664 0.485263 -0.013486
v -1.114775 0.690211 -0.013486
v -1.095308 0.411653 -0.013486
v -1.187121 0.450968 -0.013486
v -1.134715 0.320886 -0.013486
v -1.503297 0.548800 -0.013486
v -1.280658 0.401752 -0.013486
v -1.377083 0.313360 -0.013486
v -1.439009 0.239559 -0.013486
v -1.169418 0.188442 -0.013486
v -1.769059 0.232079 -0.013486
v -1.183747 0.075669 -0.013486
v -1.503942 0.091846 -0.013486
v -1.334762 0.118220 -0.013486
v -1.518494 -0.030414 -0.013486
v -1.840853 -0.175094 -0.013486
v -1.515040 -0.130062 -0.013486
v -1.501349 -0.262480 -0.013486
v -1.699443 -0.563609 -0.013486
v -1.412865 -0.444106 -0.013486
v -1.329979 -0.345326 -0.013486
v -1.356669 -0.521255 -0.013486
v -1.382721 -0.829372 -0.013486
v -1.259659 -0.595878 -0.013486
v -1.165122 -0.642318 -0.013486
v -0.975548 -0.901166 -0.013486
v -1.057421 -0.670771 -0.013486
v -0.950233 -0.681382 -0.013486
v -0.587026 -0.759755 -0.013486
v -0.831381 -0.575214 -0.013486
v -1.057632 -0.536123 -0.013486
v -0.648393 -0.470092 -0.013486
v -0.321271 -0.443034 -0.013486
v -0.934056 -0.242816 -0.013486
v -1.120663 -0.404870 -0.013486
v -1.160806 -0.294755 -0.013486
v -1.181477 -0.202810 -0.013486
v -1.195654 -0.076866 -0.013486
v -1.317289 -0.045426 -0.013486
vt 8.00432 -52.9676 
vt 8.00432 -52.902 
vt 7.99568 -52.902 
vt 7.99568 -52.9676 
vt 8.00432 -53.0893 
vt 8.00432 -53.0261 
vt 7.99568 -53.0261 
vt 7.99568 -53.0893 
vt 8.00432 -52.913 
vt 8 -52.9868 
vt 8.00432 -52.9868 
vt 8 -53.0641 
vt 8.00432 -53.0641 
vt 8 -52.913 
vt 7.99568 -53.0641 
vt 7.99568 -52.9868 
vt 7.99568 -53.1243 
vt 7.99568 -52.913 
vt 8 -53.1243 
vt 8.00432 -53.1243 
vt 8.00432 -53.0643 
vt 8.00432 -53.0456 
vt 7.99568 -53.0456 
vt 7.99568 -53.0643 
vt 8.00432 -52.9575 
vt 8.00432 -52.9344 
vt 7.99568 -52.9344 
vt 7.99568 -52.9575 
vt 7.99568 -52.9625 
vt 8.00432 -52.9857 
vt 8.00432 -52.9625 
vt 7.99568 -52.9857 
vt 8.00432 -53.0047 
vt 7.99568 -53.0047 
vt 8.00432 -53.0298 
vt 7.99568 -53.0298 
vt 7.99568 -53.0643 
vt 8.00432 -53.079 
vt 8.00432 -53.0643 
vt 7.99568 -53.079 
vt 7.99568 -52.9204 
vt 8.00432 -52.9344 
vt 8.00432 -52.9204 
vt 7.99568 -52.9344 
vt 8.02633 -53.0043 
vt 8.05171 -53.0043 
vt 8.05171 -52.9957 
vt 8.02633 -52.9957 
vt 7.93586 -53.0043 
vt 7.87568 -53 
vt 7.87568 -53.0043 
vt 8.01323 -52.9957 
vt 8.08705 -53 
vt 8.08705 -52.9957 
vt 8.01323 -53 
vt 8.08705 -53.0043 
vt 7.93586 -52.9957 
vt 8.01323 -53.0043 
vt 7.93586 -53 
vt 7.87568 -52.9957 
vt 8.05412 -53.0043 
vt 8.08668 -53.0043 
vt 8.08668 -52.9957 
vt 8.05412 -52.9957 
vt 8.04076 -53.0043 
vt 8.05919 -53.0043 
vt 8.05919 -52.9957 
vt 8.04076 -52.9957 
vt 8.02279 -53.0043 
vt 8.02279 -52.9957 
vt 8.00233 -53.0043 
vt 8.00233 -52.9957 
vt 7.98196 -53.0043 
vt 7.98196 -52.9957 
vt 7.92461 -53.0043 
vt 7.95938 -53.0043 
vt 7.95938 -52.9957 
vt 7.92461 -52.9957 
vt 8.15119 -52.9868 
vt 8.06195 -52.9156 
vt 8.01599 -52.9676 
vt 8.12432 -52.913 
vt 8.06414 -52.8625 
vt 8.02424 -52.902 
vt 7.99724 -52.8878 
vt 7.98677 -52.8488 
vt 7.99047 -52.9017 
vt 7.97303 -52.8943 
vt 7.98299 -52.919 
vt 7.91295 -52.8757 
vt 7.95525 -52.9036 
vt 7.93693 -52.9204 
vt 7.92517 -52.9344 
vt 7.97639 -52.9442 
vt 7.86246 -52.9359 
vt 7.97367 -52.9656 
vt 7.91283 -52.9625 
vt 7.94497 -52.9575 
vt 7.91006 -52.9857 
vt 7.84881 -53.0132 
vt 7.91072 -53.0047 
vt 7.91332 -53.0298 
vt 7.87568 -53.087 
vt 7.93013 -53.0643 
vt 7.94588 -53.0456 
vt 7.94081 -53.079 
vt 7.93586 -53.1375 
vt 7.95924 -53.0932 
vt 7.97721 -53.102 
vt 8.01323 -53.1512 
vt 7.99767 -53.1074 
vt 8.01804 -53.1094 
vt 8.08705 -53.1243 
vt 8.04062 -53.0893 
vt 7.99763 -53.0818 
vt 8.07539 -53.0693 
vt 8.13754 -53.0641 
vt 8.02111 -53.0261 
vt 7.98565 -53.0569 
vt 7.97803 -53.036 
vt 7.9741 -53.0185 
vt 7.97141 -52.9946 
vt 7.94829 -52.9886 
vt 8.00432 -52.9656 
vt 7.99568 -52.9442 
vt 7.99568 -52.9656 
vt 8.00432 -52.9442 
vt 7.99568 -52.919 
vt 8.00432 -52.919 
vt 7.99568 -52.9017 
vt 8.00432 -52.9017 
vt 7.99568 -52.8878 
vt 8.00432 -52.8878 
vt 7.99568 -52.9946 
vt 7.99568 -53.0185 
vt 8.00432 -53.0185 
vt 8.00432 -53.036 
vt 8.00432 -52.9946 
vt 7.99568 -53.036 
vt 8.00432 -53.0569 
vt 7.99568 -53.0569 
vt 8.00432 -53.0818 
vt 7.99568 -53.0818 
vt 8.00432 -53.1094 
vt 7.99568 -53.1094 
vt 8.00432 -53.0132 
vt 8 -53.087 
vt 8.00432 -53.087 
vt 8 -53.0132 
vt 7.99568 -53.087 
vt 8.00432 -52.9359 
vt 7.99568 -53.0132 
vt 8 -52.9359 
vt 8.00432 -52.8757 
vt 7.99568 -52.9359 
vt 8 -52.8757 
vt 7.99568 -52.8757 
vt 7.99568 -52.9156 
vt 7.99568 -52.9676 
vt 8.00432 -52.9676 
vt 8.00432 -52.9156 
vt 7.94829 -53.0043 
vt 7.97141 -53.0043 
vt 7.97141 -52.9957 
vt 7.94829 -52.9957 
vt 8.01323 -52.9957 
vt 8.08705 -53 
vt 8.08705 -52.9957 
vt 8.01323 -53 
vt 8.08705 -53.0043 
vt 7.93586 -52.9957 
vt 8.01323 -53.0043 
vt 7.93586 -53 
vt 7.87568 -52.9957 
vt 7.93586 -53.0043 
vt 7.87568 -53 
vt 7.87568 -53.0043 
vt 8.07539 -52.9957 
vt 8.02111 -53.0043 
vt 8.07539 -53.0043 
vt 8.02111 -52.9957 
vt 7.94497 -52.9957 
vt 7.91283 -53.0043 
vt 7.94497 -53.0043 
vt 7.91283 -52.9957 
vt 7.93693 -53.0043 
vt 7.95525 -52.9957 
vt 7.93693 -52.9957 
vt 7.95525 -53.0043 
vt 7.97303 -52.9957 
vt 7.97303 -53.0043 
vt 7.99724 -52.9957 
vt 7.99724 -53.0043 
vt 8.02424 -53.0043 
vt 8.06195 -53.0043 
vt 8.06195 -52.9957 
vt 8.02424 -52.9957 
vt 7.93805 -52.9156 
vt 7.84881 -52.9868 
vt 7.98401 -52.9676 
vt 7.87568 -52.913 
vt 7.93586 -52.8625 
vt 7.97576 -52.902 
vt 8.00276 -52.8878 
vt 8.01323 -52.8488 
vt 8.00953 -52.9017 
vt 8.02697 -52.8943 
vt 8.01702 -52.919 
vt 8.08705 -52.8757 
vt 8.04475 -52.9036 
vt 8.06307 -52.9204 
vt 8.07483 -52.9344 
vt 8.02361 -52.9442 
vt 8.13754 -52.9359 
vt 8.02633 -52.9656 
vt 8.08717 -52.9625 
vt 8.05503 -52.9575 
vt 8.08994 -52.9857 
vt 8.15119 -53.0132 
vt 8.08928 -53.0047 
vt 8.08668 -53.0298 
vt 8.12432 -53.087 
vt 8.06987 -53.0643 
vt 8.05412 -53.0456 
vt 8.05919 -53.079 
vt 8.06414 -53.1375 
vt 8.04076 -53.0932 
vt 8.02279 -53.102 
vt 7.98677 -53.1512 
vt 8.00233 -53.1074 
vt 7.98196 -53.1094 
vt 7.91295 -53.1243 
vt 7.95938 -53.0893 
vt 8.00237 -53.0818 
vt 7.92461 -53.0693 
vt 7.86246 -53.0641 
vt 7.97889 -53.0261 
vt 8.01435 -53.0569 
vt 8.02197 -53.036 
vt 8.0259 -53.0185 
vt 8.02859 -52.9946 
vt 8.05171 -52.9886 
vn 0.9921 -0.1260 -0.0000
vn 0.9921 -0.1260 -0.0000
vn 0.9921 -0.1260 -0.0000
vn 0.9921 -0.1260 -0.0000
vn 0.9528 0.2992 -0.0000
vn 0.9528 0.2992 -0.0000
vn 0.9528 0.2992 -0.0000
vn 0.9528 0.2992 -0.0000
vn 0.8189 0.5748 -0.0000
vn 1.0000 0.0866 -0.0000
vn 1.0000 0.0866 -0.0000
vn 0.9055 -0.4252 -0.0000
vn 0.9055 -0.4252 -0.0000
vn 0.8189 0.5748 -0.0000
vn 0.9055 -0.4252 -0.0000
vn 1.0000 0.0866 -0.0000
vn 0.5748 -0.8189 -0.0000
vn 0.8189 0.5748 -0.0000
vn 0.5748 -0.8189 -0.0000
vn 0.5748 -0.8189 -0.0000
vn 0.7638 -0.6457 -0.0000
vn 0.7638 -0.6457 -0.0000
vn 0.7638 -0.6457 -0.0000
vn 0.7638 -0.6457 -0.0000
vn 0.7559 0.6535 -0.0000
vn 0.7559 0.6535 -0.0000
vn 0.7559 0.6535 -0.0000
vn 0.7559 0.6535 -0.0000
vn 0.9921 -0.1181 -0.0000
vn 1.0000 -0.0394 -0.0000
vn 0.9921 -0.1181 -0.0000
vn 1.0000 -0.0394 -0.0000
vn 1.0000 0.0709 -0.0000
vn 1.0000 0.0709 -0.0000
vn 0.9921 0.1024 -0.0000
vn 0.9921 0.1024 -0.0000
vn 0.8110 0.5906 -0.0000
vn 0.7165 0.7008 -0.0000
vn 0.8110 0.5906 -0.0000
vn 0.7165 0.7008 -0.0000
vn 0.7244 -0.6929 -0.0000
vn 0.7638 -0.6457 -0.0000
vn 0.7244 -0.6929 -0.0000
vn 0.7638 -0.6457 -0.0000
vn -0.8898 0.4646 -0.0000
vn -0.6693 0.7402 -0.0000
vn -0.6693 0.7402 -0.0000
vn -0.8898 0.4646 -0.0000
vn 0.4252 0.9055 -0.0000
vn 0.8189 0.5748 -0.0000
vn 0.8189 0.5748 -0.0000
vn -0.0866 1.0000 -0.0000
vn -0.5748 0.8189 -0.0000
vn -0.5748 0.8189 -0.0000
vn -0.0866 1.0000 -0.0000
vn -0.5748 0.8189 -0.0000
vn 0.4252 0.9055 -0.0000
vn -0.0866 1.0000 -0.0000
vn 0.4252 0.9055 -0.0000
vn 0.8189 0.5748 -0.0000
vn 0.4331 0.8976 -0.0000
vn 0.4331 0.8976 -0.0000
vn 0.4331 0.8976 -0.0000
vn 0.4331 0.8976 -0.0000
vn 0.5276 0.8504 -0.0000
vn 0.7165 0.7008 -0.0000
vn 0.7165 0.7008 -0.0000
vn 0.5276 0.8504 -0.0000
vn 0.3465 0.9370 -0.0000
vn 0.3465 0.9370 -0.0000
vn 0.1811 0.9843 -0.0000
vn 0.1811 0.9843 -0.0000
vn 0.0945 0.9921 -0.0000
vn 0.0945 0.9921 -0.0000
vn -0.4961 0.8661 -0.0000
vn -0.4961 0.8661 -0.0000
vn -0.4961 0.8661 -0.0000
vn -0.4961 0.8661 -0.0000
vn 0.0000 0.0000 1.0000
vn 0.0000 0.0000 1.0000
vn 0.0000 0.0000 1.0000
vn 0.0000 0.0000 1.0000
vn 0.0000 0.0000 1.0000
vn 0.0000 0.0000 1.0000
vn 0.0000 0.0000 1.0000
vn 0.0000 0.0000 1.0000
vn 0.0000 0.0000 1.0000
vn 0.0000 0.0000 1.0000
vn 0.0000 0.0000 1.0000
vn 0.0000 0.0000 1.0000
vn 0.0000 0.0000 1.0000
vn 0.0000 0.0000 1.0000
vn 0.0000 0.0000 1.0000
vn 0.0000 0.0000 1.0000
vn 0.0000 0.0000 1.0000
vn 0.0000 0.0000 1.0000
vn 0.0000 0.0000 1.0000
vn 0.0000 0.0000 1.0000
vn 0.0000 0.0000 1.0000
vn 0.0000 0.0000 1.0000
vn 0.0000 0.0000 1.0000
vn 0.0000 0.0000 1.0000
vn 0.0000 0.0000 1.0000
vn 0.0000 0.0000 1.0000
vn 0.0000 0.0000 1.0000
vn 0.0000 0.0000 1.0000
vn 0.0000 0.0000 1.0000
vn 0.0000 0.0000 1.0000
vn 0.0000 0.0000 1.0000
vn 0.0000 0.0000 1.0000
vn 0.0000 0.0000 1.0000
vn 0.0000 0.0000 1.0000
vn 0.0000 0.0000 1.0000
vn 0.0000 0.0000 1.0000
vn 0.0000 0.0000 1.0000
vn 0.0000 0.0000 1.0000
vn 0.0000 0.0000 1.0000
vn 0.0000 0.0000 1.0000
vn 0.0000 0.0000 1.0000
vn 0.0000 0.0000 1.0000
vn 0.0000 0.0000 1.0000
vn 0.0000 0.0000 1.0000
vn 0.0000 0.0000 1.0000
vn -0.8898 0.4646 -0.0000
vn -0.9843 0.1890 -0.0000
vn -0.8898 0.4646 -0.0000
vn -0.9843 0.1890 -0.0000
vn -0.9449 0.3228 -0.0000
vn -0.9449 0.3228 -0.0000
vn -0.9055 0.4173 -0.0000
vn -0.9055 0.4173 -0.0000
vn -0.8976 0.4331 -0.0000
vn -0.8976 0.4331 -0.0000
vn -0.7559 -0.6535 -0.0000
vn -0.9843 -0.1654 -0.0000
vn -0.9843 -0.1654 -0.0000
vn -0.9606 -0.2835 -0.0000
vn -0.7559 -0.6535 -0.0000
vn -0.9606 -0.2835 -0.0000
vn -0.9213 -0.3858 -0.0000
vn -0.9213 -0.3858 -0.0000
vn -0.8583 -0.5197 -0.0000
vn -0.8583 -0.5197 -0.0000
vn -0.8032 -0.5984 -0.0000
vn -0.8032 -0.5984 -0.0000
vn -1.0000 -0.0866 -0.0000
vn -0.8189 -0.5748 -0.0000
vn -0.8189 -0.5748 -0.0000
vn -1.0000 -0.0866 -0.0000
vn -0.8189 -0.5748 -0.0000
vn -0.9055 0.4252 -0.0000
vn -1.0000 -0.0866 -0.0000
vn -0.9055 0.4252 -0.0000
vn -0.5748 0.8189 -0.0000
vn -0.9055 0.4252 -0.0000
vn -0.5748 0.8189 -0.0000
vn -0.5748 0.8189 -0.0000
vn -0.7480 0.6614 -0.0000
vn -0.7480 0.6614 -0.0000
vn -0.7480 0.6614 -0.0000
vn -0.7480 0.6614 -0.0000
vn -0.2520 -0.9685 -0.0000
vn -0.7559 -0.6535 -0.0000
vn -0.7559 -0.6535 -0.0000
vn -0.2520 -0.9685 -0.0000
vn 0.0866 -1.0000 -0.0000
vn 0.5748 -0.8189 -0.0000
vn 0.5748 -0.8189 -0.0000
vn 0.0866 -1.0000 -0.0000
vn 0.5748 -0.8189 -0.0000
vn -0.4252 -0.9055 -0.0000
vn 0.0866 -1.0000 -0.0000
vn -0.4252 -0.9055 -0.0000
vn -0.8189 -0.5748 -0.0000
vn -0.4252 -0.9055 -0.0000
vn -0.8189 -0.5748 -0.0000
vn -0.8189 -0.5748 -0.0000
vn -0.6220 -0.7795 -0.0000
vn -0.6220 -0.7795 -0.0000
vn -0.6220 -0.7795 -0.0000
vn -0.6220 -0.7795 -0.0000
vn 0.1575 -0.9843 -0.0000
vn 0.1575 -0.9843 -0.0000
vn 0.1575 -0.9843 -0.0000
vn 0.1575 -0.9843 -0.0000
vn 0.7244 -0.6929 -0.0000
vn 0.5748 -0.8189 -0.0000
vn 0.7244 -0.6929 -0.0000
vn 0.5748 -0.8189 -0.0000
vn 0.3622 -0.9291 -0.0000
vn 0.3622 -0.9291 -0.0000
vn 0.2598 -0.9685 -0.0000
vn 0.2598 -0.9685 -0.0000
vn -0.3386 -0.9370 -0.0000
vn -0.3386 -0.9370 -0.0000
vn -0.3386 -0.9370 -0.0000
vn -0.3386 -0.9370 -0.0000
vn 0.0000 0.0000 -1.0000
vn 0.0000 0.0000 -1.0000
vn 0.0000 0.0000 -1.0000
vn 0.0000 0.0000 -1.0000
vn 0.0000 0.0000 -1.0000
vn 0.0000 0.0000 -1.0000
vn 0.0000 0.0000 -1.0000
vn 0.0000 0.0000 -1.0000
vn 0.0000 0.0000 -1.0000
vn 0.0000 0.0000 -1.0000
vn 0.0000 0.0000 -1.0000
vn 0.0000 0.0000 -1.0000
vn 0.0000 0.0000 -1.0000
vn 0.0000 0.0000 -1.0000
vn 0.0000 0.0000 -1.0000
vn 0.0000 0.0000 -1.0000
vn 0.0000 0.0000 -1.0000
vn 0.0000 0.0000 -1.0000
vn 0.0000 0.0000 -1.0000
vn 0.0000 0.0000 -1.0000
vn 0.0000 0.0000 -1.0000
vn 0.0000 0.0000 -1.0000
vn 0.0000 0.0000 -1.0000
vn 0.0000 0.0000 -1.0000
vn 0.0000 0.0000 -1.0000
vn 0.0000 0.0000 -1.0000
vn 0.0000 0.0000 -1.0000
vn 0.0000 0.0000 -1.0000
vn 0.0000 0.0000 -1.0000
vn 0.0000 0.0000 -1.0000
vn 0.0000 0.0000 -1.0000
vn 0.0000 0.0000 -1.0000
vn 0.0000 0.0000 -1.0000
vn 0.0000 0.0000 -1.0000
vn 0.0000 0.0000 -1.0000
vn 0.0000 0.0000 -1.0000
vn 0.0000 0.0000 -1.0000
vn 0.0000 0.0000 -1.0000
vn 0.0000 0.0000 -1.0000
vn 0.0000 0.0000 -1.0000
vn 0.0000 0.0000 -1.0000
vn 0.0000 0.0000 -1.0000
vn 0.0000 0.0000 -1.0000
vn 0.0000 0.0000 -1.0000
vn 0.0000 0.0000 -1.0000
usemtl Meshpart3Mtl
f 1/1/1 2/2/2 3/3/3
f 1/1/1 3/3/3 4/4/4
f 5/5/5 6/6/6 7/7/7
f 5/5/5 7/7/7 8/8/8
f 9/9/9 10/10/10 11/11/11
f 12/12/12 11/11/11 10/10/10
f 11/11/11 12/12/12 13/13/13
f 10/10/10 9/9/9 14/14/14
f 10/10/10 15/15/15 12/12/12
f 15/15/15 10/10/10 16/16/16
f 14/14/14 16/16/16 10/10/10
f 17/17/17 12/12/12 15/15/15
f 16/16/16 14/14/14 18/18/18
f 12/12/12 17/17/17 19/19/19
f 19/19/19 13/13/13 12/12/12
f 13/13/13 19/19/19 20/20/20
f 21/21/21 22/22/22 23/23/23
f 21/21/21 23/23/23 24/24/24
f 25/25/25 26/26/26 27/27/27
f 25/25/25 27/27/27 28/28/28
f 29/29/29 30/30/30 31/31/31
f 30/30/30 29/29/29 32/32/32
f 32/32/32 33/33/33 30/30/30
f 33/33/33 32/32/32 34/34/34
f 35/35/35 33/33/33 34/34/34
f 35/35/35 34/34/34 36/36/36
f 37/37/37 38/38/38 39/39/39
f 38/38/38 37/37/37 40/40/40
f 41/41/41 42/42/42 43/43/43
f 42/42/42 41/41/41 44/44/44
f 45/45/45 46/46/46 47/47/47
f 45/45/45 47/47/47 48/48/48
f 49/49/49 50/50/50 51/51/51
f 52/52/52 53/53/53 54/54/54
f 53/53/53 52/52/52 55/55/55
f 55/55/55 56/56/56 53/53/53
f 57/57/57 55/55/55 52/52/52
f 56/56/56 55/55/55 58/58/58
f 55/55/55 57/57/57 59/59/59
f 59/59/59 58/58/58 55/55/55
f 60/60/60 59/59/59 57/57/57
f 58/58/58 59/59/59 49/49/49
f 59/59/59 60/60/60 50/50/50
f 50/50/50 49/49/49 59/59/59
f 61/61/61 62/62/62 63/63/63
f 61/61/61 63/63/63 64/64/64
f 65/65/65 66/66/66 67/67/67
f 65/65/65 67/67/67 68/68/68
f 69/69/69 65/65/65 68/68/68
f 69/69/69 68/68/68 70/70/70
f 70/70/70 71/71/71 69/69/69
f 71/71/71 70/70/70 72/72/72
f 73/73/73 71/71/71 72/72/72
f 73/73/73 72/72/72 74/74/74
f 75/75/75 76/76/76 77/77/77
f 75/75/75 77/77/77 78/78/78
f 79/79/79 80/80/80 81/81/81
f 80/80/80 79/79/79 82/82/82
f 83/83/83 80/80/80 82/82/82
f 80/80/80 83/83/83 84/84/84
f 83/83/83 85/85/85 84/84/84
f 85/85/85 83/83/83 86/86/86
f 87/87/87 84/84/84 85/85/85
f 86/86/86 88/88/88 85/85/85
f 89/89/89 84/84/84 87/87/87
f 89/89/89 81/81/81 84/84/84
f 90/90/90 88/88/88 86/86/86
f 88/88/88 90/90/90 91/91/91
f 90/90/90 92/92/92 91/91/91
f 90/90/90 93/93/93 92/92/92
f 81/81/81 89/89/89 94/94/94
f 93/93/93 90/90/90 95/95/95
f 96/96/96 81/81/81 94/94/94
f 95/95/95 97/97/97 93/93/93
f 98/98/98 93/93/93 97/97/97
f 95/95/95 99/99/99 97/97/97
f 100/100/100 99/99/99 95/95/95
f 99/99/99 100/100/100 101/101/101
f 101/101/101 100/100/100 102/102/102
f 103/103/103 102/102/102 100/100/100
f 102/102/102 103/103/103 104/104/104
f 105/105/105 102/102/102 104/104/104
f 104/104/104 103/103/103 106/106/106
f 107/107/107 106/106/106 103/103/103
f 106/106/106 107/107/107 108/108/108
f 107/107/107 109/109/109 108/108/108
f 109/109/109 107/107/107 110/110/110
f 110/110/110 111/111/111 109/109/109
f 110/110/110 112/112/112 111/111/111
f 110/110/110 113/113/113 112/112/112
f 114/114/114 112/112/112 113/113/113
f 112/112/112 114/114/114 115/115/115
f 113/113/113 116/116/116 114/114/114
f 116/116/116 113/113/113 117/117/117
f 79/79/79 116/116/116 117/117/117
f 118/118/118 115/115/115 114/114/114
f 116/116/116 79/79/79 118/118/118
f 115/115/115 118/118/118 119/119/119
f 119/119/119 118/118/118 120/120/120
f 118/118/118 121/121/121 120/120/120
f 118/118/118 79/79/79 81/81/81
f 121/121/121 118/118/118 122/122/122
f 81/81/81 122/122/122 118/118/118
f 122/122/122 81/81/81 96/96/96
f 96/96/96 123/123/123 122/122/122
f 124/124/124 125/125/125 126/126/126
f 125/125/125 124/124/124 127/127/127
f 128/128/128 125/125/125 127/127/127
f 128/128/128 127/127/127 129/129/129
f 130/130/130 128/128/128 129/129/129
f 130/130/130 129/129/129 131/131/131
f 131/131/131 132/132/132 130/130/130
f 132/132/132 131/131/131 133/133/133
f 134/134/134 135/135/135 136/136/136
f 135/135/135 137/137/137 136/136/136
f 134/134/134 136/136/136 138/138/138
f 135/135/135 139/139/139 137/137/137
f 139/139/139 140/140/140 137/137/137
f 139/139/139 141/141/141 140/140/140
f 141/141/141 142/142/142 140/140/140
f 141/141/141 143/143/143 142/142/142
f 143/143/143 144/144/144 142/142/142
f 143/143/143 145/145/145 144/144/144
f 146/146/146 147/147/147 148/148/148
f 147/147/147 146/146/146 149/149/149
f 149/149/149 150/150/150 147/147/147
f 151/151/151 149/149/149 146/146/146
f 150/150/150 149/149/149 152/152/152
f 149/149/149 151/151/151 153/153/153
f 153/153/153 152/152/152 149/149/149
f 154/154/154 153/153/153 151/151/151
f 152/152/152 153/153/153 155/155/155
f 153/153/153 154/154/154 156/156/156
f 156/156/156 155/155/155 153/153/153
f 155/155/155 156/156/156 157/157/157
f 158/158/158 159/159/159 160/160/160
f 158/158/158 160/160/160 161/161/161
f 162/162/162 163/163/163 164/164/164
f 162/162/162 164/164/164 165/165/165
f 166/166/166 167/167/167 168/168/168
f 167/167/167 166/166/166 169/169/169
f 169/169/169 170/170/170 167/167/167
f 171/171/171 169/169/169 166/166/166
f 170/170/170 169/169/169 172/172/172
f 169/169/169 171/171/171 173/173/173
f 173/173/173 172/172/172 169/169/169
f 174/174/174 173/173/173 171/171/171
f 172/172/172 173/173/173 175/175/175
f 173/173/173 174/174/174 176/176/176
f 176/176/176 175/175/175 173/173/173
f 175/175/175 176/176/176 177/177/177
f 178/178/178 179/179/179 180/180/180
f 179/179/179 178/178/178 181/181/181
f 182/182/182 183/183/183 184/184/184
f 183/183/183 182/182/182 185/185/185
f 186/186/186 187/187/187 188/188/188
f 186/186/186 189/189/189 187/187/187
f 189/189/189 190/190/190 187/187/187
f 189/189/189 191/191/191 190/190/190
f 191/191/191 192/192/192 190/190/190
f 192/192/192 191/191/191 193/193/193
f 194/194/194 195/195/195 196/196/196
f 194/194/194 196/196/196 197/197/197
f 198/198/198 199/199/199 200/200/200
f 199/199/199 198/198/198 201/201/201
f 202/202/202 201/201/201 198/198/198
f 198/198/198 203/203/203 202/202/202
f 203/203/203 204/204/204 202/202/202
f 205/205/205 202/202/202 204/204/204
f 204/204/204 203/203/203 206/206/206
f 205/205/205 204/204/204 207/207/207
f 206/206/206 203/203/203 208/208/208
f 200/200/200 208/208/208 203/203/203
f 207/207/207 209/209/209 205/205/205
f 209/209/209 207/207/207 210/210/210
f 211/211/211 209/209/209 210/210/210
f 212/212/212 209/209/209 211/211/211
f 208/208/208 200/200/200 213/213/213
f 209/209/209 212/212/212 214/214/214
f 200/200/200 215/215/215 213/213/213
f 216/216/216 214/214/214 212/212/212
f 217/217/217 216/216/216 212/212/212
f 218/218/218 214/214/214 216/216/216
f 214/214/214 218/218/218 219/219/219
f 220/220/220 219/219/219 218/218/218
f 221/221/221 219/219/219 220/220/220
f 219/219/219 221/221/221 222/222/222
f 221/221/221 223/223/223 222/222/222
f 223/223/223 221/221/221 224/224/224
f 222/222/222 223/223/223 225/225/225
f 225/225/225 226/226/226 222/222/222
f 226/226/226 225/225/225 227/227/227
f 228/228/228 226/226/226 227/227/227
f 226/226/226 228/228/228 229/229/229
f 229/229/229 228/228/228 230/230/230
f 229/229/229 230/230/230 231/231/231
f 231/231/231 232/232/232 229/229/229
f 232/232/232 231/231/231 233/233/233
f 234/234/234 233/233/233 231/231/231
f 235/235/235 232/232/232 233/233/233
f 236/236/236 232/232/232 235/235/235
f 235/235/235 199/199/199 236/236/236
f 234/234/234 237/237/237 233/233/233
f 237/237/237 199/199/199 235/235/235
f 238/238/238 237/237/237 234/234/234
f 237/237/237 238/238/238 239/239/239
f 240/240/240 237/237/237 239/239/239
f 200/200/200 199/199/199 237/237/237
f 241/241/241 237/237/237 240/240/240
f 237/237/237 241/241/241 200/200/200
f 215/215/215 200/200/200 241/241/241
f 241/241/241 242/242/242 215/215/215
