# Cord | length 4 | blade -X up +Y
mtllib 06.mtl
g cord
v 1.337361 0.316136 0.474658
v 1.369853 0.227250 0.396370
v 1.337361 0.316136 0.402949
v 1.369853 0.227250 0.481237
v 1.395116 0.129510 0.396370
v 1.395116 0.129510 0.481237
v 1.409753 0.036012 0.474658
v 1.409753 0.036012 0.402949
v 1.237969 0.290452 0.402949
v 1.237969 0.290452 0.474658
v 1.337361 0.316136 0.402949
v 1.337361 0.316136 0.474658
v 1.252613 0.196955 0.396370
v 1.228574 0.173581 0.467421
v 1.252613 0.196955 0.481237
v 1.228574 0.173581 0.410844
v 1.127584 0.147476 0.410844
v 1.127584 0.147476 0.467421
v 1.337361 0.316136 0.474658
v 1.237969 0.290452 0.474658
v 1.369853 0.227250 0.481237
v 1.252613 0.196955 0.481237
v 1.277869 0.099208 0.481237
v 1.395116 0.129510 0.481237
v 1.409753 0.036012 0.474658
v 1.310368 0.010322 0.474658
v 1.245521 0.108010 0.467421
v 1.228574 0.173581 0.467421
v 1.144524 0.081912 0.467421
v 1.127584 0.147476 0.467421
v 1.127584 0.147476 0.410844
v 1.144524 0.081912 0.410844
v 1.144524 0.081912 0.467421
v 1.127584 0.147476 0.467421
v 1.277869 0.099208 0.396370
v 1.310368 0.010322 0.402949
v 1.310368 0.010322 0.474658
v 1.277869 0.099208 0.481237
v 1.252613 0.196955 0.396370
v 1.237969 0.290452 0.474658
v 1.237969 0.290452 0.402949
v 1.252613 0.196955 0.481237
v 1.409753 0.036012 0.474658
v 1.310368 0.010322 0.402949
v 1.409753 0.036012 0.402949
v 1.310368 0.010322 0.474658
v 1.277869 0.099208 0.396370
v 1.277869 0.099208 0.481237
v 1.245521 0.108010 0.467421
v 1.245521 0.108010 0.410844
v 1.144524 0.081912 0.467421
v 1.144524 0.081912 0.410844
v 1.237969 0.290452 0.402949
v 1.369853 0.227250 0.396370
v 1.252613 0.196955 0.396370
v 1.337361 0.316136 0.402949
v 1.277869 0.099208 0.396370
v 1.395116 0.129510 0.396370
v 1.409753 0.036012 0.402949
v 1.310368 0.010322 0.402949
v 1.245521 0.108010 0.410844
v 1.228574 0.173581 0.410844
v 1.144524 0.081912 0.410844
v 1.127584 0.147476 0.410844
vt 35.9932 -14.9709 
vt 36.008 -14.9878 
vt 36.0068 -14.9709 
vt 35.992 -14.9878 
vt 36.008 -15.0064 
vt 35.992 -15.0064 
vt 35.9932 -15.0242 
vt 36.0068 -15.0242 
vt 36.0058 -15.0068 
vt 36.0058 -14.9932 
vt 35.9869 -15.0068 
vt 35.9869 -14.9932 
vt 36.0031 -15.008 
vt 36.0076 -14.9946 
vt 36.0031 -14.992 
vt 36.0076 -15.0054 
vt 36.0268 -15.0054 
vt 36.0268 -14.9946 
vt 36.0131 -14.9709 
vt 35.9942 -14.9758 
vt 36.0192 -14.9878 
vt 35.9969 -14.9936 
vt 36.0017 -15.0122 
vt 36.024 -15.0064 
vt 36.0268 -15.0242 
vt 36.0079 -15.0291 
vt 35.9956 -15.0105 
vt 35.9924 -14.998 
vt 35.9764 -15.0155 
vt 35.9732 -15.003 
vt 35.9946 -15.003 
vt 35.9946 -15.0155 
vt 36.0054 -15.0155 
vt 36.0054 -15.003 
vt 35.992 -15.0122 
vt 35.9932 -15.0291 
vt 36.0068 -15.0291 
vt 36.008 -15.0122 
vt 35.992 -14.9936 
vt 36.0068 -14.9758 
vt 35.9932 -14.9758 
vt 36.008 -14.9936 
vt 36.0268 -14.9932 
vt 36.0079 -15.0068 
vt 36.0268 -15.0068 
vt 36.0079 -14.9932 
vt 36.0017 -15.008 
vt 36.0017 -14.992 
vt 35.9956 -14.9946 
vt 35.9956 -15.0054 
vt 35.9764 -14.9946 
vt 35.9764 -15.0054 
vt 36.0058 -14.9758 
vt 35.9808 -14.9878 
vt 36.0031 -14.9936 
vt 35.9869 -14.9709 
vt 35.9983 -15.0122 
vt 35.976 -15.0064 
vt 35.9732 -15.0242 
vt 35.9921 -15.0291 
vt 36.0044 -15.0105 
vt 36.0076 -14.998 
vt 36.0236 -15.0155 
vt 36.0268 -15.003 
vn 0.9370 0.3465 -0.0000
vn 0.9528 0.2992 -0.0000
vn 0.9370 0.3465 -0.0000
vn 0.9528 0.2992 -0.0000
vn 0.9764 0.2047 -0.0000
vn 0.9764 0.2047 -0.0000
vn 0.9843 0.1575 -0.0000
vn 0.9843 0.1575 -0.0000
vn -0.2520 0.9685 -0.0000
vn -0.2520 0.9685 -0.0000
vn -0.2520 0.9685 -0.0000
vn -0.2520 0.9685 -0.0000
vn -0.9685 0.2598 -0.0000
vn -0.5197 0.8583 -0.0000
vn -0.9685 0.2598 -0.0000
vn -0.5197 0.8583 -0.0000
vn -0.2520 0.9685 -0.0000
vn -0.2520 0.9685 -0.0000
vn -0.0157 0.0630 1.0000
vn -0.0157 0.0630 1.0000
vn -0.0079 0.0315 1.0000
vn -0.1181 -0.0079 0.9921
vn -0.1102 -0.0551 0.9921
vn 0.0079 -0.0315 1.0000
vn 0.0157 -0.0630 1.0000
vn 0.0157 -0.0630 1.0000
vn -0.2441 -0.0630 0.9685
vn -0.2441 -0.0630 0.9685
vn 0.0000 0.0000 1.0000
vn 0.0000 0.0000 1.0000
vn -0.9685 -0.2520 -0.0000
vn -0.9685 -0.2520 -0.0000
vn -0.9685 -0.2520 -0.0000
vn -0.9685 -0.2520 -0.0000
vn -0.7244 -0.6929 -0.0000
vn -0.9370 -0.3465 -0.0000
vn -0.9370 -0.3465 -0.0000
vn -0.7244 -0.6929 -0.0000
vn -0.9685 0.2598 -0.0000
vn -0.9843 -0.1575 -0.0000
vn -0.9843 -0.1575 -0.0000
vn -0.9685 0.2598 -0.0000
vn 0.2520 -0.9685 -0.0000
vn 0.2520 -0.9685 -0.0000
vn 0.2520 -0.9685 -0.0000
vn 0.2520 -0.9685 -0.0000
vn -0.7244 -0.6929 -0.0000
vn -0.7244 -0.6929 -0.0000
vn -0.0394 -1.0000 -0.0000
vn -0.0394 -1.0000 -0.0000
vn 0.2520 -0.9685 -0.0000
vn 0.2520 -0.9685 -0.0000
vn -0.0157 0.0630 -1.0000
vn -0.0079 0.0315 -1.0000
vn -0.1181 -0.0079 -0.9921
vn -0.0157 0.0630 -1.0000
vn -0.1102 -0.0551 -0.9921
vn 0.0079 -0.0315 -1.0000
vn 0.0157 -0.0630 -1.0000
vn 0.0157 -0.0630 -1.0000
vn -0.2441 -0.0630 -0.9685
vn -0.2441 -0.0630 -0.9685
vn 0.0000 0.0000 -1.0000
vn 0.0000 0.0000 -1.0000
usemtl Meshpart1Mtl
f 1/1/1 2/2/2 3/3/3
f 2/2/2 1/1/1 4/4/4
f 4/4/4 5/5/5 2/2/2
f 5/5/5 4/4/4 6/6/6
f 7/7/7 5/5/5 6/6/6
f 5/5/5 7/7/7 8/8/8
f 9/9/9 10/10/10 11/11/11
f 11/11/11 10/10/10 12/12/12
f 13/13/13 14/14/14 15/15/15
f 14/14/14 13/13/13 16/16/16
f 17/17/17 14/14/14 16/16/16
f 14/14/14 17/17/17 18/18/18
f 19/19/19 20/20/20 21/21/21
f 22/22/22 21/21/21 20/20/20
f 23/23/23 21/21/21 22/22/22
f 21/21/21 23/23/23 24/24/24
f 24/24/24 23/23/23 25/25/25
f 25/25/25 23/23/23 26/26/26
f 22/22/22 27/27/27 23/23/23
f 27/27/27 22/22/22 28/28/28
f 28/28/28 29/29/29 27/27/27
f 29/29/29 28/28/28 30/30/30
f 31/31/31 32/32/32 33/33/33
f 31/31/31 33/33/33 34/34/34
f 35/35/35 36/36/36 37/37/37
f 35/35/35 37/37/37 38/38/38
f 39/39/39 40/40/40 41/41/41
f 40/40/40 39/39/39 42/42/42
f 43/43/43 44/44/44 45/45/45
f 44/44/44 43/43/43 46/46/46
f 47/47/47 48/48/48 49/49/49
f 49/49/49 50/50/50 47/47/47
f 49/49/49 51/51/51 50/50/50
f 52/52/52 50/50/50 51/51/51
f 53/53/53 54/54/54 55/55/55
f 54/54/54 53/53/53 56/56/56
f 54/54/54 57/57/57 55/55/55
f 57/57/57 54/54/54 58/58/58
f 59/59/59 57/57/57 58/58/58
f 57/57/57 59/59/59 60/60/60
f 55/55/55 57/57/57 61/61/61
f 55/55/55 61/61/61 62/62/62
f 62/62/62 61/61/61 63/63/63
f 64/64/64 62/62/62 63/63/63
