# Teeth | length 4 | blade -X up +Y
mtllib 06.mtl
g teeth
v -0.101408 0.036407 0.008881
v -0.282127 -0.173535 0.027302
v -0.282127 -0.173535 -0.008881
v -0.476575 0.663185 0.008881
v -0.455918 0.386950 0.027302
v -0.455918 0.386950 -0.008881
v -0.244260 0.415390 0.008881
v -0.321652 0.149410 0.027302
v -0.321652 0.149410 -0.008881
v -0.845565 0.830161 0.008881
v -0.712214 0.587359 0.027302
v -0.712214 0.587359 -0.008881
v -0.877341 -0.845634 -0.008881
v -0.877341 -0.845634 0.027302
v -0.906110 -1.047240 0.008881
v -0.401545 -0.509177 -0.008881
v -0.401545 -0.509177 0.027302
v -0.279331 -0.672080 0.008881
v -0.584553 -0.709006 -0.008881
v -0.584553 -0.709006 0.027302
v -0.527127 -0.904389 0.008881
v -1.148050 -0.857529 -0.008881
v -1.148050 -0.857529 0.027302
v -1.245600 -1.036293 0.008881
v -1.809038 -0.032604 0.027302
v -1.788151 -0.271308 0.027302
v -1.809038 -0.032604 -0.008881
v -1.788151 -0.271308 -0.008881
v -1.689627 0.303044 -0.008881
v -1.535599 0.486598 -0.008881
v -1.535599 0.486598 0.027302
v -1.689627 0.303044 0.027302
v -1.769520 -0.355549 0.027302
v -1.651523 -0.564103 0.027302
v -1.769520 -0.355549 -0.008881
v -1.651523 -0.564103 -0.008881
v -1.800045 -0.000605 -0.008881
v -1.736014 0.230303 -0.008881
v -1.736014 0.230303 0.027302
v -1.800045 -0.000605 0.027302
v -1.185056 0.841108 0.008881
v -0.975121 0.660383 0.027302
v -0.975121 0.660383 -0.008881
v -1.811841 0.465941 0.008881
v -1.535599 0.486598 0.027302
v -1.535599 0.486598 -0.008881
v -1.564045 0.698257 0.008881
v -1.298066 0.620864 0.027302
v -1.298066 0.620864 -0.008881
v -1.978810 0.096951 0.008881
v -1.736014 0.230303 0.027302
v -1.736014 0.230303 -0.008881
v -0.303015 0.065176 0.027302
v -0.101408 0.036407 0.008881
v -0.303015 0.065176 -0.008881
v -0.639472 0.540972 0.027302
v -0.476575 0.663185 0.008881
v -0.639472 0.540972 -0.008881
v -0.439642 0.357964 0.027302
v -0.244260 0.415390 0.008881
v -0.439642 0.357964 -0.008881
v -0.291120 -0.205534 -0.008881
v -0.291120 -0.205534 0.027302
v -0.112355 -0.303084 0.008881
v -1.116051 -0.866522 0.027302
v -0.877341 -0.845634 0.027302
v -1.116051 -0.866522 -0.008881
v -0.877341 -0.845634 -0.008881
v -1.635254 -0.593082 0.027302
v -1.451693 -0.747111 0.027302
v -1.635254 -0.593082 -0.008881
v -1.451693 -0.747111 -0.008881
v -0.793106 -0.827003 0.027302
v -0.584553 -0.709006 0.027302
v -0.793106 -0.827003 -0.008881
v -0.584553 -0.709006 -0.008881
v -1.378952 -0.793498 0.027302
v -1.148050 -0.857529 0.027302
v -1.378952 -0.793498 -0.008881
v -1.148050 -0.857529 -0.008881
v -0.282127 -0.173535 0.027302
v -0.101408 0.036407 0.008881
v -0.303015 0.065176 0.027302
v -1.788151 -0.271308 0.027302
v -1.809038 -0.032604 0.027302
v -1.989757 -0.242539 0.008881
v -0.975121 0.660383 0.027302
v -1.185056 0.841108 0.008881
v -1.213825 0.639502 0.027302
v -0.877341 -0.845634 0.027302
v -1.116051 -0.866522 0.027302
v -0.906110 -1.047240 0.008881
v -0.455918 0.386950 0.027302
v -0.476575 0.663185 0.008881
v -0.639472 0.540972 0.027302
v -1.451693 -0.747111 0.027302
v -1.635254 -0.593082 0.027302
v -1.614596 -0.869324 0.008881
v -1.535599 0.486598 0.027302
v -1.811841 0.465941 0.008881
v -1.689627 0.303044 0.027302
v -0.401545 -0.509177 0.027302
v -0.555567 -0.692737 0.027302
v -0.279331 -0.672080 0.008881
v -0.321652 0.149410 0.027302
v -0.244260 0.415390 0.008881
v -0.439642 0.357964 0.027302
v -1.651523 -0.564103 0.027302
v -1.769520 -0.355549 0.027302
v -1.846906 -0.621529 0.008881
v -1.298066 0.620864 0.027302
v -1.564045 0.698257 0.008881
v -1.506612 0.502874 0.027302
v -0.584553 -0.709006 0.027302
v -0.793106 -0.827003 0.027302
v -0.527127 -0.904389 0.008881
v -0.712214 0.587359 0.027302
v -0.845565 0.830161 0.008881
v -0.943115 0.651396 0.027302
v -1.148050 -0.857529 0.027302
v -1.378952 -0.793498 0.027302
v -1.245600 -1.036293 0.008881
v -1.736014 0.230303 0.027302
v -1.978810 0.096951 0.008881
v -1.800045 -0.000605 0.027302
v -0.291120 -0.205534 0.027302
v -0.355158 -0.436435 0.027302
v -0.112355 -0.303084 0.008881
v -1.989757 -0.242539 0.008881
v -1.809038 -0.032604 0.027302
v -1.809038 -0.032604 -0.008881
v -1.614596 -0.869324 0.008881
v -1.635254 -0.593082 0.027302
v -1.635254 -0.593082 -0.008881
v -1.846906 -0.621529 0.008881
v -1.769520 -0.355549 0.027302
v -1.769520 -0.355549 -0.008881
v -1.245600 -1.036293 0.008881
v -1.378952 -0.793498 0.027302
v -1.378952 -0.793498 -0.008881
v -1.213825 0.639502 0.027302
v -1.185056 0.841108 0.008881
v -1.213825 0.639502 -0.008881
v -1.689627 0.303044 0.027302
v -1.811841 0.465941 0.008881
v -1.689627 0.303044 -0.008881
v -1.506612 0.502874 0.027302
v -1.564045 0.698257 0.008881
v -1.506612 0.502874 -0.008881
v -0.943115 0.651396 0.027302
v -0.845565 0.830161 0.008881
v -0.943115 0.651396 -0.008881
v -0.303015 0.065176 -0.008881
v -0.282127 -0.173535 -0.008881
v -0.282127 -0.173535 0.027302
v -0.303015 0.065176 0.027302
v -0.555567 -0.692737 0.027302
v -0.401545 -0.509177 0.027302
v -0.555567 -0.692737 -0.008881
v -0.401545 -0.509177 -0.008881
v -0.439642 0.357964 -0.008881
v -0.321652 0.149410 -0.008881
v -0.321652 0.149410 0.027302
v -0.439642 0.357964 0.027302
v -0.355158 -0.436435 0.027302
v -0.291120 -0.205534 0.027302
v -0.355158 -0.436435 -0.008881
v -0.291120 -0.205534 -0.008881
v -0.906110 -1.047240 0.008881
v -1.116051 -0.866522 0.027302
v -1.116051 -0.866522 -0.008881
v -0.279331 -0.672080 0.008881
v -0.555567 -0.692737 0.027302
v -0.555567 -0.692737 -0.008881
v -0.527127 -0.904389 0.008881
v -0.793106 -0.827003 0.027302
v -0.793106 -0.827003 -0.008881
v -0.112355 -0.303084 0.008881
v -0.355158 -0.436435 0.027302
v -0.355158 -0.436435 -0.008881
v -1.788151 -0.271308 -0.008881
v -1.788151 -0.271308 0.027302
v -1.989757 -0.242539 0.008881
v -1.451693 -0.747111 -0.008881
v -1.451693 -0.747111 0.027302
v -1.614596 -0.869324 0.008881
v -1.651523 -0.564103 -0.008881
v -1.651523 -0.564103 0.027302
v -1.846906 -0.621529 0.008881
v -1.800045 -0.000605 0.027302
v -1.978810 0.096951 0.008881
v -1.800045 -0.000605 -0.008881
v -1.213825 0.639502 -0.008881
v -0.975121 0.660383 -0.008881
v -0.975121 0.660383 0.027302
v -1.213825 0.639502 0.027302
v -0.639472 0.540972 -0.008881
v -0.455918 0.386950 -0.008881
v -0.455918 0.386950 0.027302
v -0.639472 0.540972 0.027302
v -1.506612 0.502874 -0.008881
v -1.298066 0.620864 -0.008881
v -1.298066 0.620864 0.027302
v -1.506612 0.502874 0.027302
v -0.943115 0.651396 -0.008881
v -0.712214 0.587359 -0.008881
v -0.712214 0.587359 0.027302
v -0.943115 0.651396 0.027302
v -0.303015 0.065176 -0.008881
v -0.101408 0.036407 0.008881
v -0.282127 -0.173535 -0.008881
v -1.809038 -0.032604 -0.008881
v -1.788151 -0.271308 -0.008881
v -1.989757 -0.242539 0.008881
v -1.213825 0.639502 -0.008881
v -1.185056 0.841108 0.008881
v -0.975121 0.660383 -0.008881
v -1.116051 -0.866522 -0.008881
v -0.877341 -0.845634 -0.008881
v -0.906110 -1.047240 0.008881
v -0.639472 0.540972 -0.008881
v -0.476575 0.663185 0.008881
v -0.455918 0.386950 -0.008881
v -1.635254 -0.593082 -0.008881
v -1.451693 -0.747111 -0.008881
v -1.614596 -0.869324 0.008881
v -1.689627 0.303044 -0.008881
v -1.811841 0.465941 0.008881
v -1.535599 0.486598 -0.008881
v -0.555567 -0.692737 -0.008881
v -0.401545 -0.509177 -0.008881
v -0.279331 -0.672080 0.008881
v -0.439642 0.357964 -0.008881
v -0.244260 0.415390 0.008881
v -0.321652 0.149410 -0.008881
v -1.769520 -0.355549 -0.008881
v -1.651523 -0.564103 -0.008881
v -1.846906 -0.621529 0.008881
v -1.506612 0.502874 -0.008881
v -1.564045 0.698257 0.008881
v -1.298066 0.620864 -0.008881
v -0.793106 -0.827003 -0.008881
v -0.584553 -0.709006 -0.008881
v -0.527127 -0.904389 0.008881
v -0.943115 0.651396 -0.008881
v -0.845565 0.830161 0.008881
v -0.712214 0.587359 -0.008881
v -1.378952 -0.793498 -0.008881
v -1.148050 -0.857529 -0.008881
v -1.245600 -1.036293 0.008881
v -1.800045 -0.000605 -0.008881
v -1.978810 0.096951 0.008881
v -1.736014 0.230303 -0.008881
v -0.355158 -0.436435 -0.008881
v -0.291120 -0.205534 -0.008881
v -0.112355 -0.303084 0.008881
v -0.152499 0.233559 0.008881
v -0.284561 -0.009941 0.027302
v -0.284561 -0.009941 -0.008881
v -0.652110 0.766472 0.008881
v -0.573310 0.500907 0.027302
v -0.573310 0.500907 -0.008881
v -0.372513 0.573609 0.008881
v -0.391703 0.297261 0.027302
v -0.391703 0.297261 -0.008881
v -1.048132 0.851351 0.008881
v -0.866301 0.642370 0.027302
v -0.866301 0.642370 -0.008881
v -0.723615 -0.793030 -0.008881
v -0.723615 -0.793030 0.027302
v -0.708951 -0.996150 0.008881
v -1.305796 -0.818615 -0.008881
v -1.305796 -0.818615 0.027302
v -1.439055 -0.972611 0.008881
v -0.466484 -0.597391 -0.008881
v -0.466484 -0.597391 0.027302
v -0.368907 -0.776143 0.008881
v -0.985634 -0.862094 -0.008881
v -0.985634 -0.862094 0.027302
v -1.043033 -1.057484 0.008881
v -1.806604 -0.196198 0.027302
v -1.735547 -0.425034 0.027302
v -1.806604 -0.196198 -0.008881
v -1.735547 -0.425034 -0.008881
v -1.761132 0.157140 -0.008881
v -1.649556 0.369200 -0.008881
v -1.649556 0.369200 0.027302
v -1.761132 0.157140 0.027302
v -1.699462 -0.503400 0.027302
v -1.539908 -0.682172 0.027302
v -1.699462 -0.503400 -0.008881
v -1.539908 -0.682172 -0.008881
v -1.804611 -0.163015 -0.008881
v -1.791026 0.076215 -0.008881
v -1.791026 0.076215 0.027302
v -1.804611 -0.163015 0.027302
v -1.382215 0.790017 0.008881
v -1.138715 0.657955 0.027302
v -1.138715 0.657955 -0.008881
v -1.915121 0.290406 0.008881
v -1.649556 0.369200 0.027302
v -1.649556 0.369200 -0.008881
v -1.722258 0.570004 0.008881
v -1.445917 0.550814 0.027302
v -1.445917 0.550814 -0.008881
v -2.000000 -0.105615 0.008881
v -1.791026 0.076215 0.027302
v -1.791026 0.076215 -0.008881
v -0.355618 0.218902 0.027302
v -0.152499 0.233559 0.008881
v -0.355618 0.218902 -0.008881
v -0.330040 -0.363279 -0.008881
v -0.330040 -0.363279 0.027302
v -0.176044 -0.496539 0.008881
v -0.551264 0.476033 0.027302
v -0.372513 0.573609 0.008881
v -0.551264 0.476033 -0.008881
v -0.286561 -0.043124 -0.008881
v -0.286561 -0.043124 0.027302
v -0.091165 -0.100524 0.008881
v -0.952457 -0.864088 0.027302
v -0.723615 -0.793030 0.027302
v -0.952457 -0.864088 -0.008881
v -0.723615 -0.793030 -0.008881
v -1.517856 -0.707046 0.027302
v -1.305796 -0.818615 0.027302
v -1.517856 -0.707046 -0.008881
v -1.305796 -0.818615 -0.008881
v -0.645248 -0.756953 0.027302
v -0.466484 -0.597391 0.027302
v -0.645248 -0.756953 -0.008881
v -0.466484 -0.597391 -0.008881
v -1.224870 -0.848509 0.027302
v -0.985634 -0.862094 0.027302
v -1.224870 -0.848509 -0.008881
v -0.985634 -0.862094 -0.008881
v -0.284561 -0.009941 0.027302
v -0.152499 0.233559 0.008881
v -0.355618 0.218902 0.027302
v -1.735547 -0.425034 0.027302
v -1.806604 -0.196198 0.027302
v -1.938666 -0.439698 0.008881
v -1.138715 0.657955 0.027302
v -1.382215 0.790017 0.008881
v -1.367551 0.586898 0.027302
v -0.723615 -0.793030 0.027302
v -0.952457 -0.864088 0.027302
v -0.708951 -0.996150 0.008881
v -0.573310 0.500907 0.027302
v -0.652110 0.766472 0.008881
v -0.785369 0.612476 0.027302
v -1.305796 -0.818615 0.027302
v -1.517856 -0.707046 0.027302
v -1.439055 -0.972611 0.008881
v -1.649556 0.369200 0.027302
v -1.915121 0.290406 0.008881
v -1.761132 0.157140 0.027302
v -0.330040 -0.363279 0.027302
v -0.441609 -0.575339 0.027302
v -0.176044 -0.496539 0.008881
v -0.391703 0.297261 0.027302
v -0.372513 0.573609 0.008881
v -0.551264 0.476033 0.027302
v -1.539908 -0.682172 0.027302
v -1.699462 -0.503400 0.027302
v -1.718659 -0.779748 0.008881
v -1.445917 0.550814 0.027302
v -1.722258 0.570004 0.008881
v -1.624688 0.391252 0.027302
v -0.466484 -0.597391 0.027302
v -0.645248 -0.756953 0.027302
v -0.368907 -0.776143 0.008881
v -0.866301 0.642370 0.027302
v -1.048132 0.851351 0.008881
v -1.105532 0.655955 0.027302
v -0.985634 -0.862094 0.027302
v -1.224870 -0.848509 0.027302
v -1.043033 -1.057484 0.008881
v -1.791026 0.076215 0.027302
v -2.000000 -0.105615 0.008881
v -1.804611 -0.163015 0.027302
v -0.286561 -0.043124 0.027302
v -0.300140 -0.282354 0.027302
v -0.091165 -0.100524 0.008881
v -1.938666 -0.439698 0.008881
v -1.806604 -0.196198 0.027302
v -1.806604 -0.196198 -0.008881
v -1.439055 -0.972611 0.008881
v -1.517856 -0.707046 0.027302
v -1.517856 -0.707046 -0.008881
v -1.718659 -0.779748 0.008881
v -1.699462 -0.503400 0.027302
v -1.699462 -0.503400 -0.008881
v -1.043033 -1.057484 0.008881
v -1.224870 -0.848509 0.027302
v -1.224870 -0.848509 -0.008881
v -1.367551 0.586898 0.027302
v -1.382215 0.790017 0.008881
v -1.367551 0.586898 -0.008881
v -0.785369 0.612476 0.027302
v -0.652110 0.766472 0.008881
v -0.785369 0.612476 -0.008881
v -1.624688 0.391252 0.027302
v -1.722258 0.570004 0.008881
v -1.624688 0.391252 -0.008881
v -1.105532 0.655955 0.027302
v -1.048132 0.851351 0.008881
v -1.105532 0.655955 -0.008881
v -0.355618 0.218902 -0.008881
v -0.284561 -0.009941 -0.008881
v -0.284561 -0.009941 0.027302
v -0.355618 0.218902 0.027302
v -0.441609 -0.575339 0.027302
v -0.330040 -0.363279 0.027302
v -0.441609 -0.575339 -0.008881
v -0.330040 -0.363279 -0.008881
v -0.551264 0.476033 -0.008881
v -0.391703 0.297261 -0.008881
v -0.391703 0.297261 0.027302
v -0.551264 0.476033 0.027302
v -0.300140 -0.282354 0.027302
v -0.286561 -0.043124 0.027302
v -0.300140 -0.282354 -0.008881
v -0.286561 -0.043124 -0.008881
v -0.708951 -0.996150 0.008881
v -0.952457 -0.864088 0.027302
v -0.952457 -0.864088 -0.008881
v -0.176044 -0.496539 0.008881
v -0.441609 -0.575339 0.027302
v -0.441609 -0.575339 -0.008881
v -0.368907 -0.776143 0.008881
v -0.645248 -0.756953 0.027302
v -0.645248 -0.756953 -0.008881
v -0.091165 -0.100524 0.008881
v -0.300140 -0.282354 0.027302
v -0.300140 -0.282354 -0.008881
v -1.735547 -0.425034 -0.008881
v -1.735547 -0.425034 0.027302
v -1.938666 -0.439698 0.008881
v -1.761132 0.157140 0.027302
v -1.915121 0.290406 0.008881
v -1.761132 0.157140 -0.008881
v -1.539908 -0.682172 -0.008881
v -1.539908 -0.682172 0.027302
v -1.718659 -0.779748 0.008881
v -1.804611 -0.163015 0.027302
v -2.000000 -0.105615 0.008881
v -1.804611 -0.163015 -0.008881
v -1.367551 0.586898 -0.008881
v -1.138715 0.657955 -0.008881
v -1.138715 0.657955 0.027302
v -1.367551 0.586898 0.027302
v -0.785369 0.612476 -0.008881
v -0.573310 0.500907 -0.008881
v -0.573310 0.500907 0.027302
v -0.785369 0.612476 0.027302
v -1.624688 0.391252 -0.008881
v -1.445917 0.550814 -0.008881
v -1.445917 0.550814 0.027302
v -1.624688 0.391252 0.027302
v -1.105532 0.655955 -0.008881
v -0.866301 0.642370 -0.008881
v -0.866301 0.642370 0.027302
v -1.105532 0.655955 0.027302
v -0.355618 0.218902 -0.008881
v -0.152499 0.233559 0.008881
v -0.284561 -0.009941 -0.008881
v -1.806604 -0.196198 -0.008881
v -1.735547 -0.425034 -0.008881
v -1.938666 -0.439698 0.008881
v -1.367551 0.586898 -0.008881
v -1.382215 0.790017 0.008881
v -1.138715 0.657955 -0.008881
v -0.952457 -0.864088 -0.008881
v -0.723615 -0.793030 -0.008881
v -0.708951 -0.996150 0.008881
v -0.785369 0.612476 -0.008881
v -0.652110 0.766472 0.008881
v -0.573310 0.500907 -0.008881
v -1.517856 -0.707046 -0.008881
v -1.305796 -0.818615 -0.008881
v -1.439055 -0.972611 0.008881
v -1.761132 0.157140 -0.008881
v -1.915121 0.290406 0.008881
v -1.649556 0.369200 -0.008881
v -0.441609 -0.575339 -0.008881
v -0.330040 -0.363279 -0.008881
v -0.176044 -0.496539 0.008881
v -0.551264 0.476033 -0.008881
v -0.372513 0.573609 0.008881
v -0.391703 0.297261 -0.008881
v -1.699462 -0.503400 -0.008881
v -1.539908 -0.682172 -0.008881
v -1.718659 -0.779748 0.008881
v -1.624688 0.391252 -0.008881
v -1.722258 0.570004 0.008881
v -1.445917 0.550814 -0.008881
v -0.645248 -0.756953 -0.008881
v -0.466484 -0.597391 -0.008881
v -0.368907 -0.776143 0.008881
v -1.105532 0.655955 -0.008881
v -1.048132 0.851351 0.008881
v -0.866301 0.642370 -0.008881
v -1.224870 -0.848509 -0.008881
v -0.985634 -0.862094 -0.008881
v -1.043033 -1.057484 0.008881
v -1.804611 -0.163015 -0.008881
v -2.000000 -0.105615 0.008881
v -1.791026 0.076215 -0.008881
v -0.300140 -0.282354 -0.008881
v -0.286561 -0.043124 -0.008881
v -0.091165 -0.100524 0.008881
vt 30 -6.9735 
vt 29.9966 -7.01339 
vt 30.0034 -7.01339 
vt 30 -6.85441 
vt 29.9966 -6.90689 
vt 30.0034 -6.90689 
vt 30 -6.90149 
vt 29.9966 -6.95203 
vt 30.0034 -6.95203 
vt 30 -6.82268 
vt 29.9966 -6.86881 
vt 30.0034 -6.86881 
vt 30.0034 -7.14109 
vt 29.9966 -7.14109 
vt 30 -7.1794 
vt 30.0034 -7.07716 
vt 29.9966 -7.07716 
vt 30 -7.10812 
vt 30.0034 -7.11513 
vt 29.9966 -7.11513 
vt 30 -7.15226 
vt 30.0034 -7.14335 
vt 29.9966 -7.14335 
vt 30 -7.17732 
vt 29.9966 -6.98661 
vt 29.9966 -7.03197 
vt 30.0034 -6.98661 
vt 30.0034 -7.03197 
vt 30.0034 -6.92284 
vt 30.0034 -6.88796 
vt 29.9966 -6.88796 
vt 29.9966 -6.92284 
vt 29.9966 -7.04797 
vt 29.9966 -7.0876 
vt 30.0034 -7.04797 
vt 30.0034 -7.0876 
vt 30.0034 -6.98053 
vt 30.0034 -6.93666 
vt 29.9966 -6.93666 
vt 29.9966 -6.98053 
vt 30.0265 -7 
vt 29.9866 -6.99658 
vt 29.9866 -7.00342 
vt 30.1456 -7 
vt 30.0931 -6.99658 
vt 30.0931 -7.00342 
vt 30.0985 -7 
vt 30.048 -6.99658 
vt 30.048 -7.00342 
vt 30.1773 -7 
vt 30.1312 -6.99658 
vt 30.1312 -7.00342 
vt 29.8589 -6.99658 
vt 29.8206 -7 
vt 29.8589 -7.00342 
vt 29.9228 -6.99658 
vt 29.8919 -7 
vt 29.9228 -7.00342 
vt 29.8849 -6.99658 
vt 29.8477 -7 
vt 29.8849 -7.00342 
vt 29.8566 -7.00342 
vt 29.8566 -6.99658 
vt 29.8227 -7 
vt 30.0134 -6.99658 
vt 29.968 -6.99658 
vt 30.0134 -7.00342 
vt 29.968 -7.00342 
vt 30.112 -6.99658 
vt 30.0772 -6.99658 
vt 30.112 -7.00342 
vt 30.0772 -7.00342 
vt 29.952 -6.99658 
vt 29.9124 -6.99658 
vt 29.952 -7.00342 
vt 29.9124 -7.00342 
vt 30.0633 -6.99658 
vt 30.0195 -6.99658 
vt 30.0633 -7.00342 
vt 30.0195 -7.00342 
vt 30.1451 -7.01339 
vt 30.1794 -6.9735 
vt 30.1411 -6.96803 
vt 29.8589 -7.03197 
vt 29.8549 -6.98661 
vt 29.8206 -7.0265 
vt 30.0134 -6.85494 
vt 29.9735 -6.8206 
vt 29.968 -6.85891 
vt 30.032 -7.14109 
vt 29.9866 -7.14506 
vt 30.0265 -7.1794 
vt 30.112 -6.90689 
vt 30.1081 -6.85441 
vt 30.0772 -6.87763 
vt 29.9228 -7.12237 
vt 29.888 -7.09311 
vt 29.8919 -7.14559 
vt 29.9069 -6.88796 
vt 29.8544 -6.89188 
vt 29.8776 -6.92284 
vt 30.1224 -7.07716 
vt 30.0931 -7.11204 
vt 30.1456 -7.10812 
vt 30.1376 -6.95203 
vt 30.1523 -6.90149 
vt 30.1151 -6.9124 
vt 29.8849 -7.0876 
vt 29.8624 -7.04797 
vt 29.8477 -7.09851 
vt 29.952 -6.86245 
vt 29.9015 -6.84774 
vt 29.9124 -6.88487 
vt 30.0876 -7.11513 
vt 30.048 -7.13755 
vt 30.0985 -7.15226 
vt 30.0633 -6.86881 
vt 30.038 -6.82268 
vt 30.0195 -6.85665 
vt 29.9805 -7.14335 
vt 29.9367 -7.13118 
vt 29.962 -7.17732 
vt 29.8688 -6.93666 
vt 29.8227 -6.962 
vt 29.8566 -6.98053 
vt 30.1434 -7.01947 
vt 30.1312 -7.06334 
vt 30.1773 -7.038 
vt 30 -7.0265 
vt 30.0034 -6.98661 
vt 29.9966 -6.98661 
vt 30 -7.14559 
vt 30.0034 -7.09311 
vt 29.9966 -7.09311 
vt 30 -7.09851 
vt 30.0034 -7.04797 
vt 29.9966 -7.04797 
vt 30 -7.17732 
vt 30.0034 -7.13118 
vt 29.9966 -7.13118 
vt 30.0034 -6.85891 
vt 30 -6.8206 
vt 29.9966 -6.85891 
vt 30.0034 -6.92284 
vt 30 -6.89188 
vt 29.9966 -6.92284 
vt 30.0034 -6.88487 
vt 30 -6.84774 
vt 29.9966 -6.88487 
vt 30.0034 -6.85665 
vt 30 -6.82268 
vt 29.9966 -6.85665 
vt 29.9966 -6.96803 
vt 29.9966 -7.01339 
vt 30.0034 -7.01339 
vt 30.0034 -6.96803 
vt 30.0034 -7.11204 
vt 30.0034 -7.07716 
vt 29.9966 -7.11204 
vt 29.9966 -7.07716 
vt 29.9966 -6.9124 
vt 29.9966 -6.95203 
vt 30.0034 -6.95203 
vt 30.0034 -6.9124 
vt 30.0034 -7.06334 
vt 30.0034 -7.01947 
vt 29.9966 -7.06334 
vt 29.9966 -7.01947 
vt 30.0265 -7 
vt 29.9866 -6.99658 
vt 29.9866 -7.00342 
vt 30.1456 -7 
vt 30.0931 -6.99658 
vt 30.0931 -7.00342 
vt 30.0985 -7 
vt 30.048 -6.99658 
vt 30.048 -7.00342 
vt 30.1773 -7 
vt 30.1312 -6.99658 
vt 30.1312 -7.00342 
vt 29.8589 -7.00342 
vt 29.8589 -6.99658 
vt 29.8206 -7 
vt 29.9228 -7.00342 
vt 29.9228 -6.99658 
vt 29.8919 -7 
vt 29.8849 -7.00342 
vt 29.8849 -6.99658 
vt 29.8477 -7 
vt 29.8566 -6.99658 
vt 29.8227 -7 
vt 29.8566 -7.00342 
vt 29.968 -7.00342 
vt 30.0134 -7.00342 
vt 30.0134 -6.99658 
vt 29.968 -6.99658 
vt 30.0772 -7.00342 
vt 30.112 -7.00342 
vt 30.112 -6.99658 
vt 30.0772 -6.99658 
vt 29.9124 -7.00342 
vt 29.952 -7.00342 
vt 29.952 -6.99658 
vt 29.9124 -6.99658 
vt 30.0195 -7.00342 
vt 30.0633 -7.00342 
vt 30.0633 -6.99658 
vt 30.0195 -6.99658 
vt 29.8589 -6.96803 
vt 29.8206 -6.9735 
vt 29.8549 -7.01339 
vt 30.1451 -6.98661 
vt 30.1411 -7.03197 
vt 30.1794 -7.0265 
vt 30.032 -6.85891 
vt 30.0265 -6.8206 
vt 29.9866 -6.85494 
vt 30.0134 -7.14506 
vt 29.968 -7.14109 
vt 29.9735 -7.1794 
vt 29.9228 -6.87763 
vt 29.8919 -6.85441 
vt 29.888 -6.90689 
vt 30.112 -7.09311 
vt 30.0772 -7.12237 
vt 30.1081 -7.14559 
vt 30.1224 -6.92284 
vt 30.1456 -6.89188 
vt 30.0931 -6.88796 
vt 29.9069 -7.11204 
vt 29.8776 -7.07716 
vt 29.8544 -7.10812 
vt 29.8849 -6.9124 
vt 29.8477 -6.90149 
vt 29.8624 -6.95203 
vt 30.1376 -7.04797 
vt 30.1151 -7.0876 
vt 30.1523 -7.09851 
vt 30.0876 -6.88487 
vt 30.0985 -6.84774 
vt 30.048 -6.86245 
vt 29.952 -7.13755 
vt 29.9124 -7.11513 
vt 29.9015 -7.15226 
vt 29.9805 -6.85665 
vt 29.962 -6.82268 
vt 29.9367 -6.86881 
vt 30.0633 -7.13118 
vt 30.0195 -7.14335 
vt 30.038 -7.17732 
vt 30.1434 -6.98053 
vt 30.1773 -6.962 
vt 30.1312 -6.93666 
vt 29.8688 -7.06334 
vt 29.8566 -7.01947 
vt 29.8227 -7.038 
vt 58 -34.936 
vt 57.9966 -34.9823 
vt 58.0034 -34.9823 
vt 58 -34.8348 
vt 57.9966 -34.8852 
vt 58.0034 -34.8852 
vt 58 -34.8714 
vt 57.9966 -34.9239 
vt 58.0034 -34.9239 
vt 58 -34.8187 
vt 57.9966 -34.8584 
vt 58.0034 -34.8584 
vt 58.0034 -35.1311 
vt 57.9966 -35.1311 
vt 58 -35.1697 
vt 58.0034 -35.136 
vt 57.9966 -35.136 
vt 58 -35.1652 
vt 58.0034 -35.0939 
vt 57.9966 -35.0939 
vt 58 -35.1279 
vt 58.0034 -35.1442 
vt 57.9966 -35.1442 
vt 58 -35.1813 
vt 57.9966 -35.0177 
vt 57.9966 -35.0612 
vt 58.0034 -35.0177 
vt 58.0034 -35.0612 
vt 58.0034 -34.9506 
vt 58.0034 -34.9103 
vt 57.9966 -34.9103 
vt 57.9966 -34.9506 
vt 57.9966 -35.0761 
vt 57.9966 -35.11 
vt 58.0034 -35.0761 
vt 58.0034 -35.11 
vt 58.0034 -35.0114 
vt 58.0034 -34.9659 
vt 57.9966 -34.9659 
vt 57.9966 -35.0114 
vt 58.064 -35 
vt 58.0177 -34.9966 
vt 58.0177 -35.0034 
vt 58.1652 -35 
vt 58.1148 -34.9966 
vt 58.1148 -35.0034 
vt 58.1286 -35 
vt 58.0761 -34.9966 
vt 58.0761 -35.0034 
vt 58.1813 -35 
vt 58.1416 -34.9966 
vt 58.1416 -35.0034 
vt 57.8689 -34.9966 
vt 57.8303 -35 
vt 57.8689 -35.0034 
vt 57.864 -35.0034 
vt 57.864 -34.9966 
vt 57.8348 -35 
vt 57.9061 -34.9966 
vt 57.8721 -35 
vt 57.9061 -35.0034 
vt 57.8558 -35.0034 
vt 57.8558 -34.9966 
vt 57.8187 -35 
vt 57.9823 -34.9966 
vt 57.9388 -34.9966 
vt 57.9823 -35.0034 
vt 57.9388 -35.0034 
vt 58.0897 -34.9966 
vt 58.0494 -34.9966 
vt 58.0897 -35.0034 
vt 58.0494 -35.0034 
vt 57.9239 -34.9966 
vt 57.89 -34.9966 
vt 57.9239 -35.0034 
vt 57.89 -35.0034 
vt 58.0341 -34.9966 
vt 57.9886 -34.9966 
vt 58.0341 -35.0034 
vt 57.9886 -35.0034 
vt 58.1446 -34.9823 
vt 58.1697 -34.936 
vt 58.1311 -34.9388 
vt 57.8689 -35.0612 
vt 57.8554 -35.0177 
vt 57.8303 -35.064 
vt 57.9823 -34.8554 
vt 57.936 -34.8303 
vt 57.9388 -34.8689 
vt 58.0612 -35.1311 
vt 58.0177 -35.1446 
vt 58.064 -35.1697 
vt 58.0897 -34.8852 
vt 58.0748 -34.8348 
vt 58.0494 -34.864 
vt 57.9506 -35.136 
vt 57.9103 -35.1148 
vt 57.9252 -35.1652 
vt 57.8852 -34.9103 
vt 57.8348 -34.9252 
vt 57.864 -34.9506 
vt 58.136 -35.0494 
vt 58.1148 -35.0897 
vt 58.1652 -35.0748 
vt 58.1242 -34.9239 
vt 58.1279 -34.8714 
vt 58.0939 -34.89 
vt 57.9061 -35.11 
vt 57.8758 -35.0761 
vt 57.8721 -35.1286 
vt 57.9239 -34.8758 
vt 57.8714 -34.8721 
vt 57.89 -34.9061 
vt 58.11 -35.0939 
vt 58.0761 -35.1242 
vt 58.1286 -35.1279 
vt 58.0341 -34.8584 
vt 57.9995 -34.8187 
vt 57.9886 -34.8558 
vt 58.0114 -35.1442 
vt 57.9659 -35.1416 
vt 58.0005 -35.1813 
vt 57.8584 -34.9659 
vt 57.8187 -35.0005 
vt 57.8558 -35.0114 
vt 58.1442 -34.9886 
vt 58.1416 -35.0341 
vt 58.1813 -34.9995 
vt 58 -35.064 
vt 58.0034 -35.0177 
vt 57.9966 -35.0177 
vt 58 -35.1652 
vt 58.0034 -35.1148 
vt 57.9966 -35.1148 
vt 58 -35.1286 
vt 58.0034 -35.0761 
vt 57.9966 -35.0761 
vt 58 -35.1813 
vt 58.0034 -35.1416 
vt 57.9966 -35.1416 
vt 58.0034 -34.8689 
vt 58 -34.8303 
vt 57.9966 -34.8689 
vt 58.0034 -34.864 
vt 58 -34.8348 
vt 57.9966 -34.864 
vt 58.0034 -34.9061 
vt 58 -34.8721 
vt 57.9966 -34.9061 
vt 58.0034 -34.8558 
vt 58 -34.8187 
vt 57.9966 -34.8558 
vt 57.9966 -34.9388 
vt 57.9966 -34.9823 
vt 58.0034 -34.9823 
vt 58.0034 -34.9388 
vt 58.0034 -35.0897 
vt 58.0034 -35.0494 
vt 57.9966 -35.0897 
vt 57.9966 -35.0494 
vt 57.9966 -34.89 
vt 57.9966 -34.9239 
vt 58.0034 -34.9239 
vt 58.0034 -34.89 
vt 58.0034 -35.0341 
vt 58.0034 -34.9886 
vt 57.9966 -35.0341 
vt 57.9966 -34.9886 
vt 58.064 -35 
vt 58.0177 -34.9966 
vt 58.0177 -35.0034 
vt 58.1652 -35 
vt 58.1148 -34.9966 
vt 58.1148 -35.0034 
vt 58.1286 -35 
vt 58.0761 -34.9966 
vt 58.0761 -35.0034 
vt 58.1813 -35 
vt 58.1416 -34.9966 
vt 58.1416 -35.0034 
vt 57.8689 -35.0034 
vt 57.8689 -34.9966 
vt 57.8303 -35 
vt 57.864 -34.9966 
vt 57.8348 -35 
vt 57.864 -35.0034 
vt 57.9061 -35.0034 
vt 57.9061 -34.9966 
vt 57.8721 -35 
vt 57.8558 -34.9966 
vt 57.8187 -35 
vt 57.8558 -35.0034 
vt 57.9388 -35.0034 
vt 57.9823 -35.0034 
vt 57.9823 -34.9966 
vt 57.9388 -34.9966 
vt 58.0494 -35.0034 
vt 58.0897 -35.0034 
vt 58.0897 -34.9966 
vt 58.0494 -34.9966 
vt 57.89 -35.0034 
vt 57.9239 -35.0034 
vt 57.9239 -34.9966 
vt 57.89 -34.9966 
vt 57.9886 -35.0034 
vt 58.0341 -35.0034 
vt 58.0341 -34.9966 
vt 57.9886 -34.9966 
vt 57.8689 -34.9388 
vt 57.8303 -34.936 
vt 57.8554 -34.9823 
vt 58.1446 -35.0177 
vt 58.1311 -35.0612 
vt 58.1697 -35.064 
vt 58.0612 -34.8689 
vt 58.064 -34.8303 
vt 58.0177 -34.8554 
vt 57.9823 -35.1446 
vt 57.9388 -35.1311 
vt 57.936 -35.1697 
vt 57.9506 -34.864 
vt 57.9252 -34.8348 
vt 57.9103 -34.8852 
vt 58.0897 -35.1148 
vt 58.0494 -35.136 
vt 58.0748 -35.1652 
vt 58.136 -34.9506 
vt 58.1652 -34.9252 
vt 58.1148 -34.9103 
vt 57.8852 -35.0897 
vt 57.864 -35.0494 
vt 57.8348 -35.0748 
vt 57.9061 -34.89 
vt 57.8721 -34.8714 
vt 57.8758 -34.9239 
vt 58.1242 -35.0761 
vt 58.0939 -35.11 
vt 58.1279 -35.1286 
vt 58.11 -34.9061 
vt 58.1286 -34.8721 
vt 58.0761 -34.8758 
vt 57.9239 -35.1242 
vt 57.89 -35.0939 
vt 57.8714 -35.1279 
vt 58.0114 -34.8558 
vt 58.0005 -34.8187 
vt 57.9659 -34.8584 
vt 58.0341 -35.1416 
vt 57.9886 -35.1442 
vt 57.9995 -35.1813 
vt 58.1442 -35.0114 
vt 58.1813 -35.0005 
vt 58.1416 -34.9659 
vt 57.8584 -35.0341 
vt 57.8558 -34.9886 
vt 57.8187 -34.9995 
vn 0.7559 -0.6535 -0.0000
vn 0.7559 -0.6535 -0.0000
vn 0.7559 -0.6535 -0.0000
vn 1.0000 0.0709 -0.0000
vn 1.0000 0.0709 -0.0000
vn 1.0000 0.0709 -0.0000
vn 0.9606 -0.2756 -0.0000
vn 0.9606 -0.2756 -0.0000
vn 0.9606 -0.2756 -0.0000
vn 0.8740 0.4803 -0.0000
vn 0.8740 0.4803 -0.0000
vn 0.8740 0.4803 -0.0000
vn 0.9921 -0.1417 -0.0000
vn 0.9921 -0.1417 -0.0000
vn 0.9921 -0.1417 -0.0000
vn 0.8032 0.5984 -0.0000
vn 0.8032 0.5984 -0.0000
vn 0.8032 0.5984 -0.0000
vn 0.9606 0.2835 -0.0000
vn 0.9606 0.2835 -0.0000
vn 0.9606 0.2835 -0.0000
vn 0.8740 -0.4803 -0.0000
vn 0.8740 -0.4803 -0.0000
vn 0.8740 -0.4803 -0.0000
vn 1.0000 0.0866 -0.0000
vn 1.0000 0.0866 -0.0000
vn 1.0000 0.0866 -0.0000
vn 1.0000 0.0866 -0.0000
vn 0.7638 -0.6457 -0.0000
vn 0.7638 -0.6457 -0.0000
vn 0.7638 -0.6457 -0.0000
vn 0.7638 -0.6457 -0.0000
vn 0.8740 0.4961 -0.0000
vn 0.8740 0.4961 -0.0000
vn 0.8740 0.4961 -0.0000
vn 0.8740 0.4961 -0.0000
vn 0.9606 -0.2677 -0.0000
vn 0.9606 -0.2677 -0.0000
vn 0.9606 -0.2677 -0.0000
vn 0.9606 -0.2677 -0.0000
vn 0.6535 0.7559 -0.0000
vn 0.6535 0.7559 -0.0000
vn 0.6535 0.7559 -0.0000
vn -0.0709 1.0000 -0.0000
vn -0.0709 1.0000 -0.0000
vn -0.0709 1.0000 -0.0000
vn 0.2756 0.9606 -0.0000
vn 0.2756 0.9606 -0.0000
vn 0.2756 0.9606 -0.0000
vn -0.4803 0.8740 -0.0000
vn -0.4803 0.8740 -0.0000
vn -0.4803 0.8740 -0.0000
vn 0.1417 0.9921 -0.0000
vn 0.1417 0.9921 -0.0000
vn 0.1417 0.9921 -0.0000
vn -0.5984 0.8032 -0.0000
vn -0.5984 0.8032 -0.0000
vn -0.5984 0.8032 -0.0000
vn -0.2835 0.9606 -0.0000
vn -0.2835 0.9606 -0.0000
vn -0.2835 0.9606 -0.0000
vn 0.4803 0.8740 -0.0000
vn 0.4803 0.8740 -0.0000
vn 0.4803 0.8740 -0.0000
vn -0.0866 1.0000 -0.0000
vn -0.0866 1.0000 -0.0000
vn -0.0866 1.0000 -0.0000
vn -0.0866 1.0000 -0.0000
vn 0.6457 0.7638 -0.0000
vn 0.6457 0.7638 -0.0000
vn 0.6457 0.7638 -0.0000
vn 0.6457 0.7638 -0.0000
vn -0.4961 0.8740 -0.0000
vn -0.4961 0.8740 -0.0000
vn -0.4961 0.8740 -0.0000
vn -0.4961 0.8740 -0.0000
vn 0.2677 0.9606 -0.0000
vn 0.2677 0.9606 -0.0000
vn 0.2677 0.9606 -0.0000
vn 0.2677 0.9606 -0.0000
vn 0.0866 0.0079 0.9921
vn 0.0866 0.0079 0.9921
vn 0.0866 0.0079 0.9921
vn -0.0866 -0.0079 0.9921
vn -0.0866 -0.0079 0.9921
vn -0.0866 -0.0079 0.9921
vn -0.0079 0.0866 0.9921
vn -0.0079 0.0866 0.9921
vn -0.0079 0.0866 0.9921
vn 0.0079 -0.0866 0.9921
vn 0.0079 -0.0866 0.9921
vn 0.0079 -0.0866 0.9921
vn 0.0551 0.0709 0.9921
vn 0.0551 0.0709 0.9921
vn 0.0551 0.0709 0.9921
vn -0.0551 -0.0709 0.9921
vn -0.0551 -0.0709 0.9921
vn -0.0551 -0.0709 0.9921
vn -0.0709 0.0551 0.9921
vn -0.0709 0.0551 0.9921
vn -0.0709 0.0551 0.9921
vn 0.0709 -0.0551 0.9921
vn 0.0709 -0.0551 0.9921
vn 0.0709 -0.0551 0.9921
vn 0.0787 0.0472 0.9921
vn 0.0787 0.0472 0.9921
vn 0.0787 0.0472 0.9921
vn -0.0787 -0.0472 0.9921
vn -0.0787 -0.0472 0.9921
vn -0.0787 -0.0472 0.9921
vn -0.0472 0.0787 0.9921
vn -0.0472 0.0787 0.9921
vn -0.0472 0.0787 0.9921
vn 0.0472 -0.0787 0.9921
vn 0.0472 -0.0787 0.9921
vn 0.0472 -0.0787 0.9921
vn 0.0236 0.0866 0.9921
vn 0.0236 0.0866 0.9921
vn 0.0236 0.0866 0.9921
vn -0.0236 -0.0866 0.9921
vn -0.0236 -0.0866 0.9921
vn -0.0236 -0.0866 0.9921
vn -0.0866 0.0236 0.9921
vn -0.0866 0.0236 0.9921
vn -0.0866 0.0236 0.9921
vn 0.0866 -0.0236 0.9921
vn 0.0866 -0.0236 0.9921
vn 0.0866 -0.0236 0.9921
vn -0.7559 0.6535 -0.0000
vn -0.7559 0.6535 -0.0000
vn -0.7559 0.6535 -0.0000
vn -1.0000 -0.0709 -0.0000
vn -1.0000 -0.0709 -0.0000
vn -1.0000 -0.0709 -0.0000
vn -0.9606 0.2756 -0.0000
vn -0.9606 0.2756 -0.0000
vn -0.9606 0.2756 -0.0000
vn -0.8740 -0.4803 -0.0000
vn -0.8740 -0.4803 -0.0000
vn -0.8740 -0.4803 -0.0000
vn -0.9921 0.1417 -0.0000
vn -0.9921 0.1417 -0.0000
vn -0.9921 0.1417 -0.0000
vn -0.8032 -0.5984 -0.0000
vn -0.8032 -0.5984 -0.0000
vn -0.8032 -0.5984 -0.0000
vn -0.9606 -0.2835 -0.0000
vn -0.9606 -0.2835 -0.0000
vn -0.9606 -0.2835 -0.0000
vn -0.8740 0.4803 -0.0000
vn -0.8740 0.4803 -0.0000
vn -0.8740 0.4803 -0.0000
vn -1.0000 -0.0866 -0.0000
vn -1.0000 -0.0866 -0.0000
vn -1.0000 -0.0866 -0.0000
vn -1.0000 -0.0866 -0.0000
vn -0.7638 0.6457 -0.0000
vn -0.7638 0.6457 -0.0000
vn -0.7638 0.6457 -0.0000
vn -0.7638 0.6457 -0.0000
vn -0.8740 -0.4961 -0.0000
vn -0.8740 -0.4961 -0.0000
vn -0.8740 -0.4961 -0.0000
vn -0.8740 -0.4961 -0.0000
vn -0.9606 0.2677 -0.0000
vn -0.9606 0.2677 -0.0000
vn -0.9606 0.2677 -0.0000
vn -0.9606 0.2677 -0.0000
vn -0.6535 -0.7559 -0.0000
vn -0.6535 -0.7559 -0.0000
vn -0.6535 -0.7559 -0.0000
vn 0.0709 -1.0000 -0.0000
vn 0.0709 -1.0000 -0.0000
vn 0.0709 -1.0000 -0.0000
vn -0.2756 -0.9606 -0.0000
vn -0.2756 -0.9606 -0.0000
vn -0.2756 -0.9606 -0.0000
vn 0.4803 -0.8740 -0.0000
vn 0.4803 -0.8740 -0.0000
vn 0.4803 -0.8740 -0.0000
vn -0.1417 -0.9921 -0.0000
vn -0.1417 -0.9921 -0.0000
vn -0.1417 -0.9921 -0.0000
vn 0.5984 -0.8032 -0.0000
vn 0.5984 -0.8032 -0.0000
vn 0.5984 -0.8032 -0.0000
vn 0.2835 -0.9606 -0.0000
vn 0.2835 -0.9606 -0.0000
vn 0.2835 -0.9606 -0.0000
vn -0.4803 -0.8740 -0.0000
vn -0.4803 -0.8740 -0.0000
vn -0.4803 -0.8740 -0.0000
vn 0.0866 -1.0000 -0.0000
vn 0.0866 -1.0000 -0.0000
vn 0.0866 -1.0000 -0.0000
vn 0.0866 -1.0000 -0.0000
vn -0.6457 -0.7638 -0.0000
vn -0.6457 -0.7638 -0.0000
vn -0.6457 -0.7638 -0.0000
vn -0.6457 -0.7638 -0.0000
vn 0.4961 -0.8740 -0.0000
vn 0.4961 -0.8740 -0.0000
vn 0.4961 -0.8740 -0.0000
vn 0.4961 -0.8740 -0.0000
vn -0.2677 -0.9606 -0.0000
vn -0.2677 -0.9606 -0.0000
vn -0.2677 -0.9606 -0.0000
vn -0.2677 -0.9606 -0.0000
vn 0.0866 0.0079 -0.9921
vn 0.0866 0.0079 -0.9921
vn 0.0866 0.0079 -0.9921
vn -0.0866 -0.0079 -0.9921
vn -0.0866 -0.0079 -0.9921
vn -0.0866 -0.0079 -0.9921
vn -0.0079 0.0866 -0.9921
vn -0.0079 0.0866 -0.9921
vn -0.0079 0.0866 -0.9921
vn 0.0079 -0.0866 -0.9921
vn 0.0079 -0.0866 -0.9921
vn 0.0079 -0.0866 -0.9921
vn 0.0551 0.0709 -0.9921
vn 0.0551 0.0709 -0.9921
vn 0.0551 0.0709 -0.9921
vn -0.0551 -0.0709 -0.9921
vn -0.0551 -0.0709 -0.9921
vn -0.0551 -0.0709 -0.9921
vn -0.0709 0.0551 -0.9921
vn -0.0709 0.0551 -0.9921
vn -0.0709 0.0551 -0.9921
vn 0.0709 -0.0551 -0.9921
vn 0.0709 -0.0551 -0.9921
vn 0.0709 -0.0551 -0.9921
vn 0.0787 0.0472 -0.9921
vn 0.0787 0.0472 -0.9921
vn 0.0787 0.0472 -0.9921
vn -0.0787 -0.0472 -0.9921
vn -0.0787 -0.0472 -0.9921
vn -0.0787 -0.0472 -0.9921
vn -0.0472 0.0787 -0.9921
vn -0.0472 0.0787 -0.9921
vn -0.0472 0.0787 -0.9921
vn 0.0472 -0.0787 -0.9921
vn 0.0472 -0.0787 -0.9921
vn 0.0472 -0.0787 -0.9921
vn 0.0236 0.0866 -0.9921
vn 0.0236 0.0866 -0.9921
vn 0.0236 0.0866 -0.9921
vn -0.0236 -0.0866 -0.9921
vn -0.0236 -0.0866 -0.9921
vn -0.0236 -0.0866 -0.9921
vn -0.0866 0.0236 -0.9921
vn -0.0866 0.0236 -0.9921
vn -0.0866 0.0236 -0.9921
vn 0.0866 -0.0236 -0.9921
vn 0.0866 -0.0236 -0.9921
vn 0.0866 -0.0236 -0.9921
vn 0.8819 -0.4803 -0.0000
vn 0.8819 -0.4803 -0.0000
vn 0.8819 -0.4803 -0.0000
vn 0.9606 0.2835 -0.0000
vn 0.9606 0.2835 -0.0000
vn 0.9606 0.2835 -0.0000
vn 1.0000 -0.0709 -0.0000
vn 1.0000 -0.0709 -0.0000
vn 1.0000 -0.0709 -0.0000
vn 0.7559 0.6535 -0.0000
vn 0.7559 0.6535 -0.0000
vn 0.7559 0.6535 -0.0000
vn 1.0000 0.0709 -0.0000
vn 1.0000 0.0709 -0.0000
vn 1.0000 0.0709 -0.0000
vn 0.7559 -0.6535 -0.0000
vn 0.7559 -0.6535 -0.0000
vn 0.7559 -0.6535 -0.0000
vn 0.8740 0.4803 -0.0000
vn 0.8740 0.4803 -0.0000
vn 0.8740 0.4803 -0.0000
vn 0.9606 -0.2835 -0.0000
vn 0.9606 -0.2835 -0.0000
vn 0.9606 -0.2835 -0.0000
vn 0.9528 0.2992 -0.0000
vn 0.9528 0.2992 -0.0000
vn 0.9528 0.2992 -0.0000
vn 0.9528 0.2992 -0.0000
vn 0.8819 -0.4646 -0.0000
vn 0.8819 -0.4646 -0.0000
vn 0.8819 -0.4646 -0.0000
vn 0.8819 -0.4646 -0.0000
vn 0.7480 0.6693 -0.0000
vn 0.7480 0.6693 -0.0000
vn 0.7480 0.6693 -0.0000
vn 0.7480 0.6693 -0.0000
vn 1.0000 -0.0551 -0.0000
vn 1.0000 -0.0551 -0.0000
vn 1.0000 -0.0551 -0.0000
vn 1.0000 -0.0551 -0.0000
vn 0.4803 0.8819 -0.0000
vn 0.4803 0.8819 -0.0000
vn 0.4803 0.8819 -0.0000
vn -0.2835 0.9606 -0.0000
vn -0.2835 0.9606 -0.0000
vn -0.2835 0.9606 -0.0000
vn 0.0709 1.0000 -0.0000
vn 0.0709 1.0000 -0.0000
vn 0.0709 1.0000 -0.0000
vn -0.6535 0.7559 -0.0000
vn -0.6535 0.7559 -0.0000
vn -0.6535 0.7559 -0.0000
vn -0.0709 1.0000 -0.0000
vn -0.0709 1.0000 -0.0000
vn -0.0709 1.0000 -0.0000
vn 0.6535 0.7559 -0.0000
vn 0.6535 0.7559 -0.0000
vn 0.6535 0.7559 -0.0000
vn -0.4803 0.8740 -0.0000
vn -0.4803 0.8740 -0.0000
vn -0.4803 0.8740 -0.0000
vn 0.2835 0.9606 -0.0000
vn 0.2835 0.9606 -0.0000
vn 0.2835 0.9606 -0.0000
vn -0.2992 0.9528 -0.0000
vn -0.2992 0.9528 -0.0000
vn -0.2992 0.9528 -0.0000
vn -0.2992 0.9528 -0.0000
vn 0.4646 0.8819 -0.0000
vn 0.4646 0.8819 -0.0000
vn 0.4646 0.8819 -0.0000
vn 0.4646 0.8819 -0.0000
vn -0.6693 0.7480 -0.0000
vn -0.6693 0.7480 -0.0000
vn -0.6693 0.7480 -0.0000
vn -0.6693 0.7480 -0.0000
vn 0.0551 1.0000 -0.0000
vn 0.0551 1.0000 -0.0000
vn 0.0551 1.0000 -0.0000
vn 0.0551 1.0000 -0.0000
vn 0.0866 0.0236 0.9921
vn 0.0866 0.0236 0.9921
vn 0.0866 0.0236 0.9921
vn -0.0866 -0.0236 0.9921
vn -0.0866 -0.0236 0.9921
vn -0.0866 -0.0236 0.9921
vn -0.0236 0.0866 0.9921
vn -0.0236 0.0866 0.9921
vn -0.0236 0.0866 0.9921
vn 0.0236 -0.0866 0.9921
vn 0.0236 -0.0866 0.9921
vn 0.0236 -0.0866 0.9921
vn 0.0394 0.0787 0.9921
vn 0.0394 0.0787 0.9921
vn 0.0394 0.0787 0.9921
vn -0.0394 -0.0787 0.9921
vn -0.0394 -0.0787 0.9921
vn -0.0394 -0.0787 0.9921
vn -0.0787 0.0394 0.9921
vn -0.0787 0.0394 0.9921
vn -0.0787 0.0394 0.9921
vn 0.0787 -0.0394 0.9921
vn 0.0787 -0.0394 0.9921
vn 0.0787 -0.0394 0.9921
vn 0.0709 0.0630 0.9921
vn 0.0709 0.0630 0.9921
vn 0.0709 0.0630 0.9921
vn -0.0709 -0.0630 0.9921
vn -0.0709 -0.0630 0.9921
vn -0.0709 -0.0630 0.9921
vn -0.0630 0.0709 0.9921
vn -0.0630 0.0709 0.9921
vn -0.0630 0.0709 0.9921
vn 0.0630 -0.0709 0.9921
vn 0.0630 -0.0709 0.9921
vn 0.0630 -0.0709 0.9921
vn 0.0079 0.0866 0.9921
vn 0.0079 0.0866 0.9921
vn 0.0079 0.0866 0.9921
vn -0.0079 -0.0866 0.9921
vn -0.0079 -0.0866 0.9921
vn -0.0079 -0.0866 0.9921
vn -0.0866 0.0079 0.9921
vn -0.0866 0.0079 0.9921
vn -0.0866 0.0079 0.9921
vn 0.0866 -0.0079 0.9921
vn 0.0866 -0.0079 0.9921
vn 0.0866 -0.0079 0.9921
vn -0.8819 0.4803 -0.0000
vn -0.8819 0.4803 -0.0000
vn -0.8819 0.4803 -0.0000
vn -0.9606 -0.2835 -0.0000
vn -0.9606 -0.2835 -0.0000
vn -0.9606 -0.2835 -0.0000
vn -1.0000 0.0709 -0.0000
vn -1.0000 0.0709 -0.0000
vn -1.0000 0.0709 -0.0000
vn -0.7559 -0.6535 -0.0000
vn -0.7559 -0.6535 -0.0000
vn -0.7559 -0.6535 -0.0000
vn -1.0000 -0.0709 -0.0000
vn -1.0000 -0.0709 -0.0000
vn -1.0000 -0.0709 -0.0000
vn -0.7559 0.6535 -0.0000
vn -0.7559 0.6535 -0.0000
vn -0.7559 0.6535 -0.0000
vn -0.8740 -0.4803 -0.0000
vn -0.8740 -0.4803 -0.0000
vn -0.8740 -0.4803 -0.0000
vn -0.9606 0.2835 -0.0000
vn -0.9606 0.2835 -0.0000
vn -0.9606 0.2835 -0.0000
vn -0.9528 -0.2992 -0.0000
vn -0.9528 -0.2992 -0.0000
vn -0.9528 -0.2992 -0.0000
vn -0.9528 -0.2992 -0.0000
vn -0.8819 0.4646 -0.0000
vn -0.8819 0.4646 -0.0000
vn -0.8819 0.4646 -0.0000
vn -0.8819 0.4646 -0.0000
vn -0.7480 -0.6693 -0.0000
vn -0.7480 -0.6693 -0.0000
vn -0.7480 -0.6693 -0.0000
vn -0.7480 -0.6693 -0.0000
vn -1.0000 0.0551 -0.0000
vn -1.0000 0.0551 -0.0000
vn -1.0000 0.0551 -0.0000
vn -1.0000 0.0551 -0.0000
vn -0.4803 -0.8819 -0.0000
vn -0.4803 -0.8819 -0.0000
vn -0.4803 -0.8819 -0.0000
vn 0.2835 -0.9606 -0.0000
vn 0.2835 -0.9606 -0.0000
vn 0.2835 -0.9606 -0.0000
vn -0.0709 -1.0000 -0.0000
vn -0.0709 -1.0000 -0.0000
vn -0.0709 -1.0000 -0.0000
vn 0.6535 -0.7559 -0.0000
vn 0.6535 -0.7559 -0.0000
vn 0.6535 -0.7559 -0.0000
vn 0.0709 -1.0000 -0.0000
vn 0.0709 -1.0000 -0.0000
vn 0.0709 -1.0000 -0.0000
vn -0.6535 -0.7559 -0.0000
vn -0.6535 -0.7559 -0.0000
vn -0.6535 -0.7559 -0.0000
vn 0.4803 -0.8740 -0.0000
vn 0.4803 -0.8740 -0.0000
vn 0.4803 -0.8740 -0.0000
vn -0.2835 -0.9606 -0.0000
vn -0.2835 -0.9606 -0.0000
vn -0.2835 -0.9606 -0.0000
vn 0.2992 -0.9528 -0.0000
vn 0.2992 -0.9528 -0.0000
vn 0.2992 -0.9528 -0.0000
vn 0.2992 -0.9528 -0.0000
vn -0.4646 -0.8819 -0.0000
vn -0.4646 -0.8819 -0.0000
vn -0.4646 -0.8819 -0.0000
vn -0.4646 -0.8819 -0.0000
vn 0.6693 -0.7480 -0.0000
vn 0.6693 -0.7480 -0.0000
vn 0.6693 -0.7480 -0.0000
vn 0.6693 -0.7480 -0.0000
vn -0.0551 -1.0000 -0.0000
vn -0.0551 -1.0000 -0.0000
vn -0.0551 -1.0000 -0.0000
vn -0.0551 -1.0000 -0.0000
vn 0.0866 0.0236 -0.9921
vn 0.0866 0.0236 -0.9921
vn 0.0866 0.0236 -0.9921
vn -0.0866 -0.0236 -0.9921
vn -0.0866 -0.0236 -0.9921
vn -0.0866 -0.0236 -0.9921
vn -0.0236 0.0866 -0.9921
vn -0.0236 0.0866 -0.9921
vn -0.0236 0.0866 -0.9921
vn 0.0236 -0.0866 -0.9921
vn 0.0236 -0.0866 -0.9921
vn 0.0236 -0.0866 -0.9921
vn 0.0394 0.0787 -0.9921
vn 0.0394 0.0787 -0.9921
vn 0.0394 0.0787 -0.9921
vn -0.0394 -0.0787 -0.9921
vn -0.0394 -0.0787 -0.9921
vn -0.0394 -0.0787 -0.9921
vn -0.0787 0.0394 -0.9921
vn -0.0787 0.0394 -0.9921
vn -0.0787 0.0394 -0.9921
vn 0.0787 -0.0394 -0.9921
vn 0.0787 -0.0394 -0.9921
vn 0.0787 -0.0394 -0.9921
vn 0.0709 0.0630 -0.9921
vn 0.0709 0.0630 -0.9921
vn 0.0709 0.0630 -0.9921
vn -0.0709 -0.0630 -0.9921
vn -0.0709 -0.0630 -0.9921
vn -0.0709 -0.0630 -0.9921
vn -0.0630 0.0709 -0.9921
vn -0.0630 0.0709 -0.9921
vn -0.0630 0.0709 -0.9921
vn 0.0630 -0.0709 -0.9921
vn 0.0630 -0.0709 -0.9921
vn 0.0630 -0.0709 -0.9921
vn 0.0079 0.0866 -0.9921
vn 0.0079 0.0866 -0.9921
vn 0.0079 0.0866 -0.9921
vn -0.0079 -0.0866 -0.9921
vn -0.0079 -0.0866 -0.9921
vn -0.0079 -0.0866 -0.9921
vn -0.0866 0.0079 -0.9921
vn -0.0866 0.0079 -0.9921
vn -0.0866 0.0079 -0.9921
vn 0.0866 -0.0079 -0.9921
vn 0.0866 -0.0079 -0.9921
vn 0.0866 -0.0079 -0.9921
usemtl Spikes21Mtl
f 1/1/1 2/2/2 3/3/3
f 4/4/4 5/5/5 6/6/6
f 7/7/7 8/8/8 9/9/9
f 10/10/10 11/11/11 12/12/12
f 13/13/13 14/14/14 15/15/15
f 16/16/16 17/17/17 18/18/18
f 19/19/19 20/20/20 21/21/21
f 22/22/22 23/23/23 24/24/24
f 25/25/25 26/26/26 27/27/27
f 28/28/28 27/27/27 26/26/26
f 29/29/29 30/30/30 31/31/31
f 29/29/29 31/31/31 32/32/32
f 33/33/33 34/34/34 35/35/35
f 36/36/36 35/35/35 34/34/34
f 37/37/37 38/38/38 39/39/39
f 37/37/37 39/39/39 40/40/40
f 41/41/41 42/42/42 43/43/43
f 44/44/44 45/45/45 46/46/46
f 47/47/47 48/48/48 49/49/49
f 50/50/50 51/51/51 52/52/52
f 53/53/53 54/54/54 55/55/55
f 56/56/56 57/57/57 58/58/58
f 59/59/59 60/60/60 61/61/61
f 62/62/62 63/63/63 64/64/64
f 65/65/65 66/66/66 67/67/67
f 68/68/68 67/67/67 66/66/66
f 69/69/69 70/70/70 71/71/71
f 72/72/72 71/71/71 70/70/70
f 73/73/73 74/74/74 75/75/75
f 76/76/76 75/75/75 74/74/74
f 77/77/77 78/78/78 79/79/79
f 80/80/80 79/79/79 78/78/78
f 81/81/81 82/82/82 83/83/83
f 84/84/84 85/85/85 86/86/86
f 87/87/87 88/88/88 89/89/89
f 90/90/90 91/91/91 92/92/92
f 93/93/93 94/94/94 95/95/95
f 96/96/96 97/97/97 98/98/98
f 99/99/99 100/100/100 101/101/101
f 102/102/102 103/103/103 104/104/104
f 105/105/105 106/106/106 107/107/107
f 108/108/108 109/109/109 110/110/110
f 111/111/111 112/112/112 113/113/113
f 114/114/114 115/115/115 116/116/116
f 117/117/117 118/118/118 119/119/119
f 120/120/120 121/121/121 122/122/122
f 123/123/123 124/124/124 125/125/125
f 126/126/126 127/127/127 128/128/128
f 129/129/129 130/130/130 131/131/131
f 132/132/132 133/133/133 134/134/134
f 135/135/135 136/136/136 137/137/137
f 138/138/138 139/139/139 140/140/140
f 141/141/141 142/142/142 143/143/143
f 144/144/144 145/145/145 146/146/146
f 147/147/147 148/148/148 149/149/149
f 150/150/150 151/151/151 152/152/152
f 153/153/153 154/154/154 155/155/155
f 153/153/153 155/155/155 156/156/156
f 157/157/157 158/158/158 159/159/159
f 160/160/160 159/159/159 158/158/158
f 161/161/161 162/162/162 163/163/163
f 161/161/161 163/163/163 164/164/164
f 165/165/165 166/166/166 167/167/167
f 168/168/168 167/167/167 166/166/166
f 169/169/169 170/170/170 171/171/171
f 172/172/172 173/173/173 174/174/174
f 175/175/175 176/176/176 177/177/177
f 178/178/178 179/179/179 180/180/180
f 181/181/181 182/182/182 183/183/183
f 184/184/184 185/185/185 186/186/186
f 187/187/187 188/188/188 189/189/189
f 190/190/190 191/191/191 192/192/192
f 193/193/193 194/194/194 195/195/195
f 193/193/193 195/195/195 196/196/196
f 197/197/197 198/198/198 199/199/199
f 197/197/197 199/199/199 200/200/200
f 201/201/201 202/202/202 203/203/203
f 201/201/201 203/203/203 204/204/204
f 205/205/205 206/206/206 207/207/207
f 205/205/205 207/207/207 208/208/208
f 209/209/209 210/210/210 211/211/211
f 212/212/212 213/213/213 214/214/214
f 215/215/215 216/216/216 217/217/217
f 218/218/218 219/219/219 220/220/220
f 221/221/221 222/222/222 223/223/223
f 224/224/224 225/225/225 226/226/226
f 227/227/227 228/228/228 229/229/229
f 230/230/230 231/231/231 232/232/232
f 233/233/233 234/234/234 235/235/235
f 236/236/236 237/237/237 238/238/238
f 239/239/239 240/240/240 241/241/241
f 242/242/242 243/243/243 244/244/244
f 245/245/245 246/246/246 247/247/247
f 248/248/248 249/249/249 250/250/250
f 251/251/251 252/252/252 253/253/253
f 254/254/254 255/255/255 256/256/256
f 257/257/257 258/258/258 259/259/259
f 260/260/260 261/261/261 262/262/262
f 263/263/263 264/264/264 265/265/265
f 266/266/266 267/267/267 268/268/268
f 269/269/269 270/270/270 271/271/271
f 272/272/272 273/273/273 274/274/274
f 275/275/275 276/276/276 277/277/277
f 278/278/278 279/279/279 280/280/280
f 281/281/281 282/282/282 283/283/283
f 284/284/284 283/283/283 282/282/282
f 285/285/285 286/286/286 287/287/287
f 285/285/285 287/287/287 288/288/288
f 289/289/289 290/290/290 291/291/291
f 292/292/292 291/291/291 290/290/290
f 293/293/293 294/294/294 295/295/295
f 293/293/293 295/295/295 296/296/296
f 297/297/297 298/298/298 299/299/299
f 300/300/300 301/301/301 302/302/302
f 303/303/303 304/304/304 305/305/305
f 306/306/306 307/307/307 308/308/308
f 309/309/309 310/310/310 311/311/311
f 312/312/312 313/313/313 314/314/314
f 315/315/315 316/316/316 317/317/317
f 318/318/318 319/319/319 320/320/320
f 321/321/321 322/322/322 323/323/323
f 324/324/324 323/323/323 322/322/322
f 325/325/325 326/326/326 327/327/327
f 328/328/328 327/327/327 326/326/326
f 329/329/329 330/330/330 331/331/331
f 332/332/332 331/331/331 330/330/330
f 333/333/333 334/334/334 335/335/335
f 336/336/336 335/335/335 334/334/334
f 337/337/337 338/338/338 339/339/339
f 340/340/340 341/341/341 342/342/342
f 343/343/343 344/344/344 345/345/345
f 346/346/346 347/347/347 348/348/348
f 349/349/349 350/350/350 351/351/351
f 352/352/352 353/353/353 354/354/354
f 355/355/355 356/356/356 357/357/357
f 358/358/358 359/359/359 360/360/360
f 361/361/361 362/362/362 363/363/363
f 364/364/364 365/365/365 366/366/366
f 367/367/367 368/368/368 369/369/369
f 370/370/370 371/371/371 372/372/372
f 373/373/373 374/374/374 375/375/375
f 376/376/376 377/377/377 378/378/378
f 379/379/379 380/380/380 381/381/381
f 382/382/382 383/383/383 384/384/384
f 385/385/385 386/386/386 387/387/387
f 388/388/388 389/389/389 390/390/390
f 391/391/391 392/392/392 393/393/393
f 394/394/394 395/395/395 396/396/396
f 397/397/397 398/398/398 399/399/399
f 400/400/400 401/401/401 402/402/402
f 403/403/403 404/404/404 405/405/405
f 406/406/406 407/407/407 408/408/408
f 409/409/409 410/410/410 411/411/411
f 409/409/409 411/411/411 412/412/412
f 413/413/413 414/414/414 415/415/415
f 416/416/416 415/415/415 414/414/414
f 417/417/417 418/418/418 419/419/419
f 417/417/417 419/419/419 420/420/420
f 421/421/421 422/422/422 423/423/423
f 424/424/424 423/423/423 422/422/422
f 425/425/425 426/426/426 427/427/427
f 428/428/428 429/429/429 430/430/430
f 431/431/431 432/432/432 433/433/433
f 434/434/434 435/435/435 436/436/436
f 437/437/437 438/438/438 439/439/439
f 440/440/440 441/441/441 442/442/442
f 443/443/443 444/444/444 445/445/445
f 446/446/446 447/447/447 448/448/448
f 449/449/449 450/450/450 451/451/451
f 449/449/449 451/451/451 452/452/452
f 453/453/453 454/454/454 455/455/455
f 453/453/453 455/455/455 456/456/456
f 457/457/457 458/458/458 459/459/459
f 457/457/457 459/459/459 460/460/460
f 461/461/461 462/462/462 463/463/463
f 461/461/461 463/463/463 464/464/464
f 465/465/465 466/466/466 467/467/467
f 468/468/468 469/469/469 470/470/470
f 471/471/471 472/472/472 473/473/473
f 474/474/474 475/475/475 476/476/476
f 477/477/477 478/478/478 479/479/479
f 480/480/480 481/481/481 482/482/482
f 483/483/483 484/484/484 485/485/485
f 486/486/486 487/487/487 488/488/488
f 489/489/489 490/490/490 491/491/491
f 492/492/492 493/493/493 494/494/494
f 495/495/495 496/496/496 497/497/497
f 498/498/498 499/499/499 500/500/500
f 501/501/501 502/502/502 503/503/503
f 504/504/504 505/505/505 506/506/506
f 507/507/507 508/508/508 509/509/509
f 510/510/510 511/511/511 512/512/512
