# Handle | length 4 | blade -X up +Y
mtllib 06.mtl
g handle
v 1.113985 0.073735 0.488473
v 1.113985 0.014217 0.453606
v 1.113985 0.073735 0.453606
v 1.113985 0.014217 0.488473
v 1.077684 -0.023611 0.488473
v 1.077684 -0.083129 0.453606
v 1.077684 -0.023611 0.453606
v 1.077684 -0.083129 0.488473
v 1.077684 0.110760 0.453606
v 1.077684 0.170278 0.453606
v 1.077684 0.110760 0.488473
v 1.077684 0.170278 0.488473
v 1.004784 -0.127832 0.488473
v 1.004784 -0.187350 0.453606
v 1.004784 -0.127832 0.453606
v 1.004784 -0.187350 0.488473
v 1.004784 0.214974 0.453606
v 1.004784 0.274492 0.453606
v 1.004784 0.214974 0.488473
v 1.004784 0.274492 0.488473
v -0.977015 -0.057623 0.160851
v -1.006936 0.014618 -0.142430
v -1.006936 0.014618 0.160851
v -0.977015 -0.057623 -0.142430
v -1.006936 -0.129865 0.160851
v -1.006936 -0.129865 -0.142430
v 0.383743 -0.057623 0.395713
v 0.346342 0.032677 -0.377950
v 0.346342 0.032677 0.395713
v 0.383743 -0.057623 -0.377950
v 0.346342 -0.147923 0.395713
v 0.346342 -0.147923 -0.377950
v 0.773982 0.274492 0.488473
v 1.004784 0.274492 0.488473
v 0.773982 0.274492 0.453606
v 1.004784 0.274492 0.453606
v 0.701076 0.170278 0.488473
v 1.077684 0.170278 0.488473
v 0.701076 0.170278 0.453606
v 1.077684 0.170278 0.453606
v 1.113985 0.073735 0.453606
v 0.664774 0.073735 0.453606
v 0.664774 0.073735 0.488473
v 1.113985 0.073735 0.488473
v -1.151412 0.014618 -0.142430
v -1.079170 0.044538 0.160851
v -1.079170 0.044538 -0.142430
v -1.006936 0.014618 0.160851
v -1.151412 0.014618 0.160851
v -1.006936 0.014618 -0.142430
v 0.165742 0.032677 -0.377950
v 0.256042 0.070077 0.395713
v 0.256042 0.070077 -0.377950
v 0.346342 0.032677 0.395713
v 0.165742 0.032677 0.395713
v 0.346342 0.032677 -0.377950
v 1.077684 -0.023611 0.453606
v 0.701076 -0.023611 0.453606
v 0.701076 -0.023611 0.488473
v 1.077684 -0.023611 0.488473
v 1.004784 -0.127832 0.453606
v 0.773982 -0.127832 0.453606
v 0.773982 -0.127832 0.488473
v 1.004784 -0.127832 0.488473
v 1.113985 0.073735 0.488473
v 0.664774 0.073735 0.488473
v 1.113985 0.014217 0.488473
v 0.664774 0.014217 0.488473
v 1.077684 -0.023611 0.488473
v 0.701076 -0.023611 0.488473
v 1.077684 -0.083129 0.488473
v 0.701076 -0.083129 0.488473
v 1.004784 -0.127832 0.488473
v 0.773982 -0.127832 0.488473
v 1.004784 -0.187350 0.488473
v 0.773982 -0.187350 0.488473
v 0.701076 0.110760 0.488473
v 1.077684 0.110760 0.488473
v 1.077684 0.170278 0.488473
v 0.701076 0.170278 0.488473
v 0.773982 0.214974 0.488473
v 1.004784 0.214974 0.488473
v 1.004784 0.274492 0.488473
v 0.773982 0.274492 0.488473
v 0.165742 -0.147923 0.395713
v 0.165742 0.032677 0.395713
v 0.128342 -0.057623 0.395713
v 0.346342 -0.147923 0.395713
v 0.256042 -0.185324 0.395713
v 0.346342 0.032677 0.395713
v 0.256042 0.070077 0.395713
v 0.383743 -0.057623 0.395713
v -1.181332 -0.057623 0.160851
v -0.977015 -0.057623 0.160851
v -1.079170 0.044538 0.160851
v -1.006936 0.014618 0.160851
v -1.151412 0.014618 0.160851
v -1.079170 -0.159785 0.160851
v -1.151412 -0.129865 0.160851
v -1.006936 -0.129865 0.160851
v -1.181332 -0.057623 -0.142430
v -1.151412 0.014618 0.160851
v -1.151412 0.014618 -0.142430
v -1.181332 -0.057623 0.160851
v -1.151412 -0.129865 -0.142430
v -1.151412 -0.129865 0.160851
v 0.128342 -0.057623 -0.377950
v 0.165742 0.032677 0.395713
v 0.165742 0.032677 -0.377950
v 0.128342 -0.057623 0.395713
v 0.165742 -0.147923 -0.377950
v 0.165742 -0.147923 0.395713
v 0.664774 0.073735 0.453606
v 0.664774 0.014217 0.453606
v 0.664774 0.014217 0.488473
v 0.664774 0.073735 0.488473
v 0.701076 -0.023611 0.453606
v 0.701076 -0.083129 0.453606
v 0.701076 -0.083129 0.488473
v 0.701076 -0.023611 0.488473
v 0.701076 0.110760 0.453606
v 0.701076 0.170278 0.488473
v 0.701076 0.170278 0.453606
v 0.701076 0.110760 0.488473
v 0.773982 -0.127832 0.453606
v 0.773982 -0.187350 0.453606
v 0.773982 -0.187350 0.488473
v 0.773982 -0.127832 0.488473
v 0.773982 0.214974 0.453606
v 0.773982 0.274492 0.488473
v 0.773982 0.274492 0.453606
v 0.773982 0.214974 0.488473
v 0.773982 -0.187350 0.453606
v 1.004784 -0.187350 0.453606
v 1.004784 -0.187350 0.488473
v 0.773982 -0.187350 0.488473
v 0.701076 -0.083129 0.453606
v 1.077684 -0.083129 0.453606
v 1.077684 -0.083129 0.488473
v 0.701076 -0.083129 0.488473
v -1.079170 -0.159785 -0.142430
v -1.151412 -0.129865 0.160851
v -1.151412 -0.129865 -0.142430
v -1.079170 -0.159785 0.160851
v -1.006936 -0.129865 -0.142430
v -1.006936 -0.129865 0.160851
v 0.256042 -0.185324 -0.377950
v 0.165742 -0.147923 0.395713
v 0.165742 -0.147923 -0.377950
v 0.256042 -0.185324 0.395713
v 0.346342 -0.147923 -0.377950
v 0.346342 -0.147923 0.395713
v 1.113985 0.014217 0.488473
v 0.664774 0.014217 0.453606
v 1.113985 0.014217 0.453606
v 0.664774 0.014217 0.488473
v 1.077684 0.110760 0.488473
v 0.701076 0.110760 0.488473
v 1.077684 0.110760 0.453606
v 0.701076 0.110760 0.453606
v 1.004784 0.214974 0.488473
v 0.773982 0.214974 0.488473
v 1.004784 0.214974 0.453606
v 0.773982 0.214974 0.453606
v 0.346342 -0.147923 -0.377950
v 0.165742 0.032677 -0.377950
v 0.346342 0.032677 -0.377950
v 0.256042 0.070077 -0.377950
v 0.383743 -0.057623 -0.377950
v 0.165742 -0.147923 -0.377950
v 0.128342 -0.057623 -0.377950
v 0.256042 -0.185324 -0.377950
v -0.977015 -0.057623 -0.142430
v -1.079170 0.044538 -0.142430
v -1.006936 0.014618 -0.142430
v -1.181332 -0.057623 -0.142430
v -1.151412 0.014618 -0.142430
v -1.079170 -0.159785 -0.142430
v -1.006936 -0.129865 -0.142430
v -1.151412 -0.129865 -0.142430
v 1.113985 0.073735 0.453606
v 0.664774 0.014217 0.453606
v 0.664774 0.073735 0.453606
v 1.113985 0.014217 0.453606
v 1.077684 -0.023611 0.453606
v 0.701076 -0.083129 0.453606
v 0.701076 -0.023611 0.453606
v 1.077684 -0.083129 0.453606
v 1.004784 -0.127832 0.453606
v 0.773982 -0.187350 0.453606
v 0.773982 -0.127832 0.453606
v 1.004784 -0.187350 0.453606
v 0.701076 0.170278 0.453606
v 1.077684 0.170278 0.453606
v 1.077684 0.110760 0.453606
v 0.701076 0.110760 0.453606
v 1.004784 0.214974 0.453606
v 0.773982 0.274492 0.453606
v 1.004784 0.274492 0.453606
v 0.773982 0.214974 0.453606
vt 3.9177 -24.9943 
vt 3.92433 -25.0056 
vt 3.92433 -24.9943 
vt 3.9177 -25.0056 
vt 3.9177 -25.0128 
vt 3.92433 -25.0241 
vt 3.92433 -25.0128 
vt 3.9177 -25.0241 
vt 3.92433 -24.9872 
vt 3.92433 -24.9759 
vt 3.9177 -24.9872 
vt 3.9177 -24.9759 
vt 3.9177 -25.0326 
vt 3.92433 -25.0439 
vt 3.92433 -25.0326 
vt 3.9177 -25.0439 
vt 3.92433 -24.9674 
vt 3.92433 -24.9561 
vt 3.9177 -24.9674 
vt 3.9177 -24.9561 
vt 3.97999 -25.0192 
vt 4.03765 -25.0055 
vt 3.97999 -25.0055 
vt 4.03765 -25.0192 
vt 3.97999 -25.033 
vt 4.03765 -25.033 
vt 3.93534 -25.0192 
vt 4.0823 -25.0021 
vt 3.93534 -25.0021 
vt 4.0823 -25.0192 
vt 3.93534 -25.0364 
vt 4.0823 -25.0364 
vt 3.84654 -24.9177 
vt 3.80269 -24.9177 
vt 3.84654 -24.9243 
vt 3.80269 -24.9243 
vt 3.86039 -24.9177 
vt 3.78884 -24.9177 
vt 3.86039 -24.9243 
vt 3.78884 -24.9243 
vt 3.78194 -24.9243 
vt 3.86729 -24.9243 
vt 3.86729 -24.9177 
vt 3.78194 -24.9177 
vt 4.21238 -25.0376 
vt 4.19865 -24.98 
vt 4.19865 -25.0376 
vt 4.18492 -24.98 
vt 4.21238 -24.98 
vt 4.18492 -25.0376 
vt 3.96211 -25.0823 
vt 3.94495 -24.9353 
vt 3.94495 -25.0823 
vt 3.9278 -24.9353 
vt 3.96211 -24.9353 
vt 3.9278 -25.0823 
vt 3.78884 -24.9243 
vt 3.86039 -24.9243 
vt 3.86039 -24.9177 
vt 3.78884 -24.9177 
vt 3.80269 -24.9243 
vt 3.84654 -24.9243 
vt 3.84654 -24.9177 
vt 3.80269 -24.9177 
vt 4.21806 -24.9943 
vt 4.13271 -24.9943 
vt 4.21806 -25.0056 
vt 4.13271 -25.0056 
vt 4.21116 -25.0128 
vt 4.13961 -25.0128 
vt 4.21116 -25.0241 
vt 4.13961 -25.0241 
vt 4.19731 -25.0326 
vt 4.15346 -25.0326 
vt 4.19731 -25.0439 
vt 4.15346 -25.0439 
vt 4.13961 -24.9872 
vt 4.21116 -24.9872 
vt 4.21116 -24.9759 
vt 4.13961 -24.9759 
vt 4.15346 -24.9674 
vt 4.19731 -24.9674 
vt 4.19731 -24.9561 
vt 4.15346 -24.9561 
vt 4.03789 -25.0364 
vt 4.03789 -25.0021 
vt 4.03078 -25.0192 
vt 4.0722 -25.0364 
vt 4.05505 -25.0435 
vt 4.0722 -25.0021 
vt 4.05505 -24.995 
vt 4.07931 -25.0192 
vt 3.78194 -25.0192 
vt 3.82076 -25.0192 
vt 3.80135 -24.9998 
vt 3.81508 -25.0055 
vt 3.78762 -25.0055 
vt 3.80135 -25.0386 
vt 3.78762 -25.033 
vt 3.81508 -25.033 
vt 3.96235 -25.0192 
vt 4.02001 -25.0055 
vt 3.96235 -25.0055 
vt 4.02001 -25.0192 
vt 3.96235 -25.033 
vt 4.02001 -25.033 
vt 3.9177 -25.0192 
vt 4.06466 -25.0021 
vt 3.9177 -25.0021 
vt 4.06466 -25.0192 
vt 3.9177 -25.0364 
vt 4.06466 -25.0364 
vt 4.07567 -24.9943 
vt 4.07567 -25.0056 
vt 4.0823 -25.0056 
vt 4.0823 -24.9943 
vt 4.07567 -25.0128 
vt 4.07567 -25.0241 
vt 4.0823 -25.0241 
vt 4.0823 -25.0128 
vt 4.07567 -24.9872 
vt 4.0823 -24.9759 
vt 4.07567 -24.9759 
vt 4.0823 -24.9872 
vt 4.07567 -25.0326 
vt 4.07567 -25.0439 
vt 4.0823 -25.0439 
vt 4.0823 -25.0326 
vt 4.07567 -24.9674 
vt 4.0823 -24.9561 
vt 4.07567 -24.9561 
vt 4.0823 -24.9674 
vt 4.15346 -24.9243 
vt 4.19731 -24.9243 
vt 4.19731 -24.9177 
vt 4.15346 -24.9177 
vt 4.13961 -24.9243 
vt 4.21116 -24.9243 
vt 4.21116 -24.9177 
vt 4.13961 -24.9177 
vt 3.80135 -25.0376 
vt 3.78762 -24.98 
vt 3.78762 -25.0376 
vt 3.80135 -24.98 
vt 3.81508 -25.0376 
vt 3.81508 -24.98 
vt 4.05505 -25.0823 
vt 4.03789 -24.9353 
vt 4.03789 -25.0823 
vt 4.05505 -24.9353 
vt 4.0722 -25.0823 
vt 4.0722 -24.9353 
vt 4.21806 -24.9177 
vt 4.13271 -24.9243 
vt 4.21806 -24.9243 
vt 4.13271 -24.9177 
vt 4.21116 -24.9177 
vt 4.13961 -24.9177 
vt 4.21116 -24.9243 
vt 4.13961 -24.9243 
vt 4.19731 -24.9177 
vt 4.15346 -24.9177 
vt 4.19731 -24.9243 
vt 4.15346 -24.9243 
vt 3.9278 -25.0364 
vt 3.96211 -25.0021 
vt 3.9278 -25.0021 
vt 3.94495 -24.995 
vt 3.92069 -25.0192 
vt 3.96211 -25.0364 
vt 3.96922 -25.0192 
vt 3.94495 -25.0435 
vt 4.17924 -25.0192 
vt 4.19865 -24.9998 
vt 4.18492 -25.0055 
vt 4.21806 -25.0192 
vt 4.21238 -25.0055 
vt 4.19865 -25.0386 
vt 4.18492 -25.033 
vt 4.21238 -25.033 
vt 3.78194 -24.9943 
vt 3.86729 -25.0056 
vt 3.86729 -24.9943 
vt 3.78194 -25.0056 
vt 3.78884 -25.0128 
vt 3.86039 -25.0241 
vt 3.86039 -25.0128 
vt 3.78884 -25.0241 
vt 3.80269 -25.0326 
vt 3.84654 -25.0439 
vt 3.84654 -25.0326 
vt 3.80269 -25.0439 
vt 3.86039 -24.9759 
vt 3.78884 -24.9759 
vt 3.78884 -24.9872 
vt 3.86039 -24.9872 
vt 3.80269 -24.9674 
vt 3.84654 -24.9561 
vt 3.80269 -24.9561 
vt 3.84654 -24.9674 
vn 1.0000 0.0000 -0.0000
vn 1.0000 0.0000 -0.0000
vn 1.0000 0.0000 -0.0000
vn 1.0000 0.0000 -0.0000
vn 1.0000 0.0000 -0.0000
vn 1.0000 0.0000 -0.0000
vn 1.0000 0.0000 -0.0000
vn 1.0000 0.0000 -0.0000
vn 1.0000 0.0000 -0.0000
vn 1.0000 0.0000 -0.0000
vn 1.0000 0.0000 -0.0000
vn 1.0000 0.0000 -0.0000
vn 1.0000 0.0000 -0.0000
vn 1.0000 0.0000 -0.0000
vn 1.0000 0.0000 -0.0000
vn 1.0000 0.0000 -0.0000
vn 1.0000 0.0000 -0.0000
vn 1.0000 0.0000 -0.0000
vn 1.0000 0.0000 -0.0000
vn 1.0000 0.0000 -0.0000
vn 1.0000 0.0000 -0.0000
vn 0.7087 0.7087 -0.0000
vn 0.7087 0.7087 -0.0000
vn 1.0000 0.0000 -0.0000
vn 0.7087 -0.7087 -0.0000
vn 0.7087 -0.7087 -0.0000
vn 1.0000 0.0000 -0.0000
vn 0.7087 0.7087 -0.0000
vn 0.7087 0.7087 -0.0000
vn 1.0000 0.0000 -0.0000
vn 0.7087 -0.7087 -0.0000
vn 0.7087 -0.7087 -0.0000
vn 0.0000 1.0000 -0.0000
vn 0.0000 1.0000 -0.0000
vn 0.0000 1.0000 -0.0000
vn 0.0000 1.0000 -0.0000
vn 0.0000 1.0000 -0.0000
vn 0.0000 1.0000 -0.0000
vn 0.0000 1.0000 -0.0000
vn 0.0000 1.0000 -0.0000
vn 0.0000 1.0000 -0.0000
vn 0.0000 1.0000 -0.0000
vn 0.0000 1.0000 -0.0000
vn 0.0000 1.0000 -0.0000
vn -0.7087 0.7087 -0.0000
vn 0.0000 1.0000 -0.0000
vn 0.0000 1.0000 -0.0000
vn 0.7087 0.7087 -0.0000
vn -0.7087 0.7087 -0.0000
vn 0.7087 0.7087 -0.0000
vn -0.7087 0.7087 -0.0000
vn 0.0000 1.0000 -0.0000
vn 0.0000 1.0000 -0.0000
vn 0.7087 0.7087 -0.0000
vn -0.7087 0.7087 -0.0000
vn 0.7087 0.7087 -0.0000
vn 0.0000 1.0000 -0.0000
vn 0.0000 1.0000 -0.0000
vn 0.0000 1.0000 -0.0000
vn 0.0000 1.0000 -0.0000
vn 0.0000 1.0000 -0.0000
vn 0.0000 1.0000 -0.0000
vn 0.0000 1.0000 -0.0000
vn 0.0000 1.0000 -0.0000
vn 0.0000 0.0000 1.0000
vn 0.0000 0.0000 1.0000
vn 0.0000 0.0000 1.0000
vn 0.0000 0.0000 1.0000
vn 0.0000 0.0000 1.0000
vn 0.0000 0.0000 1.0000
vn 0.0000 0.0000 1.0000
vn 0.0000 0.0000 1.0000
vn 0.0000 0.0000 1.0000
vn 0.0000 0.0000 1.0000
vn 0.0000 0.0000 1.0000
vn 0.0000 0.0000 1.0000
vn 0.0000 0.0000 1.0000
vn 0.0000 0.0000 1.0000
vn 0.0000 0.0000 1.0000
vn 0.0000 0.0000 1.0000
vn 0.0000 0.0000 1.0000
vn 0.0000 0.0000 1.0000
vn 0.0000 0.0000 1.0000
vn 0.0000 0.0000 1.0000
vn 0.0000 0.0000 1.0000
vn 0.0000 0.0000 1.0000
vn 0.0000 0.0000 1.0000
vn 0.0000 0.0000 1.0000
vn 0.0000 0.0000 1.0000
vn 0.0000 0.0000 1.0000
vn 0.0000 0.0000 1.0000
vn 0.0000 0.0000 1.0000
vn 0.0000 0.0000 1.0000
vn 0.0000 0.0000 1.0000
vn 0.0000 0.0000 1.0000
vn 0.0000 0.0000 1.0000
vn 0.0000 0.0000 1.0000
vn 0.0000 0.0000 1.0000
vn 0.0000 0.0000 1.0000
vn 0.0000 0.0000 1.0000
vn -1.0000 0.0000 -0.0000
vn -0.7087 0.7087 -0.0000
vn -0.7087 0.7087 -0.0000
vn -1.0000 0.0000 -0.0000
vn -0.7087 -0.7087 -0.0000
vn -0.7087 -0.7087 -0.0000
vn -1.0000 0.0000 -0.0000
vn -0.7087 0.7087 -0.0000
vn -0.7087 0.7087 -0.0000
vn -1.0000 0.0000 -0.0000
vn -0.7087 -0.7087 -0.0000
vn -0.7087 -0.7087 -0.0000
vn -1.0000 0.0000 -0.0000
vn -1.0000 0.0000 -0.0000
vn -1.0000 0.0000 -0.0000
vn -1.0000 0.0000 -0.0000
vn -1.0000 0.0000 -0.0000
vn -1.0000 0.0000 -0.0000
vn -1.0000 0.0000 -0.0000
vn -1.0000 0.0000 -0.0000
vn -1.0000 0.0000 -0.0000
vn -1.0000 0.0000 -0.0000
vn -1.0000 0.0000 -0.0000
vn -1.0000 0.0000 -0.0000
vn -1.0000 0.0000 -0.0000
vn -1.0000 0.0000 -0.0000
vn -1.0000 0.0000 -0.0000
vn -1.0000 0.0000 -0.0000
vn -1.0000 0.0000 -0.0000
vn -1.0000 0.0000 -0.0000
vn -1.0000 0.0000 -0.0000
vn -1.0000 0.0000 -0.0000
vn 0.0000 -1.0000 -0.0000
vn 0.0000 -1.0000 -0.0000
vn 0.0000 -1.0000 -0.0000
vn 0.0000 -1.0000 -0.0000
vn 0.0000 -1.0000 -0.0000
vn 0.0000 -1.0000 -0.0000
vn 0.0000 -1.0000 -0.0000
vn 0.0000 -1.0000 -0.0000
vn 0.0000 -1.0000 -0.0000
vn -0.7087 -0.7087 -0.0000
vn -0.7087 -0.7087 -0.0000
vn 0.0000 -1.0000 -0.0000
vn 0.7087 -0.7087 -0.0000
vn 0.7087 -0.7087 -0.0000
vn 0.0000 -1.0000 -0.0000
vn -0.7087 -0.7087 -0.0000
vn -0.7087 -0.7087 -0.0000
vn 0.0000 -1.0000 -0.0000
vn 0.7087 -0.7087 -0.0000
vn 0.7087 -0.7087 -0.0000
vn 0.0000 -1.0000 -0.0000
vn 0.0000 -1.0000 -0.0000
vn 0.0000 -1.0000 -0.0000
vn 0.0000 -1.0000 -0.0000
vn 0.0000 -1.0000 -0.0000
vn 0.0000 -1.0000 -0.0000
vn 0.0000 -1.0000 -0.0000
vn 0.0000 -1.0000 -0.0000
vn 0.0000 -1.0000 -0.0000
vn 0.0000 -1.0000 -0.0000
vn 0.0000 -1.0000 -0.0000
vn 0.0000 -1.0000 -0.0000
vn 0.0000 0.0000 -1.0000
vn 0.0000 0.0000 -1.0000
vn 0.0000 0.0000 -1.0000
vn 0.0000 0.0000 -1.0000
vn 0.0000 0.0000 -1.0000
vn 0.0000 0.0000 -1.0000
vn 0.0000 0.0000 -1.0000
vn 0.0000 0.0000 -1.0000
vn 0.0000 0.0000 -1.0000
vn 0.0000 0.0000 -1.0000
vn 0.0000 0.0000 -1.0000
vn 0.0000 0.0000 -1.0000
vn 0.0000 0.0000 -1.0000
vn 0.0000 0.0000 -1.0000
vn 0.0000 0.0000 -1.0000
vn 0.0000 0.0000 -1.0000
vn 0.0000 0.0000 -1.0000
vn 0.0000 0.0000 -1.0000
vn 0.0000 0.0000 -1.0000
vn 0.0000 0.0000 -1.0000
vn 0.0000 0.0000 -1.0000
vn 0.0000 0.0000 -1.0000
vn 0.0000 0.0000 -1.0000
vn 0.0000 0.0000 -1.0000
vn 0.0000 0.0000 -1.0000
vn 0.0000 0.0000 -1.0000
vn 0.0000 0.0000 -1.0000
vn 0.0000 0.0000 -1.0000
vn 0.0000 0.0000 -1.0000
vn 0.0000 0.0000 -1.0000
vn 0.0000 0.0000 -1.0000
vn 0.0000 0.0000 -1.0000
vn 0.0000 0.0000 -1.0000
vn 0.0000 0.0000 -1.0000
vn 0.0000 0.0000 -1.0000
vn 0.0000 0.0000 -1.0000
usemtl Meshpart2Mtl
f 1/1/1 2/2/2 3/3/3
f 2/2/2 1/1/1 4/4/4
f 5/5/5 6/6/6 7/7/7
f 6/6/6 5/5/5 8/8/8
f 9/9/9 10/10/10 11/11/11
f 10/10/10 12/12/12 11/11/11
f 13/13/13 14/14/14 15/15/15
f 14/14/14 13/13/13 16/16/16
f 17/17/17 18/18/18 19/19/19
f 18/18/18 20/20/20 19/19/19
f 21/21/21 22/22/22 23/23/23
f 22/22/22 21/21/21 24/24/24
f 25/25/25 24/24/24 21/21/21
f 24/24/24 25/25/25 26/26/26
f 27/27/27 28/28/28 29/29/29
f 28/28/28 27/27/27 30/30/30
f 31/31/31 30/30/30 27/27/27
f 30/30/30 31/31/31 32/32/32
f 33/33/33 34/34/34 35/35/35
f 36/36/36 35/35/35 34/34/34
f 37/37/37 38/38/38 39/39/39
f 40/40/40 39/39/39 38/38/38
f 41/41/41 42/42/42 43/43/43
f 41/41/41 43/43/43 44/44/44
f 45/45/45 46/46/46 47/47/47
f 48/48/48 47/47/47 46/46/46
f 46/46/46 45/45/45 49/49/49
f 47/47/47 48/48/48 50/50/50
f 51/51/51 52/52/52 53/53/53
f 54/54/54 53/53/53 52/52/52
f 52/52/52 51/51/51 55/55/55
f 53/53/53 54/54/54 56/56/56
f 57/57/57 58/58/58 59/59/59
f 57/57/57 59/59/59 60/60/60
f 61/61/61 62/62/62 63/63/63
f 61/61/61 63/63/63 64/64/64
f 65/65/65 66/66/66 67/67/67
f 68/68/68 67/67/67 66/66/66
f 69/69/69 70/70/70 71/71/71
f 72/72/72 71/71/71 70/70/70
f 73/73/73 74/74/74 75/75/75
f 76/76/76 75/75/75 74/74/74
f 77/77/77 78/78/78 79/79/79
f 77/77/77 79/79/79 80/80/80
f 81/81/81 82/82/82 83/83/83
f 81/81/81 83/83/83 84/84/84
f 85/85/85 86/86/86 87/87/87
f 86/86/86 85/85/85 88/88/88
f 88/88/88 85/85/85 89/89/89
f 90/90/90 86/86/86 88/88/88
f 86/86/86 90/90/90 91/91/91
f 90/90/90 88/88/88 92/92/92
f 93/93/93 94/94/94 95/95/95
f 95/95/95 94/94/94 96/96/96
f 93/93/93 95/95/95 97/97/97
f 94/94/94 93/93/93 98/98/98
f 98/98/98 93/93/93 99/99/99
f 94/94/94 98/98/98 100/100/100
f 101/101/101 102/102/102 103/103/103
f 102/102/102 101/101/101 104/104/104
f 105/105/105 104/104/104 101/101/101
f 104/104/104 105/105/105 106/106/106
f 107/107/107 108/108/108 109/109/109
f 108/108/108 107/107/107 110/110/110
f 111/111/111 110/110/110 107/107/107
f 110/110/110 111/111/111 112/112/112
f 113/113/113 114/114/114 115/115/115
f 113/113/113 115/115/115 116/116/116
f 117/117/117 118/118/118 119/119/119
f 117/117/117 119/119/119 120/120/120
f 121/121/121 122/122/122 123/123/123
f 122/122/122 121/121/121 124/124/124
f 125/125/125 126/126/126 127/127/127
f 125/125/125 127/127/127 128/128/128
f 129/129/129 130/130/130 131/131/131
f 130/130/130 129/129/129 132/132/132
f 133/133/133 134/134/134 135/135/135
f 133/133/133 135/135/135 136/136/136
f 137/137/137 138/138/138 139/139/139
f 137/137/137 139/139/139 140/140/140
f 141/141/141 142/142/142 143/143/143
f 144/144/144 145/145/145 146/146/146
f 142/142/142 141/141/141 144/144/144
f 145/145/145 144/144/144 141/141/141
f 147/147/147 148/148/148 149/149/149
f 150/150/150 151/151/151 152/152/152
f 148/148/148 147/147/147 150/150/150
f 151/151/151 150/150/150 147/147/147
f 153/153/153 154/154/154 155/155/155
f 154/154/154 153/153/153 156/156/156
f 157/157/157 158/158/158 159/159/159
f 160/160/160 159/159/159 158/158/158
f 161/161/161 162/162/162 163/163/163
f 164/164/164 163/163/163 162/162/162
f 165/165/165 166/166/166 167/167/167
f 167/167/167 166/166/166 168/168/168
f 165/165/165 167/167/167 169/169/169
f 165/165/165 170/170/170 166/166/166
f 166/166/166 170/170/170 171/171/171
f 170/170/170 165/165/165 172/172/172
f 173/173/173 174/174/174 175/175/175
f 173/173/173 176/176/176 174/174/174
f 174/174/174 176/176/176 177/177/177
f 176/176/176 173/173/173 178/178/178
f 178/178/178 173/173/173 179/179/179
f 176/176/176 178/178/178 180/180/180
f 181/181/181 182/182/182 183/183/183
f 182/182/182 181/181/181 184/184/184
f 185/185/185 186/186/186 187/187/187
f 186/186/186 185/185/185 188/188/188
f 189/189/189 190/190/190 191/191/191
f 190/190/190 189/189/189 192/192/192
f 193/193/193 194/194/194 195/195/195
f 193/193/193 195/195/195 196/196/196
f 197/197/197 198/198/198 199/199/199
f 198/198/198 197/197/197 200/200/200
